; NON-PLATED HOLES START AT T1
; THROUGH (PLATED) HOLES START AT T100
M48
INCH
T100C0.038000
T101C0.040000
%
T100
X006528Y006489
X001028Y000989
X007528Y006489
X001028Y003989
X004528Y000489
X002028Y003489
X002528Y000489
X004528Y006489
X006528Y000489
X002028Y002489
X005528Y006489
X001028Y005989
X002528Y006489
X003528Y006489
X005528Y000489
X007528Y000489
X002028Y004489
X001028Y004989
X003528Y000489
X001028Y001989
X001028Y002989
T101
X002028Y005489
X005028Y005489
X007028Y001489
X004028Y001489
X002028Y001489
X005028Y001489
X006028Y005489
X004028Y005489
X006028Y001489
X003028Y005489
X003028Y001489
X007028Y005489
T00
M30
