G04 MADE WITH FRITZING*
G04 WWW.FRITZING.ORG*
G04 DOUBLE SIDED*
G04 HOLES PLATED*
G04 CONTOUR ON CENTER OF CONTOUR VECTOR*
%ASAXBY*%
%FSLAX23Y23*%
%MOIN*%
%OFA0B0*%
%SFA1.0B1.0*%
%ADD10C,0.064000*%
%ADD11C,0.078000*%
%ADD12C,0.024000*%
%LNCOPPER1*%
G90*
G70*
G54D10*
X303Y549D03*
X403Y549D03*
X503Y549D03*
X603Y549D03*
X703Y549D03*
X703Y149D03*
X603Y149D03*
X503Y149D03*
X403Y149D03*
X303Y149D03*
X203Y149D03*
X203Y549D03*
G54D11*
X203Y249D03*
X203Y349D03*
X203Y449D03*
X753Y649D03*
X653Y649D03*
X553Y649D03*
X453Y649D03*
X353Y649D03*
X253Y649D03*
X753Y49D03*
X653Y49D03*
X553Y49D03*
X453Y49D03*
X353Y49D03*
X253Y49D03*
X103Y599D03*
X103Y499D03*
X103Y399D03*
X103Y299D03*
X103Y199D03*
X103Y99D03*
G54D12*
X666Y76D02*
X689Y121D01*
D02*
X589Y121D02*
X566Y76D01*
D02*
X489Y121D02*
X466Y76D01*
D02*
X389Y121D02*
X366Y76D01*
D02*
X502Y180D02*
X502Y198D01*
D02*
X502Y198D02*
X453Y249D01*
D02*
X453Y249D02*
X233Y249D01*
D02*
X503Y449D02*
X503Y518D01*
D02*
X402Y349D02*
X503Y449D01*
D02*
X233Y349D02*
X402Y349D01*
D02*
X378Y449D02*
X233Y449D01*
D02*
X403Y474D02*
X378Y449D01*
D02*
X403Y518D02*
X403Y474D01*
D02*
X762Y78D02*
X778Y124D01*
D02*
X778Y549D02*
X760Y620D01*
D02*
X778Y124D02*
X778Y549D01*
D02*
X589Y577D02*
X566Y622D01*
D02*
X689Y577D02*
X666Y622D01*
D02*
X417Y577D02*
X439Y622D01*
D02*
X283Y649D02*
X323Y649D01*
D02*
X176Y462D02*
X130Y485D01*
D02*
X103Y529D02*
X103Y569D01*
D02*
X173Y349D02*
X153Y349D01*
D02*
X153Y349D02*
X124Y378D01*
D02*
X176Y235D02*
X130Y212D01*
D02*
X103Y169D02*
X103Y129D01*
D02*
X153Y349D02*
X124Y378D01*
D02*
X124Y320D02*
X153Y349D01*
D02*
X116Y372D02*
X128Y349D01*
D02*
X128Y349D02*
X116Y326D01*
D02*
X103Y369D02*
X103Y329D01*
D02*
X224Y658D02*
X178Y674D01*
D02*
X53Y674D02*
X28Y649D01*
D02*
X178Y674D02*
X53Y674D01*
D02*
X28Y649D02*
X28Y249D01*
D02*
X28Y249D02*
X78Y216D01*
G04 End of Copper1*
M02*