G04 MADE WITH FRITZING*
G04 WWW.FRITZING.ORG*
G04 DOUBLE SIDED*
G04 HOLES PLATED*
G04 CONTOUR ON CENTER OF CONTOUR VECTOR*
%ASAXBY*%
%FSLAX23Y23*%
%MOIN*%
%OFA0B0*%
%SFA1.0B1.0*%
%ADD10R,0.001000X0.001000*%
%LNSILK0*%
G90*
G70*
G54D10*
X0Y702D02*
X806Y702D01*
X0Y701D02*
X806Y701D01*
X0Y700D02*
X806Y700D01*
X0Y699D02*
X806Y699D01*
X0Y698D02*
X806Y698D01*
X0Y697D02*
X806Y697D01*
X0Y696D02*
X806Y696D01*
X0Y695D02*
X806Y695D01*
X0Y694D02*
X7Y694D01*
X799Y694D02*
X806Y694D01*
X0Y693D02*
X7Y693D01*
X799Y693D02*
X806Y693D01*
X0Y692D02*
X7Y692D01*
X799Y692D02*
X806Y692D01*
X0Y691D02*
X7Y691D01*
X799Y691D02*
X806Y691D01*
X0Y690D02*
X7Y690D01*
X799Y690D02*
X806Y690D01*
X0Y689D02*
X7Y689D01*
X799Y689D02*
X806Y689D01*
X0Y688D02*
X7Y688D01*
X799Y688D02*
X806Y688D01*
X0Y687D02*
X7Y687D01*
X799Y687D02*
X806Y687D01*
X0Y686D02*
X7Y686D01*
X799Y686D02*
X806Y686D01*
X0Y685D02*
X7Y685D01*
X799Y685D02*
X806Y685D01*
X0Y684D02*
X7Y684D01*
X799Y684D02*
X806Y684D01*
X0Y683D02*
X7Y683D01*
X799Y683D02*
X806Y683D01*
X0Y682D02*
X7Y682D01*
X799Y682D02*
X806Y682D01*
X0Y681D02*
X7Y681D01*
X799Y681D02*
X806Y681D01*
X0Y680D02*
X7Y680D01*
X799Y680D02*
X806Y680D01*
X0Y679D02*
X7Y679D01*
X799Y679D02*
X806Y679D01*
X0Y678D02*
X7Y678D01*
X799Y678D02*
X806Y678D01*
X0Y677D02*
X7Y677D01*
X799Y677D02*
X806Y677D01*
X0Y676D02*
X7Y676D01*
X799Y676D02*
X806Y676D01*
X0Y675D02*
X7Y675D01*
X799Y675D02*
X806Y675D01*
X0Y674D02*
X7Y674D01*
X799Y674D02*
X806Y674D01*
X0Y673D02*
X7Y673D01*
X799Y673D02*
X806Y673D01*
X0Y672D02*
X7Y672D01*
X799Y672D02*
X806Y672D01*
X0Y671D02*
X7Y671D01*
X799Y671D02*
X806Y671D01*
X0Y670D02*
X7Y670D01*
X799Y670D02*
X806Y670D01*
X0Y669D02*
X7Y669D01*
X799Y669D02*
X806Y669D01*
X0Y668D02*
X7Y668D01*
X799Y668D02*
X806Y668D01*
X0Y667D02*
X7Y667D01*
X799Y667D02*
X806Y667D01*
X0Y666D02*
X7Y666D01*
X799Y666D02*
X806Y666D01*
X0Y665D02*
X7Y665D01*
X799Y665D02*
X806Y665D01*
X0Y664D02*
X7Y664D01*
X799Y664D02*
X806Y664D01*
X0Y663D02*
X7Y663D01*
X799Y663D02*
X806Y663D01*
X0Y662D02*
X7Y662D01*
X799Y662D02*
X806Y662D01*
X0Y661D02*
X7Y661D01*
X799Y661D02*
X806Y661D01*
X0Y660D02*
X7Y660D01*
X799Y660D02*
X806Y660D01*
X0Y659D02*
X7Y659D01*
X799Y659D02*
X806Y659D01*
X0Y658D02*
X7Y658D01*
X799Y658D02*
X806Y658D01*
X0Y657D02*
X7Y657D01*
X799Y657D02*
X806Y657D01*
X0Y656D02*
X7Y656D01*
X799Y656D02*
X806Y656D01*
X0Y655D02*
X7Y655D01*
X799Y655D02*
X806Y655D01*
X0Y654D02*
X7Y654D01*
X799Y654D02*
X806Y654D01*
X0Y653D02*
X7Y653D01*
X799Y653D02*
X806Y653D01*
X0Y652D02*
X7Y652D01*
X799Y652D02*
X806Y652D01*
X0Y651D02*
X7Y651D01*
X799Y651D02*
X806Y651D01*
X0Y650D02*
X7Y650D01*
X799Y650D02*
X806Y650D01*
X0Y649D02*
X7Y649D01*
X799Y649D02*
X806Y649D01*
X0Y648D02*
X7Y648D01*
X799Y648D02*
X806Y648D01*
X0Y647D02*
X7Y647D01*
X799Y647D02*
X806Y647D01*
X0Y646D02*
X7Y646D01*
X799Y646D02*
X806Y646D01*
X0Y645D02*
X7Y645D01*
X799Y645D02*
X806Y645D01*
X0Y644D02*
X7Y644D01*
X799Y644D02*
X806Y644D01*
X0Y643D02*
X7Y643D01*
X799Y643D02*
X806Y643D01*
X0Y642D02*
X7Y642D01*
X799Y642D02*
X806Y642D01*
X0Y641D02*
X7Y641D01*
X799Y641D02*
X806Y641D01*
X0Y640D02*
X7Y640D01*
X799Y640D02*
X806Y640D01*
X0Y639D02*
X7Y639D01*
X799Y639D02*
X806Y639D01*
X0Y638D02*
X7Y638D01*
X799Y638D02*
X806Y638D01*
X0Y637D02*
X7Y637D01*
X799Y637D02*
X806Y637D01*
X0Y636D02*
X7Y636D01*
X799Y636D02*
X806Y636D01*
X0Y635D02*
X7Y635D01*
X799Y635D02*
X806Y635D01*
X0Y634D02*
X7Y634D01*
X799Y634D02*
X806Y634D01*
X0Y633D02*
X7Y633D01*
X799Y633D02*
X806Y633D01*
X0Y632D02*
X7Y632D01*
X799Y632D02*
X806Y632D01*
X0Y631D02*
X7Y631D01*
X799Y631D02*
X806Y631D01*
X0Y630D02*
X7Y630D01*
X799Y630D02*
X806Y630D01*
X0Y629D02*
X7Y629D01*
X799Y629D02*
X806Y629D01*
X0Y628D02*
X7Y628D01*
X799Y628D02*
X806Y628D01*
X0Y627D02*
X7Y627D01*
X799Y627D02*
X806Y627D01*
X0Y626D02*
X7Y626D01*
X799Y626D02*
X806Y626D01*
X0Y625D02*
X7Y625D01*
X799Y625D02*
X806Y625D01*
X0Y624D02*
X7Y624D01*
X799Y624D02*
X806Y624D01*
X0Y623D02*
X7Y623D01*
X799Y623D02*
X806Y623D01*
X0Y622D02*
X7Y622D01*
X799Y622D02*
X806Y622D01*
X0Y621D02*
X7Y621D01*
X799Y621D02*
X806Y621D01*
X0Y620D02*
X7Y620D01*
X799Y620D02*
X806Y620D01*
X0Y619D02*
X7Y619D01*
X799Y619D02*
X806Y619D01*
X0Y618D02*
X7Y618D01*
X799Y618D02*
X806Y618D01*
X0Y617D02*
X7Y617D01*
X799Y617D02*
X806Y617D01*
X0Y616D02*
X7Y616D01*
X799Y616D02*
X806Y616D01*
X0Y615D02*
X7Y615D01*
X799Y615D02*
X806Y615D01*
X0Y614D02*
X7Y614D01*
X799Y614D02*
X806Y614D01*
X0Y613D02*
X7Y613D01*
X799Y613D02*
X806Y613D01*
X0Y612D02*
X7Y612D01*
X799Y612D02*
X806Y612D01*
X0Y611D02*
X7Y611D01*
X799Y611D02*
X806Y611D01*
X0Y610D02*
X7Y610D01*
X799Y610D02*
X806Y610D01*
X0Y609D02*
X7Y609D01*
X799Y609D02*
X806Y609D01*
X0Y608D02*
X7Y608D01*
X799Y608D02*
X806Y608D01*
X0Y607D02*
X7Y607D01*
X799Y607D02*
X806Y607D01*
X0Y606D02*
X7Y606D01*
X799Y606D02*
X806Y606D01*
X0Y605D02*
X7Y605D01*
X799Y605D02*
X806Y605D01*
X0Y604D02*
X7Y604D01*
X799Y604D02*
X806Y604D01*
X0Y603D02*
X7Y603D01*
X799Y603D02*
X806Y603D01*
X0Y602D02*
X7Y602D01*
X799Y602D02*
X806Y602D01*
X0Y601D02*
X7Y601D01*
X799Y601D02*
X806Y601D01*
X0Y600D02*
X7Y600D01*
X799Y600D02*
X806Y600D01*
X0Y599D02*
X7Y599D01*
X799Y599D02*
X806Y599D01*
X0Y598D02*
X7Y598D01*
X799Y598D02*
X806Y598D01*
X0Y597D02*
X7Y597D01*
X799Y597D02*
X806Y597D01*
X0Y596D02*
X7Y596D01*
X799Y596D02*
X806Y596D01*
X0Y595D02*
X7Y595D01*
X799Y595D02*
X806Y595D01*
X0Y594D02*
X7Y594D01*
X799Y594D02*
X806Y594D01*
X0Y593D02*
X7Y593D01*
X799Y593D02*
X806Y593D01*
X0Y592D02*
X7Y592D01*
X799Y592D02*
X806Y592D01*
X0Y591D02*
X7Y591D01*
X799Y591D02*
X806Y591D01*
X0Y590D02*
X7Y590D01*
X799Y590D02*
X806Y590D01*
X0Y589D02*
X7Y589D01*
X799Y589D02*
X806Y589D01*
X0Y588D02*
X7Y588D01*
X799Y588D02*
X806Y588D01*
X0Y587D02*
X7Y587D01*
X799Y587D02*
X806Y587D01*
X0Y586D02*
X7Y586D01*
X799Y586D02*
X806Y586D01*
X0Y585D02*
X7Y585D01*
X799Y585D02*
X806Y585D01*
X0Y584D02*
X7Y584D01*
X799Y584D02*
X806Y584D01*
X0Y583D02*
X7Y583D01*
X799Y583D02*
X806Y583D01*
X0Y582D02*
X7Y582D01*
X799Y582D02*
X806Y582D01*
X0Y581D02*
X7Y581D01*
X799Y581D02*
X806Y581D01*
X0Y580D02*
X7Y580D01*
X799Y580D02*
X806Y580D01*
X0Y579D02*
X7Y579D01*
X799Y579D02*
X806Y579D01*
X0Y578D02*
X7Y578D01*
X799Y578D02*
X806Y578D01*
X0Y577D02*
X7Y577D01*
X799Y577D02*
X806Y577D01*
X0Y576D02*
X7Y576D01*
X799Y576D02*
X806Y576D01*
X0Y575D02*
X7Y575D01*
X799Y575D02*
X806Y575D01*
X0Y574D02*
X7Y574D01*
X799Y574D02*
X806Y574D01*
X0Y573D02*
X7Y573D01*
X799Y573D02*
X806Y573D01*
X0Y572D02*
X7Y572D01*
X799Y572D02*
X806Y572D01*
X0Y571D02*
X7Y571D01*
X799Y571D02*
X806Y571D01*
X0Y570D02*
X7Y570D01*
X799Y570D02*
X806Y570D01*
X0Y569D02*
X7Y569D01*
X799Y569D02*
X806Y569D01*
X0Y568D02*
X7Y568D01*
X799Y568D02*
X806Y568D01*
X0Y567D02*
X7Y567D01*
X799Y567D02*
X806Y567D01*
X0Y566D02*
X7Y566D01*
X799Y566D02*
X806Y566D01*
X0Y565D02*
X7Y565D01*
X799Y565D02*
X806Y565D01*
X0Y564D02*
X7Y564D01*
X799Y564D02*
X806Y564D01*
X0Y563D02*
X7Y563D01*
X799Y563D02*
X806Y563D01*
X0Y562D02*
X7Y562D01*
X799Y562D02*
X806Y562D01*
X0Y561D02*
X7Y561D01*
X799Y561D02*
X806Y561D01*
X0Y560D02*
X7Y560D01*
X799Y560D02*
X806Y560D01*
X0Y559D02*
X7Y559D01*
X799Y559D02*
X806Y559D01*
X0Y558D02*
X7Y558D01*
X799Y558D02*
X806Y558D01*
X0Y557D02*
X7Y557D01*
X799Y557D02*
X806Y557D01*
X0Y556D02*
X7Y556D01*
X799Y556D02*
X806Y556D01*
X0Y555D02*
X7Y555D01*
X799Y555D02*
X806Y555D01*
X0Y554D02*
X7Y554D01*
X799Y554D02*
X806Y554D01*
X0Y553D02*
X7Y553D01*
X799Y553D02*
X806Y553D01*
X0Y552D02*
X7Y552D01*
X799Y552D02*
X806Y552D01*
X0Y551D02*
X7Y551D01*
X799Y551D02*
X806Y551D01*
X0Y550D02*
X7Y550D01*
X799Y550D02*
X806Y550D01*
X0Y549D02*
X7Y549D01*
X799Y549D02*
X806Y549D01*
X0Y548D02*
X7Y548D01*
X799Y548D02*
X806Y548D01*
X0Y547D02*
X7Y547D01*
X799Y547D02*
X806Y547D01*
X0Y546D02*
X7Y546D01*
X799Y546D02*
X806Y546D01*
X0Y545D02*
X7Y545D01*
X799Y545D02*
X806Y545D01*
X0Y544D02*
X7Y544D01*
X799Y544D02*
X806Y544D01*
X0Y543D02*
X7Y543D01*
X799Y543D02*
X806Y543D01*
X0Y542D02*
X7Y542D01*
X799Y542D02*
X806Y542D01*
X0Y541D02*
X7Y541D01*
X799Y541D02*
X806Y541D01*
X0Y540D02*
X7Y540D01*
X799Y540D02*
X806Y540D01*
X0Y539D02*
X7Y539D01*
X799Y539D02*
X806Y539D01*
X0Y538D02*
X7Y538D01*
X799Y538D02*
X806Y538D01*
X0Y537D02*
X7Y537D01*
X799Y537D02*
X806Y537D01*
X0Y536D02*
X7Y536D01*
X799Y536D02*
X806Y536D01*
X0Y535D02*
X7Y535D01*
X799Y535D02*
X806Y535D01*
X0Y534D02*
X7Y534D01*
X799Y534D02*
X806Y534D01*
X0Y533D02*
X7Y533D01*
X799Y533D02*
X806Y533D01*
X0Y532D02*
X7Y532D01*
X799Y532D02*
X806Y532D01*
X0Y531D02*
X7Y531D01*
X799Y531D02*
X806Y531D01*
X0Y530D02*
X7Y530D01*
X799Y530D02*
X806Y530D01*
X0Y529D02*
X7Y529D01*
X799Y529D02*
X806Y529D01*
X0Y528D02*
X7Y528D01*
X799Y528D02*
X806Y528D01*
X0Y527D02*
X7Y527D01*
X799Y527D02*
X806Y527D01*
X0Y526D02*
X7Y526D01*
X799Y526D02*
X806Y526D01*
X0Y525D02*
X7Y525D01*
X799Y525D02*
X806Y525D01*
X0Y524D02*
X7Y524D01*
X799Y524D02*
X806Y524D01*
X0Y523D02*
X7Y523D01*
X799Y523D02*
X806Y523D01*
X0Y522D02*
X7Y522D01*
X799Y522D02*
X806Y522D01*
X0Y521D02*
X7Y521D01*
X799Y521D02*
X806Y521D01*
X0Y520D02*
X7Y520D01*
X799Y520D02*
X806Y520D01*
X0Y519D02*
X7Y519D01*
X799Y519D02*
X806Y519D01*
X0Y518D02*
X7Y518D01*
X799Y518D02*
X806Y518D01*
X0Y517D02*
X7Y517D01*
X799Y517D02*
X806Y517D01*
X0Y516D02*
X7Y516D01*
X799Y516D02*
X806Y516D01*
X0Y515D02*
X7Y515D01*
X799Y515D02*
X806Y515D01*
X0Y514D02*
X7Y514D01*
X799Y514D02*
X806Y514D01*
X0Y513D02*
X7Y513D01*
X799Y513D02*
X806Y513D01*
X0Y512D02*
X7Y512D01*
X799Y512D02*
X806Y512D01*
X0Y511D02*
X7Y511D01*
X799Y511D02*
X806Y511D01*
X0Y510D02*
X7Y510D01*
X799Y510D02*
X806Y510D01*
X0Y509D02*
X7Y509D01*
X799Y509D02*
X806Y509D01*
X0Y508D02*
X7Y508D01*
X799Y508D02*
X806Y508D01*
X0Y507D02*
X7Y507D01*
X799Y507D02*
X806Y507D01*
X0Y506D02*
X7Y506D01*
X799Y506D02*
X806Y506D01*
X0Y505D02*
X7Y505D01*
X799Y505D02*
X806Y505D01*
X0Y504D02*
X7Y504D01*
X799Y504D02*
X806Y504D01*
X0Y503D02*
X7Y503D01*
X799Y503D02*
X806Y503D01*
X0Y502D02*
X7Y502D01*
X799Y502D02*
X806Y502D01*
X0Y501D02*
X7Y501D01*
X799Y501D02*
X806Y501D01*
X0Y500D02*
X7Y500D01*
X799Y500D02*
X806Y500D01*
X0Y499D02*
X7Y499D01*
X799Y499D02*
X806Y499D01*
X0Y498D02*
X7Y498D01*
X799Y498D02*
X806Y498D01*
X0Y497D02*
X7Y497D01*
X799Y497D02*
X806Y497D01*
X0Y496D02*
X7Y496D01*
X799Y496D02*
X806Y496D01*
X0Y495D02*
X7Y495D01*
X799Y495D02*
X806Y495D01*
X0Y494D02*
X7Y494D01*
X799Y494D02*
X806Y494D01*
X0Y493D02*
X7Y493D01*
X799Y493D02*
X806Y493D01*
X0Y492D02*
X7Y492D01*
X799Y492D02*
X806Y492D01*
X0Y491D02*
X7Y491D01*
X799Y491D02*
X806Y491D01*
X0Y490D02*
X7Y490D01*
X799Y490D02*
X806Y490D01*
X0Y489D02*
X7Y489D01*
X799Y489D02*
X806Y489D01*
X0Y488D02*
X7Y488D01*
X799Y488D02*
X806Y488D01*
X0Y487D02*
X7Y487D01*
X799Y487D02*
X806Y487D01*
X0Y486D02*
X7Y486D01*
X799Y486D02*
X806Y486D01*
X0Y485D02*
X7Y485D01*
X799Y485D02*
X806Y485D01*
X0Y484D02*
X7Y484D01*
X799Y484D02*
X806Y484D01*
X0Y483D02*
X7Y483D01*
X799Y483D02*
X806Y483D01*
X0Y482D02*
X7Y482D01*
X799Y482D02*
X806Y482D01*
X0Y481D02*
X7Y481D01*
X799Y481D02*
X806Y481D01*
X0Y480D02*
X7Y480D01*
X799Y480D02*
X806Y480D01*
X0Y479D02*
X7Y479D01*
X799Y479D02*
X806Y479D01*
X0Y478D02*
X7Y478D01*
X799Y478D02*
X806Y478D01*
X0Y477D02*
X7Y477D01*
X799Y477D02*
X806Y477D01*
X0Y476D02*
X7Y476D01*
X799Y476D02*
X806Y476D01*
X0Y475D02*
X7Y475D01*
X799Y475D02*
X806Y475D01*
X0Y474D02*
X7Y474D01*
X799Y474D02*
X806Y474D01*
X0Y473D02*
X7Y473D01*
X799Y473D02*
X806Y473D01*
X0Y472D02*
X7Y472D01*
X799Y472D02*
X806Y472D01*
X0Y471D02*
X7Y471D01*
X799Y471D02*
X806Y471D01*
X0Y470D02*
X7Y470D01*
X799Y470D02*
X806Y470D01*
X0Y469D02*
X7Y469D01*
X799Y469D02*
X806Y469D01*
X0Y468D02*
X7Y468D01*
X799Y468D02*
X806Y468D01*
X0Y467D02*
X7Y467D01*
X799Y467D02*
X806Y467D01*
X0Y466D02*
X7Y466D01*
X799Y466D02*
X806Y466D01*
X0Y465D02*
X7Y465D01*
X799Y465D02*
X806Y465D01*
X0Y464D02*
X7Y464D01*
X799Y464D02*
X806Y464D01*
X0Y463D02*
X7Y463D01*
X799Y463D02*
X806Y463D01*
X0Y462D02*
X7Y462D01*
X799Y462D02*
X806Y462D01*
X0Y461D02*
X7Y461D01*
X799Y461D02*
X806Y461D01*
X0Y460D02*
X7Y460D01*
X799Y460D02*
X806Y460D01*
X0Y459D02*
X7Y459D01*
X799Y459D02*
X806Y459D01*
X0Y458D02*
X7Y458D01*
X799Y458D02*
X806Y458D01*
X0Y457D02*
X7Y457D01*
X799Y457D02*
X806Y457D01*
X0Y456D02*
X7Y456D01*
X799Y456D02*
X806Y456D01*
X0Y455D02*
X7Y455D01*
X799Y455D02*
X806Y455D01*
X0Y454D02*
X7Y454D01*
X799Y454D02*
X806Y454D01*
X0Y453D02*
X7Y453D01*
X799Y453D02*
X806Y453D01*
X0Y452D02*
X7Y452D01*
X799Y452D02*
X806Y452D01*
X0Y451D02*
X7Y451D01*
X799Y451D02*
X806Y451D01*
X0Y450D02*
X7Y450D01*
X799Y450D02*
X806Y450D01*
X0Y449D02*
X7Y449D01*
X799Y449D02*
X806Y449D01*
X0Y448D02*
X7Y448D01*
X799Y448D02*
X806Y448D01*
X0Y447D02*
X7Y447D01*
X799Y447D02*
X806Y447D01*
X0Y446D02*
X7Y446D01*
X799Y446D02*
X806Y446D01*
X0Y445D02*
X7Y445D01*
X799Y445D02*
X806Y445D01*
X0Y444D02*
X7Y444D01*
X799Y444D02*
X806Y444D01*
X0Y443D02*
X7Y443D01*
X799Y443D02*
X806Y443D01*
X0Y442D02*
X7Y442D01*
X799Y442D02*
X806Y442D01*
X0Y441D02*
X7Y441D01*
X799Y441D02*
X806Y441D01*
X0Y440D02*
X7Y440D01*
X799Y440D02*
X806Y440D01*
X0Y439D02*
X7Y439D01*
X799Y439D02*
X806Y439D01*
X0Y438D02*
X7Y438D01*
X799Y438D02*
X806Y438D01*
X0Y437D02*
X7Y437D01*
X799Y437D02*
X806Y437D01*
X0Y436D02*
X7Y436D01*
X799Y436D02*
X806Y436D01*
X0Y435D02*
X7Y435D01*
X799Y435D02*
X806Y435D01*
X0Y434D02*
X7Y434D01*
X799Y434D02*
X806Y434D01*
X0Y433D02*
X7Y433D01*
X799Y433D02*
X806Y433D01*
X0Y432D02*
X7Y432D01*
X799Y432D02*
X806Y432D01*
X0Y431D02*
X7Y431D01*
X799Y431D02*
X806Y431D01*
X0Y430D02*
X7Y430D01*
X799Y430D02*
X806Y430D01*
X0Y429D02*
X7Y429D01*
X799Y429D02*
X806Y429D01*
X0Y428D02*
X7Y428D01*
X799Y428D02*
X806Y428D01*
X0Y427D02*
X7Y427D01*
X799Y427D02*
X806Y427D01*
X0Y426D02*
X7Y426D01*
X799Y426D02*
X806Y426D01*
X0Y425D02*
X7Y425D01*
X799Y425D02*
X806Y425D01*
X0Y424D02*
X7Y424D01*
X799Y424D02*
X806Y424D01*
X0Y423D02*
X7Y423D01*
X799Y423D02*
X806Y423D01*
X0Y422D02*
X7Y422D01*
X799Y422D02*
X806Y422D01*
X0Y421D02*
X7Y421D01*
X799Y421D02*
X806Y421D01*
X0Y420D02*
X7Y420D01*
X799Y420D02*
X806Y420D01*
X0Y419D02*
X7Y419D01*
X799Y419D02*
X806Y419D01*
X0Y418D02*
X7Y418D01*
X799Y418D02*
X806Y418D01*
X0Y417D02*
X7Y417D01*
X799Y417D02*
X806Y417D01*
X0Y416D02*
X7Y416D01*
X799Y416D02*
X806Y416D01*
X0Y415D02*
X7Y415D01*
X799Y415D02*
X806Y415D01*
X0Y414D02*
X7Y414D01*
X799Y414D02*
X806Y414D01*
X0Y413D02*
X7Y413D01*
X799Y413D02*
X806Y413D01*
X0Y412D02*
X7Y412D01*
X799Y412D02*
X806Y412D01*
X0Y411D02*
X7Y411D01*
X799Y411D02*
X806Y411D01*
X0Y410D02*
X7Y410D01*
X799Y410D02*
X806Y410D01*
X0Y409D02*
X7Y409D01*
X799Y409D02*
X806Y409D01*
X0Y408D02*
X7Y408D01*
X799Y408D02*
X806Y408D01*
X0Y407D02*
X7Y407D01*
X799Y407D02*
X806Y407D01*
X0Y406D02*
X7Y406D01*
X799Y406D02*
X806Y406D01*
X0Y405D02*
X7Y405D01*
X799Y405D02*
X806Y405D01*
X0Y404D02*
X7Y404D01*
X799Y404D02*
X806Y404D01*
X0Y403D02*
X7Y403D01*
X799Y403D02*
X806Y403D01*
X0Y402D02*
X7Y402D01*
X799Y402D02*
X806Y402D01*
X0Y401D02*
X7Y401D01*
X799Y401D02*
X806Y401D01*
X0Y400D02*
X7Y400D01*
X799Y400D02*
X806Y400D01*
X0Y399D02*
X7Y399D01*
X799Y399D02*
X806Y399D01*
X0Y398D02*
X7Y398D01*
X799Y398D02*
X806Y398D01*
X0Y397D02*
X7Y397D01*
X799Y397D02*
X806Y397D01*
X0Y396D02*
X7Y396D01*
X799Y396D02*
X806Y396D01*
X0Y395D02*
X7Y395D01*
X799Y395D02*
X806Y395D01*
X0Y394D02*
X7Y394D01*
X799Y394D02*
X806Y394D01*
X0Y393D02*
X7Y393D01*
X799Y393D02*
X806Y393D01*
X0Y392D02*
X7Y392D01*
X799Y392D02*
X806Y392D01*
X0Y391D02*
X7Y391D01*
X799Y391D02*
X806Y391D01*
X0Y390D02*
X7Y390D01*
X799Y390D02*
X806Y390D01*
X0Y389D02*
X7Y389D01*
X799Y389D02*
X806Y389D01*
X0Y388D02*
X7Y388D01*
X799Y388D02*
X806Y388D01*
X0Y387D02*
X7Y387D01*
X799Y387D02*
X806Y387D01*
X0Y386D02*
X7Y386D01*
X799Y386D02*
X806Y386D01*
X0Y385D02*
X7Y385D01*
X799Y385D02*
X806Y385D01*
X0Y384D02*
X7Y384D01*
X799Y384D02*
X806Y384D01*
X0Y383D02*
X7Y383D01*
X799Y383D02*
X806Y383D01*
X0Y382D02*
X7Y382D01*
X799Y382D02*
X806Y382D01*
X0Y381D02*
X7Y381D01*
X799Y381D02*
X806Y381D01*
X0Y380D02*
X7Y380D01*
X799Y380D02*
X806Y380D01*
X0Y379D02*
X7Y379D01*
X799Y379D02*
X806Y379D01*
X0Y378D02*
X7Y378D01*
X799Y378D02*
X806Y378D01*
X0Y377D02*
X7Y377D01*
X799Y377D02*
X806Y377D01*
X0Y376D02*
X7Y376D01*
X799Y376D02*
X806Y376D01*
X0Y375D02*
X7Y375D01*
X799Y375D02*
X806Y375D01*
X0Y374D02*
X7Y374D01*
X799Y374D02*
X806Y374D01*
X0Y373D02*
X7Y373D01*
X799Y373D02*
X806Y373D01*
X0Y372D02*
X7Y372D01*
X799Y372D02*
X806Y372D01*
X0Y371D02*
X7Y371D01*
X799Y371D02*
X806Y371D01*
X0Y370D02*
X7Y370D01*
X799Y370D02*
X806Y370D01*
X0Y369D02*
X7Y369D01*
X799Y369D02*
X806Y369D01*
X0Y368D02*
X7Y368D01*
X799Y368D02*
X806Y368D01*
X0Y367D02*
X7Y367D01*
X799Y367D02*
X806Y367D01*
X0Y366D02*
X7Y366D01*
X799Y366D02*
X806Y366D01*
X0Y365D02*
X7Y365D01*
X799Y365D02*
X806Y365D01*
X0Y364D02*
X7Y364D01*
X799Y364D02*
X806Y364D01*
X0Y363D02*
X7Y363D01*
X799Y363D02*
X806Y363D01*
X0Y362D02*
X7Y362D01*
X799Y362D02*
X806Y362D01*
X0Y361D02*
X7Y361D01*
X799Y361D02*
X806Y361D01*
X0Y360D02*
X7Y360D01*
X799Y360D02*
X806Y360D01*
X0Y359D02*
X7Y359D01*
X799Y359D02*
X806Y359D01*
X0Y358D02*
X7Y358D01*
X799Y358D02*
X806Y358D01*
X0Y357D02*
X7Y357D01*
X799Y357D02*
X806Y357D01*
X0Y356D02*
X7Y356D01*
X799Y356D02*
X806Y356D01*
X0Y355D02*
X7Y355D01*
X799Y355D02*
X806Y355D01*
X0Y354D02*
X7Y354D01*
X799Y354D02*
X806Y354D01*
X0Y353D02*
X7Y353D01*
X799Y353D02*
X806Y353D01*
X0Y352D02*
X7Y352D01*
X799Y352D02*
X806Y352D01*
X0Y351D02*
X7Y351D01*
X799Y351D02*
X806Y351D01*
X0Y350D02*
X7Y350D01*
X799Y350D02*
X806Y350D01*
X0Y349D02*
X7Y349D01*
X799Y349D02*
X806Y349D01*
X0Y348D02*
X7Y348D01*
X799Y348D02*
X806Y348D01*
X0Y347D02*
X7Y347D01*
X799Y347D02*
X806Y347D01*
X0Y346D02*
X7Y346D01*
X799Y346D02*
X806Y346D01*
X0Y345D02*
X7Y345D01*
X799Y345D02*
X806Y345D01*
X0Y344D02*
X7Y344D01*
X799Y344D02*
X806Y344D01*
X0Y343D02*
X7Y343D01*
X799Y343D02*
X806Y343D01*
X0Y342D02*
X7Y342D01*
X799Y342D02*
X806Y342D01*
X0Y341D02*
X7Y341D01*
X799Y341D02*
X806Y341D01*
X0Y340D02*
X7Y340D01*
X799Y340D02*
X806Y340D01*
X0Y339D02*
X7Y339D01*
X799Y339D02*
X806Y339D01*
X0Y338D02*
X7Y338D01*
X799Y338D02*
X806Y338D01*
X0Y337D02*
X7Y337D01*
X799Y337D02*
X806Y337D01*
X0Y336D02*
X7Y336D01*
X799Y336D02*
X806Y336D01*
X0Y335D02*
X7Y335D01*
X799Y335D02*
X806Y335D01*
X0Y334D02*
X7Y334D01*
X799Y334D02*
X806Y334D01*
X0Y333D02*
X7Y333D01*
X799Y333D02*
X806Y333D01*
X0Y332D02*
X7Y332D01*
X799Y332D02*
X806Y332D01*
X0Y331D02*
X7Y331D01*
X799Y331D02*
X806Y331D01*
X0Y330D02*
X7Y330D01*
X799Y330D02*
X806Y330D01*
X0Y329D02*
X7Y329D01*
X799Y329D02*
X806Y329D01*
X0Y328D02*
X7Y328D01*
X799Y328D02*
X806Y328D01*
X0Y327D02*
X7Y327D01*
X799Y327D02*
X806Y327D01*
X0Y326D02*
X7Y326D01*
X799Y326D02*
X806Y326D01*
X0Y325D02*
X7Y325D01*
X799Y325D02*
X806Y325D01*
X0Y324D02*
X7Y324D01*
X799Y324D02*
X806Y324D01*
X0Y323D02*
X7Y323D01*
X799Y323D02*
X806Y323D01*
X0Y322D02*
X7Y322D01*
X799Y322D02*
X806Y322D01*
X0Y321D02*
X7Y321D01*
X799Y321D02*
X806Y321D01*
X0Y320D02*
X7Y320D01*
X799Y320D02*
X806Y320D01*
X0Y319D02*
X7Y319D01*
X799Y319D02*
X806Y319D01*
X0Y318D02*
X7Y318D01*
X799Y318D02*
X806Y318D01*
X0Y317D02*
X7Y317D01*
X799Y317D02*
X806Y317D01*
X0Y316D02*
X7Y316D01*
X799Y316D02*
X806Y316D01*
X0Y315D02*
X7Y315D01*
X799Y315D02*
X806Y315D01*
X0Y314D02*
X7Y314D01*
X799Y314D02*
X806Y314D01*
X0Y313D02*
X7Y313D01*
X799Y313D02*
X806Y313D01*
X0Y312D02*
X7Y312D01*
X799Y312D02*
X806Y312D01*
X0Y311D02*
X7Y311D01*
X799Y311D02*
X806Y311D01*
X0Y310D02*
X7Y310D01*
X799Y310D02*
X806Y310D01*
X0Y309D02*
X7Y309D01*
X799Y309D02*
X806Y309D01*
X0Y308D02*
X7Y308D01*
X799Y308D02*
X806Y308D01*
X0Y307D02*
X7Y307D01*
X799Y307D02*
X806Y307D01*
X0Y306D02*
X7Y306D01*
X799Y306D02*
X806Y306D01*
X0Y305D02*
X7Y305D01*
X799Y305D02*
X806Y305D01*
X0Y304D02*
X7Y304D01*
X799Y304D02*
X806Y304D01*
X0Y303D02*
X7Y303D01*
X799Y303D02*
X806Y303D01*
X0Y302D02*
X7Y302D01*
X799Y302D02*
X806Y302D01*
X0Y301D02*
X7Y301D01*
X799Y301D02*
X806Y301D01*
X0Y300D02*
X7Y300D01*
X799Y300D02*
X806Y300D01*
X0Y299D02*
X7Y299D01*
X799Y299D02*
X806Y299D01*
X0Y298D02*
X7Y298D01*
X799Y298D02*
X806Y298D01*
X0Y297D02*
X7Y297D01*
X799Y297D02*
X806Y297D01*
X0Y296D02*
X7Y296D01*
X799Y296D02*
X806Y296D01*
X0Y295D02*
X7Y295D01*
X799Y295D02*
X806Y295D01*
X0Y294D02*
X7Y294D01*
X799Y294D02*
X806Y294D01*
X0Y293D02*
X7Y293D01*
X799Y293D02*
X806Y293D01*
X0Y292D02*
X7Y292D01*
X799Y292D02*
X806Y292D01*
X0Y291D02*
X7Y291D01*
X799Y291D02*
X806Y291D01*
X0Y290D02*
X7Y290D01*
X799Y290D02*
X806Y290D01*
X0Y289D02*
X7Y289D01*
X799Y289D02*
X806Y289D01*
X0Y288D02*
X7Y288D01*
X799Y288D02*
X806Y288D01*
X0Y287D02*
X7Y287D01*
X799Y287D02*
X806Y287D01*
X0Y286D02*
X7Y286D01*
X799Y286D02*
X806Y286D01*
X0Y285D02*
X7Y285D01*
X799Y285D02*
X806Y285D01*
X0Y284D02*
X7Y284D01*
X799Y284D02*
X806Y284D01*
X0Y283D02*
X7Y283D01*
X799Y283D02*
X806Y283D01*
X0Y282D02*
X7Y282D01*
X799Y282D02*
X806Y282D01*
X0Y281D02*
X7Y281D01*
X799Y281D02*
X806Y281D01*
X0Y280D02*
X7Y280D01*
X799Y280D02*
X806Y280D01*
X0Y279D02*
X7Y279D01*
X799Y279D02*
X806Y279D01*
X0Y278D02*
X7Y278D01*
X799Y278D02*
X806Y278D01*
X0Y277D02*
X7Y277D01*
X799Y277D02*
X806Y277D01*
X0Y276D02*
X7Y276D01*
X799Y276D02*
X806Y276D01*
X0Y275D02*
X7Y275D01*
X799Y275D02*
X806Y275D01*
X0Y274D02*
X7Y274D01*
X799Y274D02*
X806Y274D01*
X0Y273D02*
X7Y273D01*
X799Y273D02*
X806Y273D01*
X0Y272D02*
X7Y272D01*
X799Y272D02*
X806Y272D01*
X0Y271D02*
X7Y271D01*
X799Y271D02*
X806Y271D01*
X0Y270D02*
X7Y270D01*
X799Y270D02*
X806Y270D01*
X0Y269D02*
X7Y269D01*
X799Y269D02*
X806Y269D01*
X0Y268D02*
X7Y268D01*
X799Y268D02*
X806Y268D01*
X0Y267D02*
X7Y267D01*
X799Y267D02*
X806Y267D01*
X0Y266D02*
X7Y266D01*
X799Y266D02*
X806Y266D01*
X0Y265D02*
X7Y265D01*
X799Y265D02*
X806Y265D01*
X0Y264D02*
X7Y264D01*
X799Y264D02*
X806Y264D01*
X0Y263D02*
X7Y263D01*
X799Y263D02*
X806Y263D01*
X0Y262D02*
X7Y262D01*
X799Y262D02*
X806Y262D01*
X0Y261D02*
X7Y261D01*
X799Y261D02*
X806Y261D01*
X0Y260D02*
X7Y260D01*
X799Y260D02*
X806Y260D01*
X0Y259D02*
X7Y259D01*
X799Y259D02*
X806Y259D01*
X0Y258D02*
X7Y258D01*
X799Y258D02*
X806Y258D01*
X0Y257D02*
X7Y257D01*
X799Y257D02*
X806Y257D01*
X0Y256D02*
X7Y256D01*
X799Y256D02*
X806Y256D01*
X0Y255D02*
X7Y255D01*
X799Y255D02*
X806Y255D01*
X0Y254D02*
X7Y254D01*
X799Y254D02*
X806Y254D01*
X0Y253D02*
X7Y253D01*
X799Y253D02*
X806Y253D01*
X0Y252D02*
X7Y252D01*
X799Y252D02*
X806Y252D01*
X0Y251D02*
X7Y251D01*
X799Y251D02*
X806Y251D01*
X0Y250D02*
X7Y250D01*
X799Y250D02*
X806Y250D01*
X0Y249D02*
X7Y249D01*
X799Y249D02*
X806Y249D01*
X0Y248D02*
X7Y248D01*
X799Y248D02*
X806Y248D01*
X0Y247D02*
X7Y247D01*
X799Y247D02*
X806Y247D01*
X0Y246D02*
X7Y246D01*
X799Y246D02*
X806Y246D01*
X0Y245D02*
X7Y245D01*
X799Y245D02*
X806Y245D01*
X0Y244D02*
X7Y244D01*
X799Y244D02*
X806Y244D01*
X0Y243D02*
X7Y243D01*
X799Y243D02*
X806Y243D01*
X0Y242D02*
X7Y242D01*
X799Y242D02*
X806Y242D01*
X0Y241D02*
X7Y241D01*
X799Y241D02*
X806Y241D01*
X0Y240D02*
X7Y240D01*
X799Y240D02*
X806Y240D01*
X0Y239D02*
X7Y239D01*
X799Y239D02*
X806Y239D01*
X0Y238D02*
X7Y238D01*
X799Y238D02*
X806Y238D01*
X0Y237D02*
X7Y237D01*
X799Y237D02*
X806Y237D01*
X0Y236D02*
X7Y236D01*
X799Y236D02*
X806Y236D01*
X0Y235D02*
X7Y235D01*
X799Y235D02*
X806Y235D01*
X0Y234D02*
X7Y234D01*
X799Y234D02*
X806Y234D01*
X0Y233D02*
X7Y233D01*
X799Y233D02*
X806Y233D01*
X0Y232D02*
X7Y232D01*
X799Y232D02*
X806Y232D01*
X0Y231D02*
X7Y231D01*
X799Y231D02*
X806Y231D01*
X0Y230D02*
X7Y230D01*
X799Y230D02*
X806Y230D01*
X0Y229D02*
X7Y229D01*
X799Y229D02*
X806Y229D01*
X0Y228D02*
X7Y228D01*
X799Y228D02*
X806Y228D01*
X0Y227D02*
X7Y227D01*
X799Y227D02*
X806Y227D01*
X0Y226D02*
X7Y226D01*
X799Y226D02*
X806Y226D01*
X0Y225D02*
X7Y225D01*
X799Y225D02*
X806Y225D01*
X0Y224D02*
X7Y224D01*
X799Y224D02*
X806Y224D01*
X0Y223D02*
X7Y223D01*
X799Y223D02*
X806Y223D01*
X0Y222D02*
X7Y222D01*
X799Y222D02*
X806Y222D01*
X0Y221D02*
X7Y221D01*
X799Y221D02*
X806Y221D01*
X0Y220D02*
X7Y220D01*
X799Y220D02*
X806Y220D01*
X0Y219D02*
X7Y219D01*
X799Y219D02*
X806Y219D01*
X0Y218D02*
X7Y218D01*
X799Y218D02*
X806Y218D01*
X0Y217D02*
X7Y217D01*
X799Y217D02*
X806Y217D01*
X0Y216D02*
X7Y216D01*
X799Y216D02*
X806Y216D01*
X0Y215D02*
X7Y215D01*
X799Y215D02*
X806Y215D01*
X0Y214D02*
X7Y214D01*
X799Y214D02*
X806Y214D01*
X0Y213D02*
X7Y213D01*
X799Y213D02*
X806Y213D01*
X0Y212D02*
X7Y212D01*
X799Y212D02*
X806Y212D01*
X0Y211D02*
X7Y211D01*
X799Y211D02*
X806Y211D01*
X0Y210D02*
X7Y210D01*
X799Y210D02*
X806Y210D01*
X0Y209D02*
X7Y209D01*
X799Y209D02*
X806Y209D01*
X0Y208D02*
X7Y208D01*
X799Y208D02*
X806Y208D01*
X0Y207D02*
X7Y207D01*
X799Y207D02*
X806Y207D01*
X0Y206D02*
X7Y206D01*
X799Y206D02*
X806Y206D01*
X0Y205D02*
X7Y205D01*
X799Y205D02*
X806Y205D01*
X0Y204D02*
X7Y204D01*
X799Y204D02*
X806Y204D01*
X0Y203D02*
X7Y203D01*
X799Y203D02*
X806Y203D01*
X0Y202D02*
X7Y202D01*
X799Y202D02*
X806Y202D01*
X0Y201D02*
X7Y201D01*
X799Y201D02*
X806Y201D01*
X0Y200D02*
X7Y200D01*
X799Y200D02*
X806Y200D01*
X0Y199D02*
X7Y199D01*
X799Y199D02*
X806Y199D01*
X0Y198D02*
X7Y198D01*
X799Y198D02*
X806Y198D01*
X0Y197D02*
X7Y197D01*
X799Y197D02*
X806Y197D01*
X0Y196D02*
X7Y196D01*
X799Y196D02*
X806Y196D01*
X0Y195D02*
X7Y195D01*
X799Y195D02*
X806Y195D01*
X0Y194D02*
X7Y194D01*
X799Y194D02*
X806Y194D01*
X0Y193D02*
X7Y193D01*
X799Y193D02*
X806Y193D01*
X0Y192D02*
X7Y192D01*
X799Y192D02*
X806Y192D01*
X0Y191D02*
X7Y191D01*
X799Y191D02*
X806Y191D01*
X0Y190D02*
X7Y190D01*
X799Y190D02*
X806Y190D01*
X0Y189D02*
X7Y189D01*
X799Y189D02*
X806Y189D01*
X0Y188D02*
X7Y188D01*
X799Y188D02*
X806Y188D01*
X0Y187D02*
X7Y187D01*
X799Y187D02*
X806Y187D01*
X0Y186D02*
X7Y186D01*
X799Y186D02*
X806Y186D01*
X0Y185D02*
X7Y185D01*
X799Y185D02*
X806Y185D01*
X0Y184D02*
X7Y184D01*
X799Y184D02*
X806Y184D01*
X0Y183D02*
X7Y183D01*
X799Y183D02*
X806Y183D01*
X0Y182D02*
X7Y182D01*
X799Y182D02*
X806Y182D01*
X0Y181D02*
X7Y181D01*
X799Y181D02*
X806Y181D01*
X0Y180D02*
X7Y180D01*
X799Y180D02*
X806Y180D01*
X0Y179D02*
X7Y179D01*
X799Y179D02*
X806Y179D01*
X0Y178D02*
X7Y178D01*
X799Y178D02*
X806Y178D01*
X0Y177D02*
X7Y177D01*
X799Y177D02*
X806Y177D01*
X0Y176D02*
X7Y176D01*
X799Y176D02*
X806Y176D01*
X0Y175D02*
X7Y175D01*
X799Y175D02*
X806Y175D01*
X0Y174D02*
X7Y174D01*
X799Y174D02*
X806Y174D01*
X0Y173D02*
X7Y173D01*
X799Y173D02*
X806Y173D01*
X0Y172D02*
X7Y172D01*
X799Y172D02*
X806Y172D01*
X0Y171D02*
X7Y171D01*
X799Y171D02*
X806Y171D01*
X0Y170D02*
X7Y170D01*
X799Y170D02*
X806Y170D01*
X0Y169D02*
X7Y169D01*
X799Y169D02*
X806Y169D01*
X0Y168D02*
X7Y168D01*
X799Y168D02*
X806Y168D01*
X0Y167D02*
X7Y167D01*
X799Y167D02*
X806Y167D01*
X0Y166D02*
X7Y166D01*
X799Y166D02*
X806Y166D01*
X0Y165D02*
X7Y165D01*
X799Y165D02*
X806Y165D01*
X0Y164D02*
X7Y164D01*
X799Y164D02*
X806Y164D01*
X0Y163D02*
X7Y163D01*
X799Y163D02*
X806Y163D01*
X0Y162D02*
X7Y162D01*
X799Y162D02*
X806Y162D01*
X0Y161D02*
X7Y161D01*
X799Y161D02*
X806Y161D01*
X0Y160D02*
X7Y160D01*
X799Y160D02*
X806Y160D01*
X0Y159D02*
X7Y159D01*
X799Y159D02*
X806Y159D01*
X0Y158D02*
X7Y158D01*
X799Y158D02*
X806Y158D01*
X0Y157D02*
X7Y157D01*
X799Y157D02*
X806Y157D01*
X0Y156D02*
X7Y156D01*
X799Y156D02*
X806Y156D01*
X0Y155D02*
X7Y155D01*
X799Y155D02*
X806Y155D01*
X0Y154D02*
X7Y154D01*
X799Y154D02*
X806Y154D01*
X0Y153D02*
X7Y153D01*
X799Y153D02*
X806Y153D01*
X0Y152D02*
X7Y152D01*
X799Y152D02*
X806Y152D01*
X0Y151D02*
X7Y151D01*
X799Y151D02*
X806Y151D01*
X0Y150D02*
X7Y150D01*
X799Y150D02*
X806Y150D01*
X0Y149D02*
X7Y149D01*
X799Y149D02*
X806Y149D01*
X0Y148D02*
X7Y148D01*
X799Y148D02*
X806Y148D01*
X0Y147D02*
X7Y147D01*
X799Y147D02*
X806Y147D01*
X0Y146D02*
X7Y146D01*
X799Y146D02*
X806Y146D01*
X0Y145D02*
X7Y145D01*
X799Y145D02*
X806Y145D01*
X0Y144D02*
X7Y144D01*
X799Y144D02*
X806Y144D01*
X0Y143D02*
X7Y143D01*
X799Y143D02*
X806Y143D01*
X0Y142D02*
X7Y142D01*
X799Y142D02*
X806Y142D01*
X0Y141D02*
X7Y141D01*
X799Y141D02*
X806Y141D01*
X0Y140D02*
X7Y140D01*
X799Y140D02*
X806Y140D01*
X0Y139D02*
X7Y139D01*
X799Y139D02*
X806Y139D01*
X0Y138D02*
X7Y138D01*
X799Y138D02*
X806Y138D01*
X0Y137D02*
X7Y137D01*
X799Y137D02*
X806Y137D01*
X0Y136D02*
X7Y136D01*
X799Y136D02*
X806Y136D01*
X0Y135D02*
X7Y135D01*
X799Y135D02*
X806Y135D01*
X0Y134D02*
X7Y134D01*
X799Y134D02*
X806Y134D01*
X0Y133D02*
X7Y133D01*
X799Y133D02*
X806Y133D01*
X0Y132D02*
X7Y132D01*
X799Y132D02*
X806Y132D01*
X0Y131D02*
X7Y131D01*
X799Y131D02*
X806Y131D01*
X0Y130D02*
X7Y130D01*
X799Y130D02*
X806Y130D01*
X0Y129D02*
X7Y129D01*
X799Y129D02*
X806Y129D01*
X0Y128D02*
X7Y128D01*
X799Y128D02*
X806Y128D01*
X0Y127D02*
X7Y127D01*
X799Y127D02*
X806Y127D01*
X0Y126D02*
X7Y126D01*
X799Y126D02*
X806Y126D01*
X0Y125D02*
X7Y125D01*
X799Y125D02*
X806Y125D01*
X0Y124D02*
X7Y124D01*
X799Y124D02*
X806Y124D01*
X0Y123D02*
X7Y123D01*
X799Y123D02*
X806Y123D01*
X0Y122D02*
X7Y122D01*
X799Y122D02*
X806Y122D01*
X0Y121D02*
X7Y121D01*
X799Y121D02*
X806Y121D01*
X0Y120D02*
X7Y120D01*
X799Y120D02*
X806Y120D01*
X0Y119D02*
X7Y119D01*
X799Y119D02*
X806Y119D01*
X0Y118D02*
X7Y118D01*
X799Y118D02*
X806Y118D01*
X0Y117D02*
X7Y117D01*
X799Y117D02*
X806Y117D01*
X0Y116D02*
X7Y116D01*
X799Y116D02*
X806Y116D01*
X0Y115D02*
X7Y115D01*
X799Y115D02*
X806Y115D01*
X0Y114D02*
X7Y114D01*
X799Y114D02*
X806Y114D01*
X0Y113D02*
X7Y113D01*
X799Y113D02*
X806Y113D01*
X0Y112D02*
X7Y112D01*
X799Y112D02*
X806Y112D01*
X0Y111D02*
X7Y111D01*
X799Y111D02*
X806Y111D01*
X0Y110D02*
X7Y110D01*
X799Y110D02*
X806Y110D01*
X0Y109D02*
X7Y109D01*
X799Y109D02*
X806Y109D01*
X0Y108D02*
X7Y108D01*
X799Y108D02*
X806Y108D01*
X0Y107D02*
X7Y107D01*
X799Y107D02*
X806Y107D01*
X0Y106D02*
X7Y106D01*
X799Y106D02*
X806Y106D01*
X0Y105D02*
X7Y105D01*
X799Y105D02*
X806Y105D01*
X0Y104D02*
X7Y104D01*
X799Y104D02*
X806Y104D01*
X0Y103D02*
X7Y103D01*
X799Y103D02*
X806Y103D01*
X0Y102D02*
X7Y102D01*
X799Y102D02*
X806Y102D01*
X0Y101D02*
X7Y101D01*
X799Y101D02*
X806Y101D01*
X0Y100D02*
X7Y100D01*
X799Y100D02*
X806Y100D01*
X0Y99D02*
X7Y99D01*
X799Y99D02*
X806Y99D01*
X0Y98D02*
X7Y98D01*
X799Y98D02*
X806Y98D01*
X0Y97D02*
X7Y97D01*
X799Y97D02*
X806Y97D01*
X0Y96D02*
X7Y96D01*
X799Y96D02*
X806Y96D01*
X0Y95D02*
X7Y95D01*
X799Y95D02*
X806Y95D01*
X0Y94D02*
X7Y94D01*
X799Y94D02*
X806Y94D01*
X0Y93D02*
X7Y93D01*
X799Y93D02*
X806Y93D01*
X0Y92D02*
X7Y92D01*
X799Y92D02*
X806Y92D01*
X0Y91D02*
X7Y91D01*
X799Y91D02*
X806Y91D01*
X0Y90D02*
X7Y90D01*
X799Y90D02*
X806Y90D01*
X0Y89D02*
X7Y89D01*
X799Y89D02*
X806Y89D01*
X0Y88D02*
X7Y88D01*
X799Y88D02*
X806Y88D01*
X0Y87D02*
X7Y87D01*
X799Y87D02*
X806Y87D01*
X0Y86D02*
X7Y86D01*
X799Y86D02*
X806Y86D01*
X0Y85D02*
X7Y85D01*
X799Y85D02*
X806Y85D01*
X0Y84D02*
X7Y84D01*
X799Y84D02*
X806Y84D01*
X0Y83D02*
X7Y83D01*
X799Y83D02*
X806Y83D01*
X0Y82D02*
X7Y82D01*
X799Y82D02*
X806Y82D01*
X0Y81D02*
X7Y81D01*
X799Y81D02*
X806Y81D01*
X0Y80D02*
X7Y80D01*
X799Y80D02*
X806Y80D01*
X0Y79D02*
X7Y79D01*
X799Y79D02*
X806Y79D01*
X0Y78D02*
X7Y78D01*
X799Y78D02*
X806Y78D01*
X0Y77D02*
X7Y77D01*
X799Y77D02*
X806Y77D01*
X0Y76D02*
X7Y76D01*
X799Y76D02*
X806Y76D01*
X0Y75D02*
X7Y75D01*
X799Y75D02*
X806Y75D01*
X0Y74D02*
X7Y74D01*
X799Y74D02*
X806Y74D01*
X0Y73D02*
X7Y73D01*
X799Y73D02*
X806Y73D01*
X0Y72D02*
X7Y72D01*
X799Y72D02*
X806Y72D01*
X0Y71D02*
X7Y71D01*
X799Y71D02*
X806Y71D01*
X0Y70D02*
X7Y70D01*
X799Y70D02*
X806Y70D01*
X0Y69D02*
X7Y69D01*
X799Y69D02*
X806Y69D01*
X0Y68D02*
X7Y68D01*
X799Y68D02*
X806Y68D01*
X0Y67D02*
X7Y67D01*
X799Y67D02*
X806Y67D01*
X0Y66D02*
X7Y66D01*
X799Y66D02*
X806Y66D01*
X0Y65D02*
X7Y65D01*
X799Y65D02*
X806Y65D01*
X0Y64D02*
X7Y64D01*
X799Y64D02*
X806Y64D01*
X0Y63D02*
X7Y63D01*
X799Y63D02*
X806Y63D01*
X0Y62D02*
X7Y62D01*
X799Y62D02*
X806Y62D01*
X0Y61D02*
X7Y61D01*
X799Y61D02*
X806Y61D01*
X0Y60D02*
X7Y60D01*
X799Y60D02*
X806Y60D01*
X0Y59D02*
X7Y59D01*
X799Y59D02*
X806Y59D01*
X0Y58D02*
X7Y58D01*
X799Y58D02*
X806Y58D01*
X0Y57D02*
X7Y57D01*
X799Y57D02*
X806Y57D01*
X0Y56D02*
X7Y56D01*
X799Y56D02*
X806Y56D01*
X0Y55D02*
X7Y55D01*
X799Y55D02*
X806Y55D01*
X0Y54D02*
X7Y54D01*
X799Y54D02*
X806Y54D01*
X0Y53D02*
X7Y53D01*
X799Y53D02*
X806Y53D01*
X0Y52D02*
X7Y52D01*
X799Y52D02*
X806Y52D01*
X0Y51D02*
X7Y51D01*
X799Y51D02*
X806Y51D01*
X0Y50D02*
X7Y50D01*
X799Y50D02*
X806Y50D01*
X0Y49D02*
X7Y49D01*
X799Y49D02*
X806Y49D01*
X0Y48D02*
X7Y48D01*
X799Y48D02*
X806Y48D01*
X0Y47D02*
X7Y47D01*
X799Y47D02*
X806Y47D01*
X0Y46D02*
X7Y46D01*
X799Y46D02*
X806Y46D01*
X0Y45D02*
X7Y45D01*
X799Y45D02*
X806Y45D01*
X0Y44D02*
X7Y44D01*
X799Y44D02*
X806Y44D01*
X0Y43D02*
X7Y43D01*
X799Y43D02*
X806Y43D01*
X0Y42D02*
X7Y42D01*
X799Y42D02*
X806Y42D01*
X0Y41D02*
X7Y41D01*
X799Y41D02*
X806Y41D01*
X0Y40D02*
X7Y40D01*
X799Y40D02*
X806Y40D01*
X0Y39D02*
X7Y39D01*
X799Y39D02*
X806Y39D01*
X0Y38D02*
X7Y38D01*
X799Y38D02*
X806Y38D01*
X0Y37D02*
X7Y37D01*
X799Y37D02*
X806Y37D01*
X0Y36D02*
X7Y36D01*
X799Y36D02*
X806Y36D01*
X0Y35D02*
X7Y35D01*
X799Y35D02*
X806Y35D01*
X0Y34D02*
X7Y34D01*
X799Y34D02*
X806Y34D01*
X0Y33D02*
X7Y33D01*
X799Y33D02*
X806Y33D01*
X0Y32D02*
X7Y32D01*
X799Y32D02*
X806Y32D01*
X0Y31D02*
X7Y31D01*
X799Y31D02*
X806Y31D01*
X0Y30D02*
X7Y30D01*
X799Y30D02*
X806Y30D01*
X0Y29D02*
X7Y29D01*
X799Y29D02*
X806Y29D01*
X0Y28D02*
X7Y28D01*
X799Y28D02*
X806Y28D01*
X0Y27D02*
X7Y27D01*
X799Y27D02*
X806Y27D01*
X0Y26D02*
X7Y26D01*
X799Y26D02*
X806Y26D01*
X0Y25D02*
X7Y25D01*
X799Y25D02*
X806Y25D01*
X0Y24D02*
X7Y24D01*
X799Y24D02*
X806Y24D01*
X0Y23D02*
X7Y23D01*
X799Y23D02*
X806Y23D01*
X0Y22D02*
X7Y22D01*
X799Y22D02*
X806Y22D01*
X0Y21D02*
X7Y21D01*
X799Y21D02*
X806Y21D01*
X0Y20D02*
X7Y20D01*
X799Y20D02*
X806Y20D01*
X0Y19D02*
X7Y19D01*
X799Y19D02*
X806Y19D01*
X0Y18D02*
X7Y18D01*
X799Y18D02*
X806Y18D01*
X0Y17D02*
X7Y17D01*
X799Y17D02*
X806Y17D01*
X0Y16D02*
X7Y16D01*
X799Y16D02*
X806Y16D01*
X0Y15D02*
X7Y15D01*
X799Y15D02*
X806Y15D01*
X0Y14D02*
X7Y14D01*
X799Y14D02*
X806Y14D01*
X0Y13D02*
X7Y13D01*
X799Y13D02*
X806Y13D01*
X0Y12D02*
X7Y12D01*
X799Y12D02*
X806Y12D01*
X0Y11D02*
X7Y11D01*
X799Y11D02*
X806Y11D01*
X0Y10D02*
X7Y10D01*
X799Y10D02*
X806Y10D01*
X0Y9D02*
X237Y9D01*
X268Y9D02*
X337Y9D01*
X368Y9D02*
X437Y9D01*
X468Y9D02*
X537Y9D01*
X567Y9D02*
X637Y9D01*
X667Y9D02*
X737Y9D01*
X767Y9D02*
X806Y9D01*
X0Y8D02*
X240Y8D01*
X264Y8D02*
X340Y8D01*
X364Y8D02*
X440Y8D01*
X464Y8D02*
X540Y8D01*
X564Y8D02*
X640Y8D01*
X664Y8D02*
X740Y8D01*
X764Y8D02*
X806Y8D01*
X0Y7D02*
X245Y7D01*
X259Y7D02*
X345Y7D01*
X359Y7D02*
X445Y7D01*
X459Y7D02*
X545Y7D01*
X559Y7D02*
X645Y7D01*
X659Y7D02*
X745Y7D01*
X759Y7D02*
X806Y7D01*
X0Y6D02*
X806Y6D01*
X0Y5D02*
X806Y5D01*
X0Y4D02*
X806Y4D01*
X0Y3D02*
X806Y3D01*
X0Y2D02*
X806Y2D01*
D02*
G04 End of Silk0*
M02*