G04 MADE WITH FRITZING*
G04 WWW.FRITZING.ORG*
G04 DOUBLE SIDED*
G04 HOLES PLATED*
G04 CONTOUR ON CENTER OF CONTOUR VECTOR*
%ASAXBY*%
%FSLAX23Y23*%
%MOIN*%
%OFA0B0*%
%SFA1.0B1.0*%
%ADD10C,0.008000*%
%ADD11C,0.012000*%
%ADD12C,0.010000*%
%ADD13C,0.005000*%
%ADD14R,0.001000X0.001000*%
%LNSILK1*%
G90*
G70*
G54D10*
X553Y599D02*
X553Y449D01*
D02*
X553Y99D02*
X553Y249D01*
D02*
X353Y99D02*
X353Y249D01*
D02*
X353Y599D02*
X353Y449D01*
D02*
X753Y349D02*
X653Y349D01*
G54D11*
D02*
X503Y349D02*
X403Y349D01*
G54D12*
D02*
X253Y199D02*
X253Y499D01*
D02*
X253Y499D02*
X153Y499D01*
D02*
X153Y499D02*
X153Y199D01*
D02*
X153Y199D02*
X253Y199D01*
G54D13*
D02*
X768Y99D02*
X803Y64D01*
G54D12*
D02*
X53Y649D02*
X53Y49D01*
D02*
X53Y49D02*
X153Y49D01*
D02*
X153Y49D02*
X153Y649D01*
D02*
X153Y649D02*
X53Y649D01*
G54D13*
D02*
X53Y614D02*
X88Y649D01*
G54D14*
X0Y702D02*
X806Y702D01*
X0Y701D02*
X806Y701D01*
X0Y700D02*
X806Y700D01*
X0Y699D02*
X807Y699D01*
X0Y698D02*
X807Y698D01*
X0Y697D02*
X807Y697D01*
X0Y696D02*
X807Y696D01*
X0Y695D02*
X807Y695D01*
X0Y694D02*
X7Y694D01*
X198Y694D02*
X207Y694D01*
X770Y694D02*
X776Y694D01*
X798Y694D02*
X807Y694D01*
X0Y693D02*
X7Y693D01*
X198Y693D02*
X207Y693D01*
X771Y693D02*
X777Y693D01*
X798Y693D02*
X807Y693D01*
X0Y692D02*
X7Y692D01*
X198Y692D02*
X207Y692D01*
X772Y692D02*
X778Y692D01*
X798Y692D02*
X807Y692D01*
X0Y691D02*
X7Y691D01*
X198Y691D02*
X207Y691D01*
X773Y691D02*
X779Y691D01*
X798Y691D02*
X807Y691D01*
X0Y690D02*
X7Y690D01*
X198Y690D02*
X207Y690D01*
X774Y690D02*
X780Y690D01*
X798Y690D02*
X807Y690D01*
X0Y689D02*
X7Y689D01*
X198Y689D02*
X207Y689D01*
X775Y689D02*
X781Y689D01*
X798Y689D02*
X807Y689D01*
X0Y688D02*
X7Y688D01*
X198Y688D02*
X207Y688D01*
X776Y688D02*
X782Y688D01*
X798Y688D02*
X807Y688D01*
X0Y687D02*
X7Y687D01*
X198Y687D02*
X207Y687D01*
X777Y687D02*
X783Y687D01*
X798Y687D02*
X807Y687D01*
X0Y686D02*
X7Y686D01*
X198Y686D02*
X207Y686D01*
X778Y686D02*
X784Y686D01*
X798Y686D02*
X807Y686D01*
X0Y685D02*
X7Y685D01*
X145Y685D02*
X188Y685D01*
X198Y685D02*
X207Y685D01*
X779Y685D02*
X785Y685D01*
X798Y685D02*
X807Y685D01*
X0Y684D02*
X7Y684D01*
X144Y684D02*
X189Y684D01*
X198Y684D02*
X207Y684D01*
X780Y684D02*
X786Y684D01*
X798Y684D02*
X807Y684D01*
X0Y683D02*
X7Y683D01*
X143Y683D02*
X190Y683D01*
X198Y683D02*
X207Y683D01*
X782Y683D02*
X787Y683D01*
X798Y683D02*
X807Y683D01*
X0Y682D02*
X7Y682D01*
X143Y682D02*
X191Y682D01*
X198Y682D02*
X207Y682D01*
X783Y682D02*
X788Y682D01*
X798Y682D02*
X807Y682D01*
X0Y681D02*
X7Y681D01*
X142Y681D02*
X191Y681D01*
X198Y681D02*
X207Y681D01*
X784Y681D02*
X789Y681D01*
X798Y681D02*
X807Y681D01*
X0Y680D02*
X7Y680D01*
X142Y680D02*
X191Y680D01*
X198Y680D02*
X207Y680D01*
X785Y680D02*
X790Y680D01*
X798Y680D02*
X807Y680D01*
X0Y679D02*
X7Y679D01*
X142Y679D02*
X191Y679D01*
X198Y679D02*
X207Y679D01*
X786Y679D02*
X791Y679D01*
X798Y679D02*
X807Y679D01*
X0Y678D02*
X7Y678D01*
X142Y678D02*
X191Y678D01*
X198Y678D02*
X207Y678D01*
X787Y678D02*
X792Y678D01*
X798Y678D02*
X807Y678D01*
X0Y677D02*
X7Y677D01*
X142Y677D02*
X191Y677D01*
X198Y677D02*
X207Y677D01*
X787Y677D02*
X793Y677D01*
X798Y677D02*
X807Y677D01*
X0Y676D02*
X7Y676D01*
X142Y676D02*
X191Y676D01*
X198Y676D02*
X207Y676D01*
X788Y676D02*
X794Y676D01*
X798Y676D02*
X807Y676D01*
X0Y675D02*
X7Y675D01*
X142Y675D02*
X191Y675D01*
X198Y675D02*
X207Y675D01*
X789Y675D02*
X795Y675D01*
X798Y675D02*
X807Y675D01*
X0Y674D02*
X7Y674D01*
X143Y674D02*
X190Y674D01*
X198Y674D02*
X207Y674D01*
X790Y674D02*
X796Y674D01*
X798Y674D02*
X807Y674D01*
X0Y673D02*
X7Y673D01*
X143Y673D02*
X190Y673D01*
X198Y673D02*
X207Y673D01*
X791Y673D02*
X807Y673D01*
X0Y672D02*
X7Y672D01*
X145Y672D02*
X189Y672D01*
X198Y672D02*
X207Y672D01*
X792Y672D02*
X807Y672D01*
X0Y671D02*
X7Y671D01*
X198Y671D02*
X207Y671D01*
X793Y671D02*
X807Y671D01*
X0Y670D02*
X7Y670D01*
X198Y670D02*
X207Y670D01*
X794Y670D02*
X807Y670D01*
X0Y669D02*
X7Y669D01*
X198Y669D02*
X207Y669D01*
X795Y669D02*
X807Y669D01*
X0Y668D02*
X7Y668D01*
X198Y668D02*
X207Y668D01*
X796Y668D02*
X807Y668D01*
X0Y667D02*
X7Y667D01*
X198Y667D02*
X207Y667D01*
X797Y667D02*
X807Y667D01*
X0Y666D02*
X7Y666D01*
X198Y666D02*
X207Y666D01*
X798Y666D02*
X807Y666D01*
X0Y665D02*
X7Y665D01*
X198Y665D02*
X207Y665D01*
X798Y665D02*
X807Y665D01*
X0Y664D02*
X7Y664D01*
X198Y664D02*
X207Y664D01*
X798Y664D02*
X807Y664D01*
X0Y663D02*
X7Y663D01*
X198Y663D02*
X207Y663D01*
X798Y663D02*
X807Y663D01*
X0Y662D02*
X7Y662D01*
X198Y662D02*
X207Y662D01*
X798Y662D02*
X807Y662D01*
X0Y661D02*
X7Y661D01*
X198Y661D02*
X207Y661D01*
X798Y661D02*
X807Y661D01*
X0Y660D02*
X7Y660D01*
X198Y660D02*
X207Y660D01*
X798Y660D02*
X807Y660D01*
X0Y659D02*
X7Y659D01*
X198Y659D02*
X207Y659D01*
X798Y659D02*
X807Y659D01*
X0Y658D02*
X7Y658D01*
X198Y658D02*
X207Y658D01*
X798Y658D02*
X807Y658D01*
X0Y657D02*
X7Y657D01*
X198Y657D02*
X207Y657D01*
X798Y657D02*
X807Y657D01*
X0Y656D02*
X7Y656D01*
X198Y656D02*
X207Y656D01*
X798Y656D02*
X807Y656D01*
X0Y655D02*
X7Y655D01*
X198Y655D02*
X207Y655D01*
X798Y655D02*
X807Y655D01*
X0Y654D02*
X7Y654D01*
X198Y654D02*
X207Y654D01*
X798Y654D02*
X807Y654D01*
X0Y653D02*
X7Y653D01*
X198Y653D02*
X207Y653D01*
X798Y653D02*
X807Y653D01*
X0Y652D02*
X7Y652D01*
X198Y652D02*
X207Y652D01*
X798Y652D02*
X807Y652D01*
X0Y651D02*
X7Y651D01*
X198Y651D02*
X207Y651D01*
X798Y651D02*
X807Y651D01*
X0Y650D02*
X7Y650D01*
X198Y650D02*
X207Y650D01*
X798Y650D02*
X807Y650D01*
X0Y649D02*
X7Y649D01*
X198Y649D02*
X207Y649D01*
X798Y649D02*
X807Y649D01*
X0Y648D02*
X7Y648D01*
X198Y648D02*
X207Y648D01*
X798Y648D02*
X807Y648D01*
X0Y647D02*
X7Y647D01*
X198Y647D02*
X207Y647D01*
X798Y647D02*
X807Y647D01*
X0Y646D02*
X7Y646D01*
X198Y646D02*
X207Y646D01*
X798Y646D02*
X807Y646D01*
X0Y645D02*
X7Y645D01*
X198Y645D02*
X207Y645D01*
X798Y645D02*
X807Y645D01*
X0Y644D02*
X7Y644D01*
X198Y644D02*
X207Y644D01*
X798Y644D02*
X807Y644D01*
X0Y643D02*
X7Y643D01*
X198Y643D02*
X207Y643D01*
X798Y643D02*
X807Y643D01*
X0Y642D02*
X7Y642D01*
X198Y642D02*
X207Y642D01*
X798Y642D02*
X807Y642D01*
X0Y641D02*
X7Y641D01*
X198Y641D02*
X207Y641D01*
X798Y641D02*
X807Y641D01*
X0Y640D02*
X7Y640D01*
X198Y640D02*
X207Y640D01*
X798Y640D02*
X807Y640D01*
X0Y639D02*
X7Y639D01*
X198Y639D02*
X207Y639D01*
X798Y639D02*
X807Y639D01*
X0Y638D02*
X7Y638D01*
X198Y638D02*
X207Y638D01*
X798Y638D02*
X807Y638D01*
X0Y637D02*
X7Y637D01*
X198Y637D02*
X207Y637D01*
X798Y637D02*
X807Y637D01*
X0Y636D02*
X7Y636D01*
X198Y636D02*
X207Y636D01*
X798Y636D02*
X807Y636D01*
X0Y635D02*
X7Y635D01*
X198Y635D02*
X207Y635D01*
X798Y635D02*
X807Y635D01*
X0Y634D02*
X7Y634D01*
X198Y634D02*
X207Y634D01*
X798Y634D02*
X807Y634D01*
X0Y633D02*
X7Y633D01*
X198Y633D02*
X207Y633D01*
X798Y633D02*
X807Y633D01*
X0Y632D02*
X7Y632D01*
X198Y632D02*
X207Y632D01*
X798Y632D02*
X807Y632D01*
X0Y631D02*
X7Y631D01*
X198Y631D02*
X207Y631D01*
X798Y631D02*
X807Y631D01*
X0Y630D02*
X7Y630D01*
X198Y630D02*
X207Y630D01*
X798Y630D02*
X807Y630D01*
X0Y629D02*
X7Y629D01*
X198Y629D02*
X207Y629D01*
X798Y629D02*
X807Y629D01*
X0Y628D02*
X7Y628D01*
X198Y628D02*
X207Y628D01*
X798Y628D02*
X807Y628D01*
X0Y627D02*
X7Y627D01*
X198Y627D02*
X207Y627D01*
X798Y627D02*
X807Y627D01*
X0Y626D02*
X7Y626D01*
X198Y626D02*
X207Y626D01*
X798Y626D02*
X807Y626D01*
X0Y625D02*
X7Y625D01*
X198Y625D02*
X207Y625D01*
X798Y625D02*
X807Y625D01*
X0Y624D02*
X7Y624D01*
X198Y624D02*
X207Y624D01*
X798Y624D02*
X807Y624D01*
X0Y623D02*
X7Y623D01*
X198Y623D02*
X207Y623D01*
X798Y623D02*
X807Y623D01*
X0Y622D02*
X7Y622D01*
X198Y622D02*
X207Y622D01*
X798Y622D02*
X807Y622D01*
X0Y621D02*
X7Y621D01*
X198Y621D02*
X207Y621D01*
X798Y621D02*
X807Y621D01*
X0Y620D02*
X7Y620D01*
X198Y620D02*
X207Y620D01*
X798Y620D02*
X807Y620D01*
X0Y619D02*
X7Y619D01*
X198Y619D02*
X207Y619D01*
X798Y619D02*
X807Y619D01*
X0Y618D02*
X7Y618D01*
X198Y618D02*
X207Y618D01*
X798Y618D02*
X807Y618D01*
X0Y617D02*
X7Y617D01*
X198Y617D02*
X207Y617D01*
X798Y617D02*
X807Y617D01*
X0Y616D02*
X7Y616D01*
X198Y616D02*
X207Y616D01*
X798Y616D02*
X807Y616D01*
X0Y615D02*
X7Y615D01*
X198Y615D02*
X207Y615D01*
X798Y615D02*
X807Y615D01*
X0Y614D02*
X7Y614D01*
X198Y614D02*
X207Y614D01*
X798Y614D02*
X807Y614D01*
X0Y613D02*
X7Y613D01*
X198Y613D02*
X207Y613D01*
X798Y613D02*
X807Y613D01*
X0Y612D02*
X7Y612D01*
X198Y612D02*
X207Y612D01*
X798Y612D02*
X807Y612D01*
X0Y611D02*
X7Y611D01*
X198Y611D02*
X207Y611D01*
X798Y611D02*
X807Y611D01*
X0Y610D02*
X7Y610D01*
X198Y610D02*
X207Y610D01*
X798Y610D02*
X807Y610D01*
X0Y609D02*
X7Y609D01*
X198Y609D02*
X207Y609D01*
X798Y609D02*
X807Y609D01*
X0Y608D02*
X7Y608D01*
X198Y608D02*
X207Y608D01*
X798Y608D02*
X807Y608D01*
X0Y607D02*
X7Y607D01*
X198Y607D02*
X207Y607D01*
X798Y607D02*
X807Y607D01*
X0Y606D02*
X7Y606D01*
X198Y606D02*
X207Y606D01*
X798Y606D02*
X807Y606D01*
X0Y605D02*
X7Y605D01*
X198Y605D02*
X207Y605D01*
X798Y605D02*
X807Y605D01*
X0Y604D02*
X7Y604D01*
X198Y604D02*
X807Y604D01*
X0Y603D02*
X7Y603D01*
X198Y603D02*
X807Y603D01*
X0Y602D02*
X7Y602D01*
X198Y602D02*
X807Y602D01*
X0Y601D02*
X7Y601D01*
X198Y601D02*
X807Y601D01*
X0Y600D02*
X7Y600D01*
X198Y600D02*
X806Y600D01*
X0Y599D02*
X7Y599D01*
X153Y599D02*
X806Y599D01*
X0Y598D02*
X7Y598D01*
X153Y598D02*
X806Y598D01*
X0Y597D02*
X7Y597D01*
X153Y597D02*
X806Y597D01*
X0Y596D02*
X7Y596D01*
X153Y596D02*
X806Y596D01*
X0Y595D02*
X7Y595D01*
X153Y595D02*
X806Y595D01*
X0Y594D02*
X7Y594D01*
X153Y594D02*
X752Y594D01*
X799Y594D02*
X806Y594D01*
X0Y593D02*
X7Y593D01*
X153Y593D02*
X752Y593D01*
X799Y593D02*
X806Y593D01*
X0Y592D02*
X7Y592D01*
X153Y592D02*
X752Y592D01*
X799Y592D02*
X806Y592D01*
X0Y591D02*
X7Y591D01*
X153Y591D02*
X160Y591D01*
X745Y591D02*
X752Y591D01*
X799Y591D02*
X806Y591D01*
X0Y590D02*
X7Y590D01*
X153Y590D02*
X160Y590D01*
X745Y590D02*
X752Y590D01*
X799Y590D02*
X806Y590D01*
X0Y589D02*
X7Y589D01*
X153Y589D02*
X160Y589D01*
X745Y589D02*
X752Y589D01*
X799Y589D02*
X806Y589D01*
X0Y588D02*
X7Y588D01*
X153Y588D02*
X160Y588D01*
X745Y588D02*
X752Y588D01*
X799Y588D02*
X806Y588D01*
X0Y587D02*
X7Y587D01*
X153Y587D02*
X160Y587D01*
X745Y587D02*
X752Y587D01*
X799Y587D02*
X806Y587D01*
X0Y586D02*
X7Y586D01*
X153Y586D02*
X160Y586D01*
X745Y586D02*
X752Y586D01*
X799Y586D02*
X806Y586D01*
X0Y585D02*
X7Y585D01*
X153Y585D02*
X160Y585D01*
X745Y585D02*
X752Y585D01*
X799Y585D02*
X806Y585D01*
X0Y584D02*
X7Y584D01*
X153Y584D02*
X160Y584D01*
X745Y584D02*
X752Y584D01*
X799Y584D02*
X806Y584D01*
X0Y583D02*
X7Y583D01*
X153Y583D02*
X160Y583D01*
X745Y583D02*
X752Y583D01*
X799Y583D02*
X806Y583D01*
X0Y582D02*
X7Y582D01*
X153Y582D02*
X160Y582D01*
X745Y582D02*
X752Y582D01*
X799Y582D02*
X806Y582D01*
X0Y581D02*
X7Y581D01*
X153Y581D02*
X160Y581D01*
X745Y581D02*
X752Y581D01*
X799Y581D02*
X806Y581D01*
X0Y580D02*
X7Y580D01*
X153Y580D02*
X160Y580D01*
X745Y580D02*
X752Y580D01*
X799Y580D02*
X806Y580D01*
X0Y579D02*
X7Y579D01*
X153Y579D02*
X160Y579D01*
X745Y579D02*
X752Y579D01*
X799Y579D02*
X806Y579D01*
X0Y578D02*
X7Y578D01*
X153Y578D02*
X160Y578D01*
X745Y578D02*
X752Y578D01*
X799Y578D02*
X806Y578D01*
X0Y577D02*
X7Y577D01*
X153Y577D02*
X160Y577D01*
X745Y577D02*
X752Y577D01*
X799Y577D02*
X806Y577D01*
X0Y576D02*
X7Y576D01*
X153Y576D02*
X160Y576D01*
X745Y576D02*
X752Y576D01*
X799Y576D02*
X806Y576D01*
X0Y575D02*
X7Y575D01*
X153Y575D02*
X160Y575D01*
X745Y575D02*
X752Y575D01*
X799Y575D02*
X806Y575D01*
X0Y574D02*
X7Y574D01*
X153Y574D02*
X160Y574D01*
X745Y574D02*
X752Y574D01*
X799Y574D02*
X806Y574D01*
X0Y573D02*
X7Y573D01*
X153Y573D02*
X160Y573D01*
X745Y573D02*
X752Y573D01*
X799Y573D02*
X806Y573D01*
X0Y572D02*
X7Y572D01*
X153Y572D02*
X160Y572D01*
X745Y572D02*
X752Y572D01*
X799Y572D02*
X806Y572D01*
X0Y571D02*
X7Y571D01*
X153Y571D02*
X160Y571D01*
X745Y571D02*
X752Y571D01*
X799Y571D02*
X806Y571D01*
X0Y570D02*
X7Y570D01*
X153Y570D02*
X160Y570D01*
X745Y570D02*
X752Y570D01*
X799Y570D02*
X806Y570D01*
X0Y569D02*
X7Y569D01*
X153Y569D02*
X160Y569D01*
X745Y569D02*
X752Y569D01*
X799Y569D02*
X806Y569D01*
X0Y568D02*
X7Y568D01*
X153Y568D02*
X160Y568D01*
X745Y568D02*
X752Y568D01*
X799Y568D02*
X806Y568D01*
X0Y567D02*
X7Y567D01*
X153Y567D02*
X160Y567D01*
X745Y567D02*
X752Y567D01*
X799Y567D02*
X806Y567D01*
X0Y566D02*
X7Y566D01*
X153Y566D02*
X160Y566D01*
X745Y566D02*
X752Y566D01*
X799Y566D02*
X806Y566D01*
X0Y565D02*
X7Y565D01*
X153Y565D02*
X160Y565D01*
X745Y565D02*
X752Y565D01*
X799Y565D02*
X806Y565D01*
X0Y564D02*
X7Y564D01*
X153Y564D02*
X160Y564D01*
X745Y564D02*
X752Y564D01*
X799Y564D02*
X806Y564D01*
X0Y563D02*
X7Y563D01*
X153Y563D02*
X160Y563D01*
X745Y563D02*
X752Y563D01*
X799Y563D02*
X806Y563D01*
X0Y562D02*
X7Y562D01*
X153Y562D02*
X160Y562D01*
X745Y562D02*
X752Y562D01*
X799Y562D02*
X806Y562D01*
X0Y561D02*
X7Y561D01*
X153Y561D02*
X160Y561D01*
X745Y561D02*
X752Y561D01*
X799Y561D02*
X806Y561D01*
X0Y560D02*
X7Y560D01*
X153Y560D02*
X160Y560D01*
X745Y560D02*
X752Y560D01*
X799Y560D02*
X806Y560D01*
X0Y559D02*
X7Y559D01*
X153Y559D02*
X160Y559D01*
X745Y559D02*
X752Y559D01*
X799Y559D02*
X806Y559D01*
X0Y558D02*
X7Y558D01*
X153Y558D02*
X160Y558D01*
X745Y558D02*
X752Y558D01*
X799Y558D02*
X806Y558D01*
X0Y557D02*
X7Y557D01*
X153Y557D02*
X160Y557D01*
X745Y557D02*
X752Y557D01*
X799Y557D02*
X806Y557D01*
X0Y556D02*
X7Y556D01*
X153Y556D02*
X160Y556D01*
X745Y556D02*
X752Y556D01*
X799Y556D02*
X806Y556D01*
X0Y555D02*
X7Y555D01*
X153Y555D02*
X160Y555D01*
X745Y555D02*
X752Y555D01*
X799Y555D02*
X806Y555D01*
X0Y554D02*
X7Y554D01*
X153Y554D02*
X160Y554D01*
X745Y554D02*
X752Y554D01*
X799Y554D02*
X806Y554D01*
X0Y553D02*
X7Y553D01*
X153Y553D02*
X160Y553D01*
X745Y553D02*
X752Y553D01*
X799Y553D02*
X806Y553D01*
X0Y552D02*
X7Y552D01*
X153Y552D02*
X160Y552D01*
X745Y552D02*
X752Y552D01*
X799Y552D02*
X806Y552D01*
X0Y551D02*
X7Y551D01*
X153Y551D02*
X160Y551D01*
X745Y551D02*
X752Y551D01*
X799Y551D02*
X806Y551D01*
X0Y550D02*
X7Y550D01*
X153Y550D02*
X160Y550D01*
X745Y550D02*
X752Y550D01*
X799Y550D02*
X806Y550D01*
X0Y549D02*
X7Y549D01*
X153Y549D02*
X160Y549D01*
X745Y549D02*
X752Y549D01*
X799Y549D02*
X806Y549D01*
X0Y548D02*
X7Y548D01*
X153Y548D02*
X160Y548D01*
X745Y548D02*
X752Y548D01*
X799Y548D02*
X806Y548D01*
X0Y547D02*
X7Y547D01*
X153Y547D02*
X160Y547D01*
X745Y547D02*
X752Y547D01*
X799Y547D02*
X806Y547D01*
X0Y546D02*
X7Y546D01*
X153Y546D02*
X160Y546D01*
X745Y546D02*
X752Y546D01*
X799Y546D02*
X806Y546D01*
X0Y545D02*
X7Y545D01*
X153Y545D02*
X160Y545D01*
X745Y545D02*
X752Y545D01*
X799Y545D02*
X806Y545D01*
X0Y544D02*
X7Y544D01*
X153Y544D02*
X160Y544D01*
X745Y544D02*
X752Y544D01*
X799Y544D02*
X806Y544D01*
X0Y543D02*
X7Y543D01*
X153Y543D02*
X160Y543D01*
X745Y543D02*
X752Y543D01*
X799Y543D02*
X806Y543D01*
X0Y542D02*
X7Y542D01*
X153Y542D02*
X160Y542D01*
X745Y542D02*
X752Y542D01*
X799Y542D02*
X806Y542D01*
X0Y541D02*
X7Y541D01*
X153Y541D02*
X160Y541D01*
X745Y541D02*
X752Y541D01*
X799Y541D02*
X806Y541D01*
X0Y540D02*
X7Y540D01*
X153Y540D02*
X160Y540D01*
X745Y540D02*
X752Y540D01*
X799Y540D02*
X806Y540D01*
X0Y539D02*
X7Y539D01*
X153Y539D02*
X160Y539D01*
X745Y539D02*
X752Y539D01*
X799Y539D02*
X806Y539D01*
X0Y538D02*
X7Y538D01*
X153Y538D02*
X160Y538D01*
X745Y538D02*
X752Y538D01*
X799Y538D02*
X806Y538D01*
X0Y537D02*
X7Y537D01*
X153Y537D02*
X160Y537D01*
X745Y537D02*
X752Y537D01*
X799Y537D02*
X806Y537D01*
X0Y536D02*
X7Y536D01*
X153Y536D02*
X160Y536D01*
X745Y536D02*
X752Y536D01*
X799Y536D02*
X806Y536D01*
X0Y535D02*
X7Y535D01*
X153Y535D02*
X160Y535D01*
X745Y535D02*
X752Y535D01*
X799Y535D02*
X806Y535D01*
X0Y534D02*
X7Y534D01*
X153Y534D02*
X160Y534D01*
X745Y534D02*
X752Y534D01*
X799Y534D02*
X806Y534D01*
X0Y533D02*
X7Y533D01*
X153Y533D02*
X160Y533D01*
X745Y533D02*
X752Y533D01*
X799Y533D02*
X806Y533D01*
X0Y532D02*
X7Y532D01*
X153Y532D02*
X160Y532D01*
X745Y532D02*
X752Y532D01*
X799Y532D02*
X806Y532D01*
X0Y531D02*
X7Y531D01*
X153Y531D02*
X160Y531D01*
X745Y531D02*
X752Y531D01*
X799Y531D02*
X806Y531D01*
X0Y530D02*
X7Y530D01*
X153Y530D02*
X160Y530D01*
X745Y530D02*
X752Y530D01*
X799Y530D02*
X806Y530D01*
X0Y529D02*
X7Y529D01*
X153Y529D02*
X160Y529D01*
X745Y529D02*
X752Y529D01*
X799Y529D02*
X806Y529D01*
X0Y528D02*
X7Y528D01*
X153Y528D02*
X160Y528D01*
X745Y528D02*
X752Y528D01*
X799Y528D02*
X806Y528D01*
X0Y527D02*
X7Y527D01*
X153Y527D02*
X160Y527D01*
X745Y527D02*
X752Y527D01*
X799Y527D02*
X806Y527D01*
X0Y526D02*
X7Y526D01*
X153Y526D02*
X160Y526D01*
X745Y526D02*
X752Y526D01*
X799Y526D02*
X806Y526D01*
X0Y525D02*
X7Y525D01*
X153Y525D02*
X160Y525D01*
X745Y525D02*
X752Y525D01*
X799Y525D02*
X806Y525D01*
X0Y524D02*
X7Y524D01*
X153Y524D02*
X160Y524D01*
X745Y524D02*
X752Y524D01*
X799Y524D02*
X806Y524D01*
X0Y523D02*
X7Y523D01*
X153Y523D02*
X160Y523D01*
X745Y523D02*
X752Y523D01*
X799Y523D02*
X806Y523D01*
X0Y522D02*
X7Y522D01*
X153Y522D02*
X160Y522D01*
X745Y522D02*
X752Y522D01*
X799Y522D02*
X806Y522D01*
X0Y521D02*
X7Y521D01*
X153Y521D02*
X160Y521D01*
X745Y521D02*
X752Y521D01*
X799Y521D02*
X806Y521D01*
X0Y520D02*
X7Y520D01*
X153Y520D02*
X160Y520D01*
X745Y520D02*
X752Y520D01*
X799Y520D02*
X806Y520D01*
X0Y519D02*
X7Y519D01*
X153Y519D02*
X160Y519D01*
X745Y519D02*
X752Y519D01*
X799Y519D02*
X806Y519D01*
X0Y518D02*
X7Y518D01*
X153Y518D02*
X160Y518D01*
X745Y518D02*
X752Y518D01*
X799Y518D02*
X806Y518D01*
X0Y517D02*
X7Y517D01*
X153Y517D02*
X160Y517D01*
X745Y517D02*
X752Y517D01*
X799Y517D02*
X806Y517D01*
X0Y516D02*
X7Y516D01*
X153Y516D02*
X160Y516D01*
X745Y516D02*
X752Y516D01*
X799Y516D02*
X806Y516D01*
X0Y515D02*
X7Y515D01*
X153Y515D02*
X160Y515D01*
X745Y515D02*
X752Y515D01*
X799Y515D02*
X806Y515D01*
X0Y514D02*
X7Y514D01*
X153Y514D02*
X160Y514D01*
X745Y514D02*
X752Y514D01*
X799Y514D02*
X806Y514D01*
X0Y513D02*
X7Y513D01*
X153Y513D02*
X160Y513D01*
X745Y513D02*
X752Y513D01*
X799Y513D02*
X806Y513D01*
X0Y512D02*
X7Y512D01*
X153Y512D02*
X160Y512D01*
X745Y512D02*
X752Y512D01*
X799Y512D02*
X806Y512D01*
X0Y511D02*
X7Y511D01*
X153Y511D02*
X160Y511D01*
X745Y511D02*
X752Y511D01*
X799Y511D02*
X806Y511D01*
X0Y510D02*
X7Y510D01*
X153Y510D02*
X160Y510D01*
X745Y510D02*
X752Y510D01*
X799Y510D02*
X806Y510D01*
X0Y509D02*
X7Y509D01*
X153Y509D02*
X160Y509D01*
X397Y509D02*
X429Y509D01*
X450Y509D02*
X474Y509D01*
X549Y509D02*
X575Y509D01*
X598Y509D02*
X602Y509D01*
X649Y509D02*
X675Y509D01*
X745Y509D02*
X752Y509D01*
X799Y509D02*
X806Y509D01*
X0Y508D02*
X7Y508D01*
X153Y508D02*
X160Y508D01*
X396Y508D02*
X429Y508D01*
X448Y508D02*
X475Y508D01*
X548Y508D02*
X577Y508D01*
X598Y508D02*
X603Y508D01*
X648Y508D02*
X677Y508D01*
X745Y508D02*
X752Y508D01*
X799Y508D02*
X806Y508D01*
X0Y507D02*
X7Y507D01*
X153Y507D02*
X160Y507D01*
X396Y507D02*
X429Y507D01*
X447Y507D02*
X476Y507D01*
X547Y507D02*
X578Y507D01*
X597Y507D02*
X603Y507D01*
X647Y507D02*
X678Y507D01*
X745Y507D02*
X752Y507D01*
X799Y507D02*
X806Y507D01*
X0Y506D02*
X7Y506D01*
X153Y506D02*
X160Y506D01*
X396Y506D02*
X429Y506D01*
X447Y506D02*
X477Y506D01*
X546Y506D02*
X578Y506D01*
X597Y506D02*
X603Y506D01*
X646Y506D02*
X678Y506D01*
X745Y506D02*
X752Y506D01*
X799Y506D02*
X806Y506D01*
X0Y505D02*
X7Y505D01*
X153Y505D02*
X160Y505D01*
X396Y505D02*
X429Y505D01*
X446Y505D02*
X478Y505D01*
X546Y505D02*
X579Y505D01*
X597Y505D02*
X603Y505D01*
X646Y505D02*
X679Y505D01*
X745Y505D02*
X752Y505D01*
X799Y505D02*
X806Y505D01*
X0Y504D02*
X7Y504D01*
X153Y504D02*
X160Y504D01*
X396Y504D02*
X428Y504D01*
X446Y504D02*
X478Y504D01*
X546Y504D02*
X579Y504D01*
X597Y504D02*
X603Y504D01*
X646Y504D02*
X679Y504D01*
X745Y504D02*
X752Y504D01*
X799Y504D02*
X806Y504D01*
X0Y503D02*
X7Y503D01*
X153Y503D02*
X160Y503D01*
X398Y503D02*
X428Y503D01*
X446Y503D02*
X479Y503D01*
X545Y503D02*
X579Y503D01*
X597Y503D02*
X603Y503D01*
X619Y503D02*
X623Y503D01*
X645Y503D02*
X679Y503D01*
X745Y503D02*
X752Y503D01*
X799Y503D02*
X806Y503D01*
X0Y502D02*
X7Y502D01*
X153Y502D02*
X160Y502D01*
X420Y502D02*
X427Y502D01*
X445Y502D02*
X452Y502D01*
X472Y502D02*
X479Y502D01*
X545Y502D02*
X551Y502D01*
X573Y502D02*
X579Y502D01*
X597Y502D02*
X603Y502D01*
X618Y502D02*
X623Y502D01*
X645Y502D02*
X651Y502D01*
X673Y502D02*
X679Y502D01*
X745Y502D02*
X752Y502D01*
X799Y502D02*
X806Y502D01*
X0Y501D02*
X7Y501D01*
X153Y501D02*
X160Y501D01*
X419Y501D02*
X426Y501D01*
X446Y501D02*
X452Y501D01*
X473Y501D02*
X479Y501D01*
X545Y501D02*
X551Y501D01*
X573Y501D02*
X579Y501D01*
X597Y501D02*
X603Y501D01*
X618Y501D02*
X624Y501D01*
X645Y501D02*
X651Y501D01*
X673Y501D02*
X679Y501D01*
X745Y501D02*
X752Y501D01*
X799Y501D02*
X806Y501D01*
X0Y500D02*
X7Y500D01*
X153Y500D02*
X160Y500D01*
X419Y500D02*
X426Y500D01*
X446Y500D02*
X453Y500D01*
X473Y500D02*
X479Y500D01*
X545Y500D02*
X551Y500D01*
X573Y500D02*
X579Y500D01*
X597Y500D02*
X603Y500D01*
X618Y500D02*
X624Y500D01*
X645Y500D02*
X651Y500D01*
X673Y500D02*
X679Y500D01*
X745Y500D02*
X752Y500D01*
X799Y500D02*
X806Y500D01*
X0Y499D02*
X7Y499D01*
X153Y499D02*
X160Y499D01*
X418Y499D02*
X425Y499D01*
X446Y499D02*
X454Y499D01*
X473Y499D02*
X479Y499D01*
X545Y499D02*
X551Y499D01*
X573Y499D02*
X579Y499D01*
X597Y499D02*
X603Y499D01*
X618Y499D02*
X624Y499D01*
X645Y499D02*
X651Y499D01*
X673Y499D02*
X679Y499D01*
X745Y499D02*
X752Y499D01*
X799Y499D02*
X806Y499D01*
X0Y498D02*
X7Y498D01*
X153Y498D02*
X160Y498D01*
X418Y498D02*
X425Y498D01*
X447Y498D02*
X454Y498D01*
X474Y498D02*
X478Y498D01*
X545Y498D02*
X551Y498D01*
X573Y498D02*
X579Y498D01*
X597Y498D02*
X603Y498D01*
X618Y498D02*
X624Y498D01*
X645Y498D02*
X651Y498D01*
X673Y498D02*
X679Y498D01*
X745Y498D02*
X752Y498D01*
X799Y498D02*
X806Y498D01*
X0Y497D02*
X7Y497D01*
X153Y497D02*
X160Y497D01*
X417Y497D02*
X424Y497D01*
X447Y497D02*
X455Y497D01*
X545Y497D02*
X551Y497D01*
X573Y497D02*
X579Y497D01*
X597Y497D02*
X603Y497D01*
X618Y497D02*
X624Y497D01*
X645Y497D02*
X651Y497D01*
X673Y497D02*
X679Y497D01*
X745Y497D02*
X752Y497D01*
X799Y497D02*
X806Y497D01*
X0Y496D02*
X7Y496D01*
X153Y496D02*
X160Y496D01*
X416Y496D02*
X424Y496D01*
X448Y496D02*
X456Y496D01*
X545Y496D02*
X551Y496D01*
X573Y496D02*
X579Y496D01*
X597Y496D02*
X603Y496D01*
X618Y496D02*
X624Y496D01*
X645Y496D02*
X651Y496D01*
X673Y496D02*
X679Y496D01*
X745Y496D02*
X752Y496D01*
X799Y496D02*
X806Y496D01*
X0Y495D02*
X7Y495D01*
X153Y495D02*
X160Y495D01*
X416Y495D02*
X423Y495D01*
X449Y495D02*
X457Y495D01*
X545Y495D02*
X551Y495D01*
X573Y495D02*
X579Y495D01*
X597Y495D02*
X603Y495D01*
X618Y495D02*
X624Y495D01*
X645Y495D02*
X651Y495D01*
X673Y495D02*
X679Y495D01*
X745Y495D02*
X752Y495D01*
X799Y495D02*
X806Y495D01*
X0Y494D02*
X7Y494D01*
X153Y494D02*
X160Y494D01*
X415Y494D02*
X422Y494D01*
X449Y494D02*
X457Y494D01*
X545Y494D02*
X551Y494D01*
X573Y494D02*
X579Y494D01*
X597Y494D02*
X603Y494D01*
X618Y494D02*
X624Y494D01*
X645Y494D02*
X651Y494D01*
X673Y494D02*
X679Y494D01*
X745Y494D02*
X752Y494D01*
X799Y494D02*
X806Y494D01*
X0Y493D02*
X7Y493D01*
X153Y493D02*
X160Y493D01*
X415Y493D02*
X422Y493D01*
X450Y493D02*
X458Y493D01*
X545Y493D02*
X551Y493D01*
X573Y493D02*
X579Y493D01*
X597Y493D02*
X603Y493D01*
X618Y493D02*
X624Y493D01*
X645Y493D02*
X651Y493D01*
X673Y493D02*
X679Y493D01*
X745Y493D02*
X752Y493D01*
X799Y493D02*
X806Y493D01*
X0Y492D02*
X7Y492D01*
X153Y492D02*
X160Y492D01*
X414Y492D02*
X421Y492D01*
X451Y492D02*
X459Y492D01*
X545Y492D02*
X551Y492D01*
X573Y492D02*
X579Y492D01*
X597Y492D02*
X603Y492D01*
X618Y492D02*
X624Y492D01*
X645Y492D02*
X651Y492D01*
X673Y492D02*
X679Y492D01*
X745Y492D02*
X752Y492D01*
X799Y492D02*
X806Y492D01*
X0Y491D02*
X7Y491D01*
X153Y491D02*
X160Y491D01*
X413Y491D02*
X421Y491D01*
X452Y491D02*
X460Y491D01*
X545Y491D02*
X551Y491D01*
X573Y491D02*
X579Y491D01*
X597Y491D02*
X603Y491D01*
X618Y491D02*
X624Y491D01*
X645Y491D02*
X651Y491D01*
X673Y491D02*
X679Y491D01*
X745Y491D02*
X752Y491D01*
X799Y491D02*
X806Y491D01*
X0Y490D02*
X7Y490D01*
X153Y490D02*
X160Y490D01*
X413Y490D02*
X420Y490D01*
X453Y490D02*
X461Y490D01*
X545Y490D02*
X551Y490D01*
X573Y490D02*
X579Y490D01*
X597Y490D02*
X603Y490D01*
X618Y490D02*
X624Y490D01*
X645Y490D02*
X651Y490D01*
X673Y490D02*
X679Y490D01*
X745Y490D02*
X752Y490D01*
X799Y490D02*
X806Y490D01*
X0Y489D02*
X7Y489D01*
X153Y489D02*
X160Y489D01*
X412Y489D02*
X419Y489D01*
X453Y489D02*
X461Y489D01*
X545Y489D02*
X551Y489D01*
X573Y489D02*
X579Y489D01*
X597Y489D02*
X603Y489D01*
X618Y489D02*
X624Y489D01*
X645Y489D02*
X651Y489D01*
X673Y489D02*
X679Y489D01*
X745Y489D02*
X752Y489D01*
X799Y489D02*
X806Y489D01*
X0Y488D02*
X7Y488D01*
X153Y488D02*
X160Y488D01*
X412Y488D02*
X419Y488D01*
X454Y488D02*
X462Y488D01*
X545Y488D02*
X551Y488D01*
X573Y488D02*
X579Y488D01*
X597Y488D02*
X603Y488D01*
X618Y488D02*
X624Y488D01*
X645Y488D02*
X651Y488D01*
X673Y488D02*
X679Y488D01*
X745Y488D02*
X752Y488D01*
X799Y488D02*
X806Y488D01*
X0Y487D02*
X7Y487D01*
X153Y487D02*
X160Y487D01*
X411Y487D02*
X418Y487D01*
X455Y487D02*
X463Y487D01*
X545Y487D02*
X551Y487D01*
X573Y487D02*
X579Y487D01*
X597Y487D02*
X603Y487D01*
X618Y487D02*
X624Y487D01*
X645Y487D02*
X651Y487D01*
X673Y487D02*
X679Y487D01*
X745Y487D02*
X752Y487D01*
X799Y487D02*
X806Y487D01*
X0Y486D02*
X7Y486D01*
X153Y486D02*
X160Y486D01*
X411Y486D02*
X418Y486D01*
X456Y486D02*
X464Y486D01*
X497Y486D02*
X527Y486D01*
X545Y486D02*
X551Y486D01*
X573Y486D02*
X579Y486D01*
X597Y486D02*
X603Y486D01*
X618Y486D02*
X624Y486D01*
X645Y486D02*
X651Y486D01*
X673Y486D02*
X679Y486D01*
X745Y486D02*
X752Y486D01*
X799Y486D02*
X806Y486D01*
X0Y485D02*
X7Y485D01*
X153Y485D02*
X160Y485D01*
X410Y485D02*
X417Y485D01*
X456Y485D02*
X464Y485D01*
X496Y485D02*
X528Y485D01*
X545Y485D02*
X551Y485D01*
X573Y485D02*
X579Y485D01*
X597Y485D02*
X603Y485D01*
X618Y485D02*
X624Y485D01*
X645Y485D02*
X651Y485D01*
X673Y485D02*
X679Y485D01*
X745Y485D02*
X752Y485D01*
X799Y485D02*
X806Y485D01*
X0Y484D02*
X7Y484D01*
X153Y484D02*
X160Y484D01*
X409Y484D02*
X416Y484D01*
X457Y484D02*
X465Y484D01*
X496Y484D02*
X529Y484D01*
X545Y484D02*
X551Y484D01*
X573Y484D02*
X579Y484D01*
X597Y484D02*
X603Y484D01*
X618Y484D02*
X624Y484D01*
X645Y484D02*
X651Y484D01*
X673Y484D02*
X679Y484D01*
X745Y484D02*
X752Y484D01*
X799Y484D02*
X806Y484D01*
X0Y483D02*
X7Y483D01*
X153Y483D02*
X160Y483D01*
X409Y483D02*
X416Y483D01*
X458Y483D02*
X466Y483D01*
X495Y483D02*
X529Y483D01*
X545Y483D02*
X551Y483D01*
X573Y483D02*
X579Y483D01*
X597Y483D02*
X603Y483D01*
X618Y483D02*
X624Y483D01*
X645Y483D02*
X651Y483D01*
X673Y483D02*
X679Y483D01*
X745Y483D02*
X752Y483D01*
X799Y483D02*
X806Y483D01*
X0Y482D02*
X7Y482D01*
X153Y482D02*
X160Y482D01*
X408Y482D02*
X415Y482D01*
X459Y482D02*
X467Y482D01*
X495Y482D02*
X529Y482D01*
X545Y482D02*
X551Y482D01*
X573Y482D02*
X579Y482D01*
X597Y482D02*
X603Y482D01*
X618Y482D02*
X624Y482D01*
X645Y482D02*
X651Y482D01*
X673Y482D02*
X679Y482D01*
X745Y482D02*
X752Y482D01*
X799Y482D02*
X806Y482D01*
X0Y481D02*
X7Y481D01*
X153Y481D02*
X160Y481D01*
X408Y481D02*
X415Y481D01*
X460Y481D02*
X468Y481D01*
X495Y481D02*
X529Y481D01*
X545Y481D02*
X551Y481D01*
X573Y481D02*
X579Y481D01*
X597Y481D02*
X603Y481D01*
X618Y481D02*
X624Y481D01*
X645Y481D02*
X651Y481D01*
X673Y481D02*
X679Y481D01*
X745Y481D02*
X752Y481D01*
X799Y481D02*
X806Y481D01*
X0Y480D02*
X7Y480D01*
X153Y480D02*
X160Y480D01*
X407Y480D02*
X414Y480D01*
X460Y480D02*
X468Y480D01*
X495Y480D02*
X529Y480D01*
X545Y480D02*
X551Y480D01*
X573Y480D02*
X579Y480D01*
X597Y480D02*
X625Y480D01*
X645Y480D02*
X651Y480D01*
X673Y480D02*
X679Y480D01*
X745Y480D02*
X752Y480D01*
X799Y480D02*
X806Y480D01*
X0Y479D02*
X7Y479D01*
X153Y479D02*
X160Y479D01*
X406Y479D02*
X414Y479D01*
X461Y479D02*
X469Y479D01*
X496Y479D02*
X529Y479D01*
X545Y479D02*
X551Y479D01*
X573Y479D02*
X579Y479D01*
X597Y479D02*
X627Y479D01*
X645Y479D02*
X651Y479D01*
X673Y479D02*
X679Y479D01*
X745Y479D02*
X752Y479D01*
X799Y479D02*
X806Y479D01*
X0Y478D02*
X7Y478D01*
X153Y478D02*
X160Y478D01*
X406Y478D02*
X413Y478D01*
X462Y478D02*
X470Y478D01*
X496Y478D02*
X528Y478D01*
X545Y478D02*
X551Y478D01*
X573Y478D02*
X579Y478D01*
X597Y478D02*
X627Y478D01*
X645Y478D02*
X651Y478D01*
X673Y478D02*
X679Y478D01*
X745Y478D02*
X752Y478D01*
X799Y478D02*
X806Y478D01*
X0Y477D02*
X7Y477D01*
X153Y477D02*
X160Y477D01*
X405Y477D02*
X412Y477D01*
X463Y477D02*
X471Y477D01*
X497Y477D02*
X527Y477D01*
X545Y477D02*
X551Y477D01*
X573Y477D02*
X579Y477D01*
X597Y477D02*
X627Y477D01*
X645Y477D02*
X651Y477D01*
X673Y477D02*
X679Y477D01*
X745Y477D02*
X752Y477D01*
X799Y477D02*
X806Y477D01*
X0Y476D02*
X7Y476D01*
X153Y476D02*
X160Y476D01*
X405Y476D02*
X412Y476D01*
X463Y476D02*
X471Y476D01*
X545Y476D02*
X551Y476D01*
X573Y476D02*
X579Y476D01*
X597Y476D02*
X627Y476D01*
X645Y476D02*
X651Y476D01*
X673Y476D02*
X679Y476D01*
X745Y476D02*
X752Y476D01*
X799Y476D02*
X806Y476D01*
X0Y475D02*
X7Y475D01*
X153Y475D02*
X160Y475D01*
X404Y475D02*
X411Y475D01*
X464Y475D02*
X472Y475D01*
X545Y475D02*
X551Y475D01*
X573Y475D02*
X579Y475D01*
X597Y475D02*
X627Y475D01*
X645Y475D02*
X651Y475D01*
X673Y475D02*
X679Y475D01*
X745Y475D02*
X752Y475D01*
X799Y475D02*
X806Y475D01*
X0Y474D02*
X7Y474D01*
X153Y474D02*
X160Y474D01*
X403Y474D02*
X411Y474D01*
X465Y474D02*
X473Y474D01*
X545Y474D02*
X551Y474D01*
X573Y474D02*
X579Y474D01*
X597Y474D02*
X626Y474D01*
X645Y474D02*
X651Y474D01*
X673Y474D02*
X679Y474D01*
X745Y474D02*
X752Y474D01*
X799Y474D02*
X806Y474D01*
X0Y473D02*
X7Y473D01*
X153Y473D02*
X160Y473D01*
X403Y473D02*
X410Y473D01*
X466Y473D02*
X474Y473D01*
X545Y473D02*
X551Y473D01*
X573Y473D02*
X579Y473D01*
X618Y473D02*
X624Y473D01*
X645Y473D02*
X651Y473D01*
X673Y473D02*
X679Y473D01*
X745Y473D02*
X752Y473D01*
X799Y473D02*
X806Y473D01*
X0Y472D02*
X7Y472D01*
X153Y472D02*
X160Y472D01*
X402Y472D02*
X409Y472D01*
X467Y472D02*
X475Y472D01*
X545Y472D02*
X551Y472D01*
X573Y472D02*
X579Y472D01*
X618Y472D02*
X624Y472D01*
X645Y472D02*
X651Y472D01*
X673Y472D02*
X679Y472D01*
X745Y472D02*
X752Y472D01*
X799Y472D02*
X806Y472D01*
X0Y471D02*
X7Y471D01*
X153Y471D02*
X160Y471D01*
X402Y471D02*
X409Y471D01*
X467Y471D02*
X475Y471D01*
X545Y471D02*
X551Y471D01*
X573Y471D02*
X579Y471D01*
X618Y471D02*
X624Y471D01*
X645Y471D02*
X651Y471D01*
X673Y471D02*
X679Y471D01*
X745Y471D02*
X752Y471D01*
X799Y471D02*
X806Y471D01*
X0Y470D02*
X7Y470D01*
X153Y470D02*
X160Y470D01*
X401Y470D02*
X408Y470D01*
X468Y470D02*
X476Y470D01*
X545Y470D02*
X551Y470D01*
X573Y470D02*
X579Y470D01*
X618Y470D02*
X624Y470D01*
X645Y470D02*
X651Y470D01*
X673Y470D02*
X679Y470D01*
X745Y470D02*
X752Y470D01*
X799Y470D02*
X806Y470D01*
X0Y469D02*
X7Y469D01*
X153Y469D02*
X160Y469D01*
X401Y469D02*
X408Y469D01*
X469Y469D02*
X477Y469D01*
X545Y469D02*
X551Y469D01*
X573Y469D02*
X579Y469D01*
X618Y469D02*
X624Y469D01*
X645Y469D02*
X651Y469D01*
X673Y469D02*
X679Y469D01*
X745Y469D02*
X752Y469D01*
X799Y469D02*
X806Y469D01*
X0Y468D02*
X7Y468D01*
X153Y468D02*
X160Y468D01*
X400Y468D02*
X407Y468D01*
X447Y468D02*
X450Y468D01*
X470Y468D02*
X478Y468D01*
X545Y468D02*
X551Y468D01*
X573Y468D02*
X579Y468D01*
X618Y468D02*
X624Y468D01*
X645Y468D02*
X651Y468D01*
X673Y468D02*
X679Y468D01*
X745Y468D02*
X752Y468D01*
X799Y468D02*
X806Y468D01*
X0Y467D02*
X7Y467D01*
X153Y467D02*
X160Y467D01*
X399Y467D02*
X407Y467D01*
X446Y467D02*
X451Y467D01*
X470Y467D02*
X478Y467D01*
X545Y467D02*
X551Y467D01*
X573Y467D02*
X579Y467D01*
X618Y467D02*
X624Y467D01*
X645Y467D02*
X651Y467D01*
X673Y467D02*
X679Y467D01*
X745Y467D02*
X752Y467D01*
X799Y467D02*
X806Y467D01*
X0Y466D02*
X7Y466D01*
X153Y466D02*
X160Y466D01*
X399Y466D02*
X406Y466D01*
X446Y466D02*
X451Y466D01*
X471Y466D02*
X479Y466D01*
X545Y466D02*
X551Y466D01*
X573Y466D02*
X579Y466D01*
X618Y466D02*
X624Y466D01*
X645Y466D02*
X651Y466D01*
X673Y466D02*
X679Y466D01*
X745Y466D02*
X752Y466D01*
X799Y466D02*
X806Y466D01*
X0Y465D02*
X7Y465D01*
X153Y465D02*
X160Y465D01*
X398Y465D02*
X405Y465D01*
X445Y465D02*
X451Y465D01*
X472Y465D02*
X479Y465D01*
X545Y465D02*
X551Y465D01*
X573Y465D02*
X579Y465D01*
X618Y465D02*
X624Y465D01*
X645Y465D02*
X651Y465D01*
X673Y465D02*
X679Y465D01*
X745Y465D02*
X752Y465D01*
X799Y465D02*
X806Y465D01*
X0Y464D02*
X7Y464D01*
X153Y464D02*
X160Y464D01*
X398Y464D02*
X405Y464D01*
X446Y464D02*
X452Y464D01*
X473Y464D02*
X479Y464D01*
X545Y464D02*
X551Y464D01*
X573Y464D02*
X579Y464D01*
X618Y464D02*
X624Y464D01*
X645Y464D02*
X651Y464D01*
X673Y464D02*
X679Y464D01*
X745Y464D02*
X752Y464D01*
X799Y464D02*
X806Y464D01*
X0Y463D02*
X7Y463D01*
X153Y463D02*
X160Y463D01*
X397Y463D02*
X404Y463D01*
X446Y463D02*
X453Y463D01*
X473Y463D02*
X479Y463D01*
X545Y463D02*
X552Y463D01*
X573Y463D02*
X579Y463D01*
X618Y463D02*
X624Y463D01*
X645Y463D02*
X652Y463D01*
X673Y463D02*
X679Y463D01*
X745Y463D02*
X752Y463D01*
X799Y463D02*
X806Y463D01*
X0Y462D02*
X7Y462D01*
X153Y462D02*
X160Y462D01*
X396Y462D02*
X428Y462D01*
X446Y462D02*
X479Y462D01*
X546Y462D02*
X579Y462D01*
X618Y462D02*
X624Y462D01*
X645Y462D02*
X679Y462D01*
X745Y462D02*
X752Y462D01*
X799Y462D02*
X806Y462D01*
X0Y461D02*
X7Y461D01*
X153Y461D02*
X159Y461D01*
X396Y461D02*
X428Y461D01*
X446Y461D02*
X478Y461D01*
X546Y461D02*
X579Y461D01*
X618Y461D02*
X624Y461D01*
X646Y461D02*
X679Y461D01*
X745Y461D02*
X752Y461D01*
X799Y461D02*
X806Y461D01*
X0Y460D02*
X7Y460D01*
X153Y460D02*
X159Y460D01*
X395Y460D02*
X429Y460D01*
X447Y460D02*
X478Y460D01*
X546Y460D02*
X578Y460D01*
X618Y460D02*
X624Y460D01*
X646Y460D02*
X678Y460D01*
X745Y460D02*
X752Y460D01*
X799Y460D02*
X806Y460D01*
X0Y459D02*
X7Y459D01*
X153Y459D02*
X159Y459D01*
X395Y459D02*
X429Y459D01*
X448Y459D02*
X477Y459D01*
X547Y459D02*
X578Y459D01*
X618Y459D02*
X624Y459D01*
X647Y459D02*
X678Y459D01*
X745Y459D02*
X752Y459D01*
X799Y459D02*
X806Y459D01*
X0Y458D02*
X7Y458D01*
X153Y458D02*
X159Y458D01*
X395Y458D02*
X429Y458D01*
X449Y458D02*
X477Y458D01*
X547Y458D02*
X577Y458D01*
X618Y458D02*
X624Y458D01*
X647Y458D02*
X677Y458D01*
X745Y458D02*
X752Y458D01*
X799Y458D02*
X806Y458D01*
X0Y457D02*
X7Y457D01*
X153Y457D02*
X158Y457D01*
X395Y457D02*
X428Y457D01*
X450Y457D02*
X475Y457D01*
X549Y457D02*
X576Y457D01*
X619Y457D02*
X623Y457D01*
X649Y457D02*
X676Y457D01*
X745Y457D02*
X752Y457D01*
X799Y457D02*
X806Y457D01*
X0Y456D02*
X7Y456D01*
X153Y456D02*
X158Y456D01*
X396Y456D02*
X427Y456D01*
X453Y456D02*
X473Y456D01*
X551Y456D02*
X574Y456D01*
X620Y456D02*
X621Y456D01*
X651Y456D02*
X674Y456D01*
X745Y456D02*
X752Y456D01*
X799Y456D02*
X806Y456D01*
X0Y455D02*
X7Y455D01*
X153Y455D02*
X158Y455D01*
X745Y455D02*
X752Y455D01*
X799Y455D02*
X806Y455D01*
X0Y454D02*
X7Y454D01*
X153Y454D02*
X158Y454D01*
X745Y454D02*
X752Y454D01*
X799Y454D02*
X806Y454D01*
X0Y453D02*
X7Y453D01*
X153Y453D02*
X158Y453D01*
X745Y453D02*
X752Y453D01*
X799Y453D02*
X806Y453D01*
X0Y452D02*
X7Y452D01*
X153Y452D02*
X158Y452D01*
X745Y452D02*
X752Y452D01*
X799Y452D02*
X806Y452D01*
X0Y451D02*
X7Y451D01*
X153Y451D02*
X158Y451D01*
X745Y451D02*
X752Y451D01*
X799Y451D02*
X806Y451D01*
X0Y450D02*
X7Y450D01*
X153Y450D02*
X158Y450D01*
X745Y450D02*
X752Y450D01*
X799Y450D02*
X806Y450D01*
X0Y449D02*
X7Y449D01*
X153Y449D02*
X158Y449D01*
X745Y449D02*
X752Y449D01*
X799Y449D02*
X806Y449D01*
X0Y448D02*
X7Y448D01*
X153Y448D02*
X158Y448D01*
X745Y448D02*
X752Y448D01*
X799Y448D02*
X806Y448D01*
X0Y447D02*
X7Y447D01*
X153Y447D02*
X158Y447D01*
X745Y447D02*
X752Y447D01*
X799Y447D02*
X806Y447D01*
X0Y446D02*
X7Y446D01*
X153Y446D02*
X158Y446D01*
X745Y446D02*
X752Y446D01*
X799Y446D02*
X806Y446D01*
X0Y445D02*
X7Y445D01*
X153Y445D02*
X158Y445D01*
X745Y445D02*
X752Y445D01*
X799Y445D02*
X806Y445D01*
X0Y444D02*
X7Y444D01*
X153Y444D02*
X158Y444D01*
X745Y444D02*
X752Y444D01*
X799Y444D02*
X806Y444D01*
X0Y443D02*
X7Y443D01*
X153Y443D02*
X159Y443D01*
X745Y443D02*
X752Y443D01*
X799Y443D02*
X806Y443D01*
X0Y442D02*
X7Y442D01*
X153Y442D02*
X159Y442D01*
X745Y442D02*
X752Y442D01*
X799Y442D02*
X806Y442D01*
X0Y441D02*
X7Y441D01*
X153Y441D02*
X159Y441D01*
X745Y441D02*
X752Y441D01*
X799Y441D02*
X806Y441D01*
X0Y440D02*
X7Y440D01*
X153Y440D02*
X159Y440D01*
X745Y440D02*
X752Y440D01*
X799Y440D02*
X806Y440D01*
X0Y439D02*
X7Y439D01*
X153Y439D02*
X159Y439D01*
X745Y439D02*
X752Y439D01*
X799Y439D02*
X806Y439D01*
X0Y438D02*
X7Y438D01*
X153Y438D02*
X160Y438D01*
X745Y438D02*
X752Y438D01*
X799Y438D02*
X806Y438D01*
X0Y437D02*
X7Y437D01*
X153Y437D02*
X160Y437D01*
X745Y437D02*
X752Y437D01*
X799Y437D02*
X806Y437D01*
X0Y436D02*
X7Y436D01*
X153Y436D02*
X160Y436D01*
X745Y436D02*
X752Y436D01*
X799Y436D02*
X806Y436D01*
X0Y435D02*
X7Y435D01*
X153Y435D02*
X160Y435D01*
X745Y435D02*
X752Y435D01*
X799Y435D02*
X806Y435D01*
X0Y434D02*
X7Y434D01*
X153Y434D02*
X160Y434D01*
X745Y434D02*
X752Y434D01*
X799Y434D02*
X806Y434D01*
X0Y433D02*
X7Y433D01*
X153Y433D02*
X160Y433D01*
X745Y433D02*
X752Y433D01*
X799Y433D02*
X806Y433D01*
X0Y432D02*
X7Y432D01*
X153Y432D02*
X160Y432D01*
X745Y432D02*
X752Y432D01*
X799Y432D02*
X806Y432D01*
X0Y431D02*
X7Y431D01*
X153Y431D02*
X160Y431D01*
X577Y431D02*
X583Y431D01*
X745Y431D02*
X752Y431D01*
X799Y431D02*
X806Y431D01*
X0Y430D02*
X7Y430D01*
X153Y430D02*
X160Y430D01*
X576Y430D02*
X584Y430D01*
X745Y430D02*
X752Y430D01*
X799Y430D02*
X806Y430D01*
X0Y429D02*
X7Y429D01*
X153Y429D02*
X160Y429D01*
X575Y429D02*
X584Y429D01*
X745Y429D02*
X752Y429D01*
X799Y429D02*
X806Y429D01*
X0Y428D02*
X7Y428D01*
X153Y428D02*
X160Y428D01*
X260Y428D02*
X282Y428D01*
X316Y428D02*
X328Y428D01*
X465Y428D02*
X481Y428D01*
X575Y428D02*
X585Y428D01*
X745Y428D02*
X752Y428D01*
X799Y428D02*
X806Y428D01*
X0Y427D02*
X7Y427D01*
X153Y427D02*
X160Y427D01*
X260Y427D02*
X285Y427D01*
X315Y427D02*
X330Y427D01*
X464Y427D02*
X484Y427D01*
X575Y427D02*
X585Y427D01*
X745Y427D02*
X752Y427D01*
X799Y427D02*
X806Y427D01*
X0Y426D02*
X7Y426D01*
X153Y426D02*
X160Y426D01*
X260Y426D02*
X287Y426D01*
X314Y426D02*
X330Y426D01*
X463Y426D02*
X485Y426D01*
X575Y426D02*
X585Y426D01*
X745Y426D02*
X752Y426D01*
X799Y426D02*
X806Y426D01*
X0Y425D02*
X7Y425D01*
X153Y425D02*
X160Y425D01*
X260Y425D02*
X288Y425D01*
X314Y425D02*
X330Y425D01*
X463Y425D02*
X486Y425D01*
X575Y425D02*
X585Y425D01*
X745Y425D02*
X752Y425D01*
X799Y425D02*
X806Y425D01*
X0Y424D02*
X7Y424D01*
X153Y424D02*
X160Y424D01*
X260Y424D02*
X289Y424D01*
X314Y424D02*
X330Y424D01*
X463Y424D02*
X487Y424D01*
X575Y424D02*
X584Y424D01*
X745Y424D02*
X752Y424D01*
X799Y424D02*
X806Y424D01*
X0Y423D02*
X7Y423D01*
X153Y423D02*
X160Y423D01*
X260Y423D02*
X290Y423D01*
X314Y423D02*
X330Y423D01*
X464Y423D02*
X488Y423D01*
X576Y423D02*
X584Y423D01*
X745Y423D02*
X752Y423D01*
X799Y423D02*
X806Y423D01*
X0Y422D02*
X7Y422D01*
X153Y422D02*
X160Y422D01*
X260Y422D02*
X291Y422D01*
X315Y422D02*
X330Y422D01*
X465Y422D02*
X488Y422D01*
X577Y422D02*
X583Y422D01*
X745Y422D02*
X752Y422D01*
X799Y422D02*
X806Y422D01*
X0Y421D02*
X7Y421D01*
X153Y421D02*
X160Y421D01*
X260Y421D02*
X266Y421D01*
X282Y421D02*
X292Y421D01*
X324Y421D02*
X330Y421D01*
X470Y421D02*
X476Y421D01*
X481Y421D02*
X489Y421D01*
X745Y421D02*
X752Y421D01*
X799Y421D02*
X806Y421D01*
X0Y420D02*
X7Y420D01*
X153Y420D02*
X160Y420D01*
X260Y420D02*
X266Y420D01*
X284Y420D02*
X292Y420D01*
X324Y420D02*
X330Y420D01*
X470Y420D02*
X476Y420D01*
X482Y420D02*
X489Y420D01*
X745Y420D02*
X752Y420D01*
X799Y420D02*
X806Y420D01*
X0Y419D02*
X7Y419D01*
X153Y419D02*
X160Y419D01*
X260Y419D02*
X266Y419D01*
X285Y419D02*
X293Y419D01*
X324Y419D02*
X330Y419D01*
X470Y419D02*
X476Y419D01*
X483Y419D02*
X490Y419D01*
X745Y419D02*
X752Y419D01*
X799Y419D02*
X806Y419D01*
X0Y418D02*
X7Y418D01*
X153Y418D02*
X160Y418D01*
X260Y418D02*
X266Y418D01*
X286Y418D02*
X293Y418D01*
X324Y418D02*
X330Y418D01*
X470Y418D02*
X476Y418D01*
X483Y418D02*
X490Y418D01*
X745Y418D02*
X752Y418D01*
X799Y418D02*
X806Y418D01*
X0Y417D02*
X7Y417D01*
X153Y417D02*
X160Y417D01*
X260Y417D02*
X266Y417D01*
X287Y417D02*
X293Y417D01*
X324Y417D02*
X330Y417D01*
X470Y417D02*
X476Y417D01*
X484Y417D02*
X491Y417D01*
X745Y417D02*
X752Y417D01*
X799Y417D02*
X806Y417D01*
X0Y416D02*
X7Y416D01*
X153Y416D02*
X160Y416D01*
X260Y416D02*
X266Y416D01*
X287Y416D02*
X293Y416D01*
X324Y416D02*
X330Y416D01*
X470Y416D02*
X476Y416D01*
X484Y416D02*
X491Y416D01*
X745Y416D02*
X752Y416D01*
X799Y416D02*
X806Y416D01*
X0Y415D02*
X7Y415D01*
X153Y415D02*
X160Y415D01*
X260Y415D02*
X266Y415D01*
X287Y415D02*
X293Y415D01*
X324Y415D02*
X330Y415D01*
X470Y415D02*
X476Y415D01*
X485Y415D02*
X492Y415D01*
X745Y415D02*
X752Y415D01*
X799Y415D02*
X806Y415D01*
X0Y414D02*
X7Y414D01*
X153Y414D02*
X160Y414D01*
X260Y414D02*
X266Y414D01*
X287Y414D02*
X293Y414D01*
X324Y414D02*
X330Y414D01*
X470Y414D02*
X476Y414D01*
X485Y414D02*
X492Y414D01*
X745Y414D02*
X752Y414D01*
X799Y414D02*
X806Y414D01*
X0Y413D02*
X7Y413D01*
X153Y413D02*
X160Y413D01*
X260Y413D02*
X266Y413D01*
X287Y413D02*
X293Y413D01*
X324Y413D02*
X330Y413D01*
X363Y413D02*
X366Y413D01*
X391Y413D02*
X393Y413D01*
X422Y413D02*
X436Y413D01*
X470Y413D02*
X476Y413D01*
X486Y413D02*
X493Y413D01*
X516Y413D02*
X518Y413D01*
X543Y413D02*
X546Y413D01*
X570Y413D02*
X583Y413D01*
X617Y413D02*
X620Y413D01*
X632Y413D02*
X641Y413D01*
X676Y413D02*
X691Y413D01*
X745Y413D02*
X752Y413D01*
X799Y413D02*
X806Y413D01*
X0Y412D02*
X7Y412D01*
X153Y412D02*
X160Y412D01*
X260Y412D02*
X266Y412D01*
X287Y412D02*
X293Y412D01*
X324Y412D02*
X330Y412D01*
X362Y412D02*
X367Y412D01*
X390Y412D02*
X394Y412D01*
X420Y412D02*
X438Y412D01*
X470Y412D02*
X476Y412D01*
X486Y412D02*
X493Y412D01*
X515Y412D02*
X519Y412D01*
X542Y412D02*
X547Y412D01*
X569Y412D02*
X584Y412D01*
X616Y412D02*
X621Y412D01*
X630Y412D02*
X644Y412D01*
X674Y412D02*
X693Y412D01*
X745Y412D02*
X752Y412D01*
X799Y412D02*
X806Y412D01*
X0Y411D02*
X7Y411D01*
X153Y411D02*
X160Y411D01*
X260Y411D02*
X266Y411D01*
X287Y411D02*
X293Y411D01*
X324Y411D02*
X330Y411D01*
X361Y411D02*
X367Y411D01*
X389Y411D02*
X395Y411D01*
X418Y411D02*
X440Y411D01*
X470Y411D02*
X476Y411D01*
X487Y411D02*
X494Y411D01*
X514Y411D02*
X520Y411D01*
X542Y411D02*
X548Y411D01*
X568Y411D02*
X584Y411D01*
X616Y411D02*
X621Y411D01*
X628Y411D02*
X645Y411D01*
X673Y411D02*
X694Y411D01*
X745Y411D02*
X752Y411D01*
X799Y411D02*
X806Y411D01*
X0Y410D02*
X7Y410D01*
X153Y410D02*
X160Y410D01*
X260Y410D02*
X266Y410D01*
X287Y410D02*
X293Y410D01*
X324Y410D02*
X330Y410D01*
X361Y410D02*
X367Y410D01*
X389Y410D02*
X395Y410D01*
X417Y410D02*
X441Y410D01*
X470Y410D02*
X476Y410D01*
X487Y410D02*
X494Y410D01*
X514Y410D02*
X520Y410D01*
X542Y410D02*
X548Y410D01*
X568Y410D02*
X585Y410D01*
X616Y410D02*
X622Y410D01*
X626Y410D02*
X646Y410D01*
X671Y410D02*
X695Y410D01*
X745Y410D02*
X752Y410D01*
X799Y410D02*
X806Y410D01*
X0Y409D02*
X7Y409D01*
X153Y409D02*
X160Y409D01*
X260Y409D02*
X266Y409D01*
X287Y409D02*
X293Y409D01*
X324Y409D02*
X330Y409D01*
X361Y409D02*
X367Y409D01*
X389Y409D02*
X395Y409D01*
X416Y409D02*
X442Y409D01*
X470Y409D02*
X476Y409D01*
X488Y409D02*
X495Y409D01*
X514Y409D02*
X520Y409D01*
X542Y409D02*
X548Y409D01*
X568Y409D02*
X585Y409D01*
X616Y409D02*
X622Y409D01*
X625Y409D02*
X647Y409D01*
X670Y409D02*
X696Y409D01*
X745Y409D02*
X752Y409D01*
X799Y409D02*
X806Y409D01*
X0Y408D02*
X7Y408D01*
X153Y408D02*
X160Y408D01*
X260Y408D02*
X266Y408D01*
X286Y408D02*
X293Y408D01*
X324Y408D02*
X330Y408D01*
X361Y408D02*
X367Y408D01*
X389Y408D02*
X395Y408D01*
X415Y408D02*
X443Y408D01*
X470Y408D02*
X476Y408D01*
X488Y408D02*
X495Y408D01*
X514Y408D02*
X520Y408D01*
X542Y408D02*
X548Y408D01*
X569Y408D02*
X585Y408D01*
X616Y408D02*
X647Y408D01*
X669Y408D02*
X697Y408D01*
X745Y408D02*
X752Y408D01*
X799Y408D02*
X806Y408D01*
X0Y407D02*
X7Y407D01*
X153Y407D02*
X160Y407D01*
X260Y407D02*
X266Y407D01*
X285Y407D02*
X293Y407D01*
X324Y407D02*
X330Y407D01*
X361Y407D02*
X367Y407D01*
X389Y407D02*
X395Y407D01*
X414Y407D02*
X444Y407D01*
X470Y407D02*
X476Y407D01*
X489Y407D02*
X496Y407D01*
X514Y407D02*
X520Y407D01*
X542Y407D02*
X548Y407D01*
X570Y407D02*
X585Y407D01*
X616Y407D02*
X648Y407D01*
X668Y407D02*
X698Y407D01*
X745Y407D02*
X752Y407D01*
X799Y407D02*
X806Y407D01*
X0Y406D02*
X7Y406D01*
X153Y406D02*
X160Y406D01*
X260Y406D02*
X266Y406D01*
X284Y406D02*
X292Y406D01*
X324Y406D02*
X330Y406D01*
X361Y406D02*
X367Y406D01*
X389Y406D02*
X395Y406D01*
X414Y406D02*
X422Y406D01*
X436Y406D02*
X445Y406D01*
X470Y406D02*
X476Y406D01*
X489Y406D02*
X496Y406D01*
X514Y406D02*
X520Y406D01*
X542Y406D02*
X548Y406D01*
X579Y406D02*
X585Y406D01*
X616Y406D02*
X632Y406D01*
X641Y406D02*
X648Y406D01*
X668Y406D02*
X677Y406D01*
X690Y406D02*
X699Y406D01*
X745Y406D02*
X752Y406D01*
X799Y406D02*
X806Y406D01*
X0Y405D02*
X7Y405D01*
X153Y405D02*
X160Y405D01*
X260Y405D02*
X266Y405D01*
X282Y405D02*
X292Y405D01*
X324Y405D02*
X330Y405D01*
X361Y405D02*
X367Y405D01*
X389Y405D02*
X395Y405D01*
X413Y405D02*
X421Y405D01*
X437Y405D02*
X445Y405D01*
X470Y405D02*
X476Y405D01*
X490Y405D02*
X496Y405D01*
X514Y405D02*
X520Y405D01*
X542Y405D02*
X548Y405D01*
X579Y405D02*
X585Y405D01*
X616Y405D02*
X631Y405D01*
X642Y405D02*
X648Y405D01*
X667Y405D02*
X675Y405D01*
X692Y405D02*
X699Y405D01*
X745Y405D02*
X752Y405D01*
X799Y405D02*
X806Y405D01*
X0Y404D02*
X7Y404D01*
X153Y404D02*
X160Y404D01*
X260Y404D02*
X291Y404D01*
X324Y404D02*
X330Y404D01*
X361Y404D02*
X368Y404D01*
X389Y404D02*
X395Y404D01*
X413Y404D02*
X420Y404D01*
X438Y404D02*
X445Y404D01*
X470Y404D02*
X476Y404D01*
X490Y404D02*
X497Y404D01*
X514Y404D02*
X520Y404D01*
X542Y404D02*
X548Y404D01*
X579Y404D02*
X585Y404D01*
X616Y404D02*
X629Y404D01*
X642Y404D02*
X648Y404D01*
X667Y404D02*
X674Y404D01*
X693Y404D02*
X700Y404D01*
X745Y404D02*
X752Y404D01*
X799Y404D02*
X806Y404D01*
X0Y403D02*
X7Y403D01*
X153Y403D02*
X160Y403D01*
X260Y403D02*
X290Y403D01*
X324Y403D02*
X330Y403D01*
X362Y403D02*
X368Y403D01*
X389Y403D02*
X395Y403D01*
X412Y403D02*
X419Y403D01*
X439Y403D02*
X446Y403D01*
X470Y403D02*
X476Y403D01*
X491Y403D02*
X497Y403D01*
X514Y403D02*
X520Y403D01*
X542Y403D02*
X548Y403D01*
X579Y403D02*
X585Y403D01*
X616Y403D02*
X628Y403D01*
X642Y403D02*
X649Y403D01*
X667Y403D02*
X673Y403D01*
X693Y403D02*
X700Y403D01*
X745Y403D02*
X752Y403D01*
X799Y403D02*
X806Y403D01*
X0Y402D02*
X7Y402D01*
X153Y402D02*
X160Y402D01*
X260Y402D02*
X289Y402D01*
X324Y402D02*
X330Y402D01*
X362Y402D02*
X368Y402D01*
X389Y402D02*
X395Y402D01*
X412Y402D02*
X418Y402D01*
X440Y402D02*
X446Y402D01*
X470Y402D02*
X476Y402D01*
X491Y402D02*
X497Y402D01*
X514Y402D02*
X520Y402D01*
X542Y402D02*
X548Y402D01*
X579Y402D02*
X585Y402D01*
X616Y402D02*
X626Y402D01*
X642Y402D02*
X649Y402D01*
X667Y402D02*
X673Y402D01*
X694Y402D02*
X700Y402D01*
X745Y402D02*
X752Y402D01*
X799Y402D02*
X806Y402D01*
X0Y401D02*
X7Y401D01*
X153Y401D02*
X160Y401D01*
X260Y401D02*
X289Y401D01*
X324Y401D02*
X330Y401D01*
X362Y401D02*
X368Y401D01*
X389Y401D02*
X395Y401D01*
X412Y401D02*
X418Y401D01*
X440Y401D02*
X446Y401D01*
X470Y401D02*
X476Y401D01*
X491Y401D02*
X497Y401D01*
X514Y401D02*
X520Y401D01*
X542Y401D02*
X548Y401D01*
X579Y401D02*
X585Y401D01*
X616Y401D02*
X624Y401D01*
X643Y401D02*
X649Y401D01*
X666Y401D02*
X673Y401D01*
X694Y401D02*
X700Y401D01*
X745Y401D02*
X752Y401D01*
X799Y401D02*
X806Y401D01*
X0Y400D02*
X7Y400D01*
X153Y400D02*
X160Y400D01*
X260Y400D02*
X290Y400D01*
X324Y400D02*
X330Y400D01*
X362Y400D02*
X368Y400D01*
X389Y400D02*
X395Y400D01*
X412Y400D02*
X418Y400D01*
X440Y400D02*
X446Y400D01*
X470Y400D02*
X476Y400D01*
X491Y400D02*
X497Y400D01*
X514Y400D02*
X520Y400D01*
X542Y400D02*
X548Y400D01*
X579Y400D02*
X585Y400D01*
X616Y400D02*
X623Y400D01*
X643Y400D02*
X649Y400D01*
X666Y400D02*
X673Y400D01*
X694Y400D02*
X700Y400D01*
X745Y400D02*
X752Y400D01*
X799Y400D02*
X806Y400D01*
X0Y399D02*
X7Y399D01*
X153Y399D02*
X160Y399D01*
X260Y399D02*
X291Y399D01*
X324Y399D02*
X330Y399D01*
X362Y399D02*
X368Y399D01*
X389Y399D02*
X395Y399D01*
X412Y399D02*
X418Y399D01*
X440Y399D02*
X446Y399D01*
X470Y399D02*
X476Y399D01*
X490Y399D02*
X497Y399D01*
X514Y399D02*
X520Y399D01*
X542Y399D02*
X548Y399D01*
X579Y399D02*
X585Y399D01*
X616Y399D02*
X622Y399D01*
X643Y399D02*
X649Y399D01*
X666Y399D02*
X673Y399D01*
X694Y399D02*
X700Y399D01*
X745Y399D02*
X752Y399D01*
X799Y399D02*
X806Y399D01*
X0Y398D02*
X7Y398D01*
X153Y398D02*
X160Y398D01*
X260Y398D02*
X291Y398D01*
X324Y398D02*
X330Y398D01*
X362Y398D02*
X368Y398D01*
X389Y398D02*
X395Y398D01*
X412Y398D02*
X418Y398D01*
X440Y398D02*
X446Y398D01*
X470Y398D02*
X476Y398D01*
X490Y398D02*
X496Y398D01*
X514Y398D02*
X520Y398D01*
X542Y398D02*
X548Y398D01*
X579Y398D02*
X585Y398D01*
X616Y398D02*
X622Y398D01*
X643Y398D02*
X649Y398D01*
X666Y398D02*
X673Y398D01*
X694Y398D02*
X700Y398D01*
X745Y398D02*
X752Y398D01*
X799Y398D02*
X806Y398D01*
X0Y397D02*
X7Y397D01*
X153Y397D02*
X160Y397D01*
X260Y397D02*
X266Y397D01*
X283Y397D02*
X292Y397D01*
X324Y397D02*
X330Y397D01*
X362Y397D02*
X368Y397D01*
X389Y397D02*
X395Y397D01*
X412Y397D02*
X418Y397D01*
X440Y397D02*
X446Y397D01*
X470Y397D02*
X476Y397D01*
X490Y397D02*
X496Y397D01*
X514Y397D02*
X520Y397D01*
X542Y397D02*
X548Y397D01*
X579Y397D02*
X585Y397D01*
X616Y397D02*
X622Y397D01*
X643Y397D02*
X649Y397D01*
X666Y397D02*
X673Y397D01*
X694Y397D02*
X700Y397D01*
X745Y397D02*
X752Y397D01*
X799Y397D02*
X806Y397D01*
X0Y396D02*
X7Y396D01*
X153Y396D02*
X160Y396D01*
X260Y396D02*
X266Y396D01*
X285Y396D02*
X292Y396D01*
X324Y396D02*
X330Y396D01*
X362Y396D02*
X368Y396D01*
X389Y396D02*
X395Y396D01*
X412Y396D02*
X418Y396D01*
X440Y396D02*
X446Y396D01*
X470Y396D02*
X476Y396D01*
X489Y396D02*
X496Y396D01*
X514Y396D02*
X520Y396D01*
X542Y396D02*
X548Y396D01*
X579Y396D02*
X585Y396D01*
X616Y396D02*
X622Y396D01*
X643Y396D02*
X649Y396D01*
X666Y396D02*
X673Y396D01*
X694Y396D02*
X700Y396D01*
X745Y396D02*
X752Y396D01*
X799Y396D02*
X806Y396D01*
X0Y395D02*
X7Y395D01*
X153Y395D02*
X160Y395D01*
X260Y395D02*
X266Y395D01*
X286Y395D02*
X293Y395D01*
X324Y395D02*
X330Y395D01*
X362Y395D02*
X368Y395D01*
X389Y395D02*
X395Y395D01*
X412Y395D02*
X446Y395D01*
X470Y395D02*
X476Y395D01*
X489Y395D02*
X495Y395D01*
X514Y395D02*
X520Y395D01*
X542Y395D02*
X548Y395D01*
X579Y395D02*
X585Y395D01*
X616Y395D02*
X622Y395D01*
X643Y395D02*
X649Y395D01*
X666Y395D02*
X673Y395D01*
X694Y395D02*
X700Y395D01*
X745Y395D02*
X752Y395D01*
X799Y395D02*
X806Y395D01*
X0Y394D02*
X7Y394D01*
X153Y394D02*
X160Y394D01*
X260Y394D02*
X266Y394D01*
X286Y394D02*
X293Y394D01*
X324Y394D02*
X330Y394D01*
X362Y394D02*
X368Y394D01*
X389Y394D02*
X395Y394D01*
X412Y394D02*
X446Y394D01*
X470Y394D02*
X476Y394D01*
X488Y394D02*
X495Y394D01*
X514Y394D02*
X520Y394D01*
X542Y394D02*
X548Y394D01*
X579Y394D02*
X585Y394D01*
X616Y394D02*
X622Y394D01*
X643Y394D02*
X649Y394D01*
X666Y394D02*
X673Y394D01*
X694Y394D02*
X700Y394D01*
X745Y394D02*
X752Y394D01*
X799Y394D02*
X806Y394D01*
X0Y393D02*
X7Y393D01*
X153Y393D02*
X160Y393D01*
X260Y393D02*
X266Y393D01*
X287Y393D02*
X293Y393D01*
X324Y393D02*
X330Y393D01*
X362Y393D02*
X368Y393D01*
X389Y393D02*
X395Y393D01*
X412Y393D02*
X446Y393D01*
X470Y393D02*
X476Y393D01*
X488Y393D02*
X495Y393D01*
X514Y393D02*
X520Y393D01*
X542Y393D02*
X548Y393D01*
X579Y393D02*
X585Y393D01*
X616Y393D02*
X622Y393D01*
X643Y393D02*
X649Y393D01*
X666Y393D02*
X673Y393D01*
X694Y393D02*
X700Y393D01*
X745Y393D02*
X752Y393D01*
X799Y393D02*
X806Y393D01*
X0Y392D02*
X7Y392D01*
X153Y392D02*
X160Y392D01*
X260Y392D02*
X266Y392D01*
X287Y392D02*
X293Y392D01*
X324Y392D02*
X330Y392D01*
X362Y392D02*
X368Y392D01*
X389Y392D02*
X395Y392D01*
X412Y392D02*
X446Y392D01*
X470Y392D02*
X476Y392D01*
X487Y392D02*
X494Y392D01*
X514Y392D02*
X521Y392D01*
X542Y392D02*
X548Y392D01*
X579Y392D02*
X585Y392D01*
X616Y392D02*
X622Y392D01*
X643Y392D02*
X649Y392D01*
X666Y392D02*
X673Y392D01*
X694Y392D02*
X700Y392D01*
X745Y392D02*
X752Y392D01*
X799Y392D02*
X806Y392D01*
X0Y391D02*
X7Y391D01*
X153Y391D02*
X160Y391D01*
X260Y391D02*
X266Y391D01*
X287Y391D02*
X293Y391D01*
X324Y391D02*
X330Y391D01*
X362Y391D02*
X368Y391D01*
X389Y391D02*
X395Y391D01*
X412Y391D02*
X446Y391D01*
X470Y391D02*
X476Y391D01*
X487Y391D02*
X494Y391D01*
X514Y391D02*
X521Y391D01*
X542Y391D02*
X548Y391D01*
X579Y391D02*
X585Y391D01*
X616Y391D02*
X622Y391D01*
X643Y391D02*
X649Y391D01*
X666Y391D02*
X673Y391D01*
X694Y391D02*
X700Y391D01*
X745Y391D02*
X752Y391D01*
X799Y391D02*
X806Y391D01*
X0Y390D02*
X7Y390D01*
X153Y390D02*
X160Y390D01*
X260Y390D02*
X266Y390D01*
X287Y390D02*
X293Y390D01*
X324Y390D02*
X330Y390D01*
X362Y390D02*
X368Y390D01*
X389Y390D02*
X395Y390D01*
X412Y390D02*
X445Y390D01*
X470Y390D02*
X476Y390D01*
X486Y390D02*
X493Y390D01*
X515Y390D02*
X521Y390D01*
X542Y390D02*
X548Y390D01*
X579Y390D02*
X585Y390D01*
X616Y390D02*
X622Y390D01*
X643Y390D02*
X649Y390D01*
X666Y390D02*
X673Y390D01*
X694Y390D02*
X700Y390D01*
X745Y390D02*
X752Y390D01*
X799Y390D02*
X806Y390D01*
X0Y389D02*
X7Y389D01*
X153Y389D02*
X160Y389D01*
X260Y389D02*
X266Y389D01*
X287Y389D02*
X293Y389D01*
X324Y389D02*
X330Y389D01*
X362Y389D02*
X368Y389D01*
X389Y389D02*
X395Y389D01*
X412Y389D02*
X444Y389D01*
X470Y389D02*
X476Y389D01*
X486Y389D02*
X493Y389D01*
X515Y389D02*
X521Y389D01*
X542Y389D02*
X548Y389D01*
X579Y389D02*
X585Y389D01*
X616Y389D02*
X622Y389D01*
X643Y389D02*
X649Y389D01*
X666Y389D02*
X673Y389D01*
X694Y389D02*
X700Y389D01*
X745Y389D02*
X752Y389D01*
X799Y389D02*
X806Y389D01*
X0Y388D02*
X7Y388D01*
X153Y388D02*
X160Y388D01*
X260Y388D02*
X266Y388D01*
X287Y388D02*
X293Y388D01*
X324Y388D02*
X330Y388D01*
X362Y388D02*
X368Y388D01*
X389Y388D02*
X395Y388D01*
X412Y388D02*
X418Y388D01*
X470Y388D02*
X476Y388D01*
X485Y388D02*
X492Y388D01*
X515Y388D02*
X521Y388D01*
X541Y388D02*
X548Y388D01*
X579Y388D02*
X585Y388D01*
X616Y388D02*
X622Y388D01*
X643Y388D02*
X649Y388D01*
X666Y388D02*
X673Y388D01*
X694Y388D02*
X700Y388D01*
X745Y388D02*
X752Y388D01*
X799Y388D02*
X806Y388D01*
X0Y387D02*
X7Y387D01*
X153Y387D02*
X160Y387D01*
X260Y387D02*
X266Y387D01*
X287Y387D02*
X293Y387D01*
X324Y387D02*
X330Y387D01*
X362Y387D02*
X368Y387D01*
X387Y387D02*
X395Y387D01*
X412Y387D02*
X418Y387D01*
X470Y387D02*
X476Y387D01*
X485Y387D02*
X492Y387D01*
X515Y387D02*
X521Y387D01*
X540Y387D02*
X548Y387D01*
X579Y387D02*
X585Y387D01*
X616Y387D02*
X622Y387D01*
X643Y387D02*
X649Y387D01*
X666Y387D02*
X673Y387D01*
X694Y387D02*
X700Y387D01*
X745Y387D02*
X752Y387D01*
X799Y387D02*
X806Y387D01*
X0Y386D02*
X7Y386D01*
X153Y386D02*
X160Y386D01*
X260Y386D02*
X266Y386D01*
X287Y386D02*
X293Y386D01*
X324Y386D02*
X330Y386D01*
X362Y386D02*
X368Y386D01*
X386Y386D02*
X395Y386D01*
X412Y386D02*
X418Y386D01*
X470Y386D02*
X476Y386D01*
X484Y386D02*
X491Y386D01*
X515Y386D02*
X521Y386D01*
X538Y386D02*
X548Y386D01*
X579Y386D02*
X585Y386D01*
X616Y386D02*
X622Y386D01*
X643Y386D02*
X649Y386D01*
X667Y386D02*
X673Y386D01*
X694Y386D02*
X700Y386D01*
X745Y386D02*
X752Y386D01*
X799Y386D02*
X806Y386D01*
X0Y385D02*
X7Y385D01*
X153Y385D02*
X160Y385D01*
X260Y385D02*
X266Y385D01*
X287Y385D02*
X293Y385D01*
X324Y385D02*
X330Y385D01*
X362Y385D02*
X368Y385D01*
X384Y385D02*
X395Y385D01*
X412Y385D02*
X419Y385D01*
X470Y385D02*
X476Y385D01*
X484Y385D02*
X491Y385D01*
X515Y385D02*
X521Y385D01*
X537Y385D02*
X548Y385D01*
X579Y385D02*
X585Y385D01*
X616Y385D02*
X622Y385D01*
X643Y385D02*
X649Y385D01*
X667Y385D02*
X673Y385D01*
X694Y385D02*
X700Y385D01*
X745Y385D02*
X752Y385D01*
X799Y385D02*
X806Y385D01*
X0Y384D02*
X7Y384D01*
X153Y384D02*
X160Y384D01*
X260Y384D02*
X266Y384D01*
X286Y384D02*
X293Y384D01*
X324Y384D02*
X330Y384D01*
X362Y384D02*
X368Y384D01*
X382Y384D02*
X395Y384D01*
X412Y384D02*
X419Y384D01*
X470Y384D02*
X476Y384D01*
X483Y384D02*
X490Y384D01*
X515Y384D02*
X521Y384D01*
X535Y384D02*
X548Y384D01*
X579Y384D02*
X585Y384D01*
X616Y384D02*
X622Y384D01*
X643Y384D02*
X649Y384D01*
X667Y384D02*
X674Y384D01*
X693Y384D02*
X700Y384D01*
X709Y384D02*
X711Y384D01*
X721Y384D02*
X730Y384D01*
X745Y384D02*
X752Y384D01*
X799Y384D02*
X806Y384D01*
X0Y383D02*
X7Y383D01*
X153Y383D02*
X160Y383D01*
X260Y383D02*
X266Y383D01*
X285Y383D02*
X292Y383D01*
X324Y383D02*
X330Y383D01*
X362Y383D02*
X369Y383D01*
X381Y383D02*
X395Y383D01*
X413Y383D02*
X420Y383D01*
X470Y383D02*
X476Y383D01*
X483Y383D02*
X490Y383D01*
X515Y383D02*
X521Y383D01*
X533Y383D02*
X548Y383D01*
X579Y383D02*
X585Y383D01*
X616Y383D02*
X622Y383D01*
X643Y383D02*
X649Y383D01*
X667Y383D02*
X675Y383D01*
X692Y383D02*
X700Y383D01*
X709Y383D02*
X711Y383D01*
X721Y383D02*
X730Y383D01*
X745Y383D02*
X752Y383D01*
X799Y383D02*
X806Y383D01*
X0Y382D02*
X7Y382D01*
X153Y382D02*
X160Y382D01*
X260Y382D02*
X266Y382D01*
X284Y382D02*
X292Y382D01*
X324Y382D02*
X330Y382D01*
X362Y382D02*
X369Y382D01*
X379Y382D02*
X395Y382D01*
X413Y382D02*
X422Y382D01*
X470Y382D02*
X476Y382D01*
X482Y382D02*
X489Y382D01*
X515Y382D02*
X522Y382D01*
X532Y382D02*
X548Y382D01*
X579Y382D02*
X585Y382D01*
X616Y382D02*
X622Y382D01*
X643Y382D02*
X649Y382D01*
X667Y382D02*
X676Y382D01*
X691Y382D02*
X699Y382D01*
X709Y382D02*
X711Y382D01*
X721Y382D02*
X730Y382D01*
X745Y382D02*
X752Y382D01*
X799Y382D02*
X806Y382D01*
X0Y381D02*
X7Y381D01*
X153Y381D02*
X160Y381D01*
X260Y381D02*
X266Y381D01*
X281Y381D02*
X291Y381D01*
X324Y381D02*
X331Y381D01*
X363Y381D02*
X371Y381D01*
X378Y381D02*
X395Y381D01*
X414Y381D02*
X424Y381D01*
X470Y381D02*
X476Y381D01*
X480Y381D02*
X489Y381D01*
X515Y381D02*
X524Y381D01*
X530Y381D02*
X548Y381D01*
X578Y381D02*
X585Y381D01*
X616Y381D02*
X622Y381D01*
X643Y381D02*
X649Y381D01*
X668Y381D02*
X678Y381D01*
X689Y381D02*
X699Y381D01*
X709Y381D02*
X711Y381D01*
X727Y381D02*
X730Y381D01*
X745Y381D02*
X752Y381D01*
X799Y381D02*
X806Y381D01*
X0Y380D02*
X7Y380D01*
X153Y380D02*
X160Y380D01*
X260Y380D02*
X291Y380D01*
X315Y380D02*
X340Y380D01*
X363Y380D02*
X395Y380D01*
X414Y380D02*
X445Y380D01*
X464Y380D02*
X488Y380D01*
X516Y380D02*
X548Y380D01*
X569Y380D02*
X594Y380D01*
X616Y380D02*
X622Y380D01*
X643Y380D02*
X649Y380D01*
X669Y380D02*
X698Y380D01*
X709Y380D02*
X711Y380D01*
X728Y380D02*
X730Y380D01*
X745Y380D02*
X752Y380D01*
X799Y380D02*
X806Y380D01*
X0Y379D02*
X7Y379D01*
X153Y379D02*
X160Y379D01*
X260Y379D02*
X290Y379D01*
X314Y379D02*
X340Y379D01*
X364Y379D02*
X387Y379D01*
X389Y379D02*
X395Y379D01*
X415Y379D02*
X446Y379D01*
X463Y379D02*
X488Y379D01*
X516Y379D02*
X539Y379D01*
X542Y379D02*
X548Y379D01*
X569Y379D02*
X595Y379D01*
X616Y379D02*
X622Y379D01*
X643Y379D02*
X649Y379D01*
X670Y379D02*
X697Y379D01*
X709Y379D02*
X711Y379D01*
X728Y379D02*
X730Y379D01*
X745Y379D02*
X752Y379D01*
X799Y379D02*
X806Y379D01*
X0Y378D02*
X7Y378D01*
X153Y378D02*
X160Y378D01*
X260Y378D02*
X289Y378D01*
X314Y378D02*
X341Y378D01*
X364Y378D02*
X385Y378D01*
X389Y378D02*
X395Y378D01*
X416Y378D02*
X446Y378D01*
X463Y378D02*
X487Y378D01*
X517Y378D02*
X538Y378D01*
X542Y378D02*
X548Y378D01*
X568Y378D02*
X595Y378D01*
X616Y378D02*
X622Y378D01*
X643Y378D02*
X649Y378D01*
X671Y378D02*
X697Y378D01*
X709Y378D02*
X711Y378D01*
X728Y378D02*
X730Y378D01*
X745Y378D02*
X752Y378D01*
X799Y378D02*
X806Y378D01*
X0Y377D02*
X7Y377D01*
X153Y377D02*
X160Y377D01*
X260Y377D02*
X288Y377D01*
X314Y377D02*
X341Y377D01*
X365Y377D02*
X384Y377D01*
X389Y377D02*
X395Y377D01*
X418Y377D02*
X446Y377D01*
X463Y377D02*
X486Y377D01*
X518Y377D02*
X536Y377D01*
X542Y377D02*
X548Y377D01*
X568Y377D02*
X595Y377D01*
X616Y377D02*
X622Y377D01*
X643Y377D02*
X649Y377D01*
X672Y377D02*
X697Y377D01*
X709Y377D02*
X711Y377D01*
X728Y377D02*
X730Y377D01*
X745Y377D02*
X752Y377D01*
X799Y377D02*
X806Y377D01*
X0Y376D02*
X7Y376D01*
X153Y376D02*
X160Y376D01*
X260Y376D02*
X287Y376D01*
X314Y376D02*
X340Y376D01*
X366Y376D02*
X382Y376D01*
X389Y376D02*
X395Y376D01*
X419Y376D02*
X446Y376D01*
X463Y376D02*
X485Y376D01*
X519Y376D02*
X535Y376D01*
X542Y376D02*
X547Y376D01*
X569Y376D02*
X595Y376D01*
X616Y376D02*
X621Y376D01*
X644Y376D02*
X649Y376D01*
X673Y376D02*
X697Y376D01*
X708Y376D02*
X711Y376D01*
X728Y376D02*
X730Y376D01*
X745Y376D02*
X752Y376D01*
X799Y376D02*
X806Y376D01*
X0Y375D02*
X7Y375D01*
X153Y375D02*
X160Y375D01*
X260Y375D02*
X285Y375D01*
X315Y375D02*
X340Y375D01*
X368Y375D02*
X380Y375D01*
X390Y375D02*
X394Y375D01*
X420Y375D02*
X445Y375D01*
X464Y375D02*
X483Y375D01*
X521Y375D02*
X533Y375D01*
X543Y375D02*
X547Y375D01*
X569Y375D02*
X594Y375D01*
X617Y375D02*
X621Y375D01*
X644Y375D02*
X648Y375D01*
X675Y375D02*
X692Y375D01*
X695Y375D02*
X698Y375D01*
X708Y375D02*
X711Y375D01*
X728Y375D02*
X730Y375D01*
X745Y375D02*
X752Y375D01*
X799Y375D02*
X806Y375D01*
X0Y374D02*
X7Y374D01*
X153Y374D02*
X160Y374D01*
X260Y374D02*
X281Y374D01*
X317Y374D02*
X338Y374D01*
X371Y374D02*
X377Y374D01*
X392Y374D02*
X392Y374D01*
X424Y374D02*
X443Y374D01*
X466Y374D02*
X480Y374D01*
X524Y374D02*
X530Y374D01*
X545Y374D02*
X545Y374D01*
X571Y374D02*
X592Y374D01*
X618Y374D02*
X619Y374D01*
X646Y374D02*
X646Y374D01*
X678Y374D02*
X689Y374D01*
X695Y374D02*
X698Y374D01*
X708Y374D02*
X710Y374D01*
X728Y374D02*
X730Y374D01*
X745Y374D02*
X752Y374D01*
X799Y374D02*
X806Y374D01*
X0Y373D02*
X7Y373D01*
X153Y373D02*
X160Y373D01*
X696Y373D02*
X699Y373D01*
X707Y373D02*
X710Y373D01*
X728Y373D02*
X730Y373D01*
X745Y373D02*
X752Y373D01*
X799Y373D02*
X806Y373D01*
X0Y372D02*
X7Y372D01*
X153Y372D02*
X160Y372D01*
X696Y372D02*
X699Y372D01*
X707Y372D02*
X710Y372D01*
X728Y372D02*
X730Y372D01*
X745Y372D02*
X752Y372D01*
X799Y372D02*
X806Y372D01*
X0Y371D02*
X7Y371D01*
X153Y371D02*
X160Y371D01*
X696Y371D02*
X699Y371D01*
X706Y371D02*
X709Y371D01*
X728Y371D02*
X730Y371D01*
X745Y371D02*
X752Y371D01*
X799Y371D02*
X806Y371D01*
X0Y370D02*
X7Y370D01*
X153Y370D02*
X160Y370D01*
X697Y370D02*
X700Y370D01*
X706Y370D02*
X709Y370D01*
X728Y370D02*
X730Y370D01*
X745Y370D02*
X752Y370D01*
X799Y370D02*
X806Y370D01*
X0Y369D02*
X7Y369D01*
X153Y369D02*
X160Y369D01*
X697Y369D02*
X700Y369D01*
X706Y369D02*
X709Y369D01*
X728Y369D02*
X730Y369D01*
X736Y369D02*
X737Y369D01*
X745Y369D02*
X752Y369D01*
X799Y369D02*
X806Y369D01*
X0Y368D02*
X7Y368D01*
X153Y368D02*
X160Y368D01*
X698Y368D02*
X701Y368D01*
X705Y368D02*
X708Y368D01*
X728Y368D02*
X730Y368D01*
X735Y368D02*
X738Y368D01*
X745Y368D02*
X752Y368D01*
X799Y368D02*
X806Y368D01*
X0Y367D02*
X7Y367D01*
X153Y367D02*
X160Y367D01*
X698Y367D02*
X701Y367D01*
X705Y367D02*
X708Y367D01*
X728Y367D02*
X730Y367D01*
X735Y367D02*
X738Y367D01*
X745Y367D02*
X752Y367D01*
X799Y367D02*
X806Y367D01*
X0Y366D02*
X7Y366D01*
X153Y366D02*
X160Y366D01*
X698Y366D02*
X701Y366D01*
X704Y366D02*
X707Y366D01*
X728Y366D02*
X730Y366D01*
X735Y366D02*
X738Y366D01*
X745Y366D02*
X752Y366D01*
X799Y366D02*
X806Y366D01*
X0Y365D02*
X7Y365D01*
X153Y365D02*
X160Y365D01*
X699Y365D02*
X702Y365D01*
X704Y365D02*
X707Y365D01*
X728Y365D02*
X730Y365D01*
X735Y365D02*
X738Y365D01*
X745Y365D02*
X752Y365D01*
X799Y365D02*
X806Y365D01*
X0Y364D02*
X7Y364D01*
X153Y364D02*
X160Y364D01*
X699Y364D02*
X707Y364D01*
X728Y364D02*
X730Y364D01*
X735Y364D02*
X738Y364D01*
X745Y364D02*
X752Y364D01*
X799Y364D02*
X806Y364D01*
X0Y363D02*
X7Y363D01*
X153Y363D02*
X160Y363D01*
X700Y363D02*
X706Y363D01*
X728Y363D02*
X730Y363D01*
X735Y363D02*
X738Y363D01*
X745Y363D02*
X752Y363D01*
X799Y363D02*
X806Y363D01*
X0Y362D02*
X7Y362D01*
X153Y362D02*
X160Y362D01*
X700Y362D02*
X706Y362D01*
X728Y362D02*
X730Y362D01*
X735Y362D02*
X738Y362D01*
X745Y362D02*
X752Y362D01*
X799Y362D02*
X806Y362D01*
X0Y361D02*
X7Y361D01*
X153Y361D02*
X159Y361D01*
X700Y361D02*
X705Y361D01*
X728Y361D02*
X730Y361D01*
X735Y361D02*
X738Y361D01*
X745Y361D02*
X752Y361D01*
X799Y361D02*
X806Y361D01*
X0Y360D02*
X7Y360D01*
X153Y360D02*
X159Y360D01*
X701Y360D02*
X705Y360D01*
X722Y360D02*
X738Y360D01*
X745Y360D02*
X752Y360D01*
X799Y360D02*
X806Y360D01*
X0Y359D02*
X7Y359D01*
X153Y359D02*
X159Y359D01*
X701Y359D02*
X705Y359D01*
X721Y359D02*
X738Y359D01*
X745Y359D02*
X752Y359D01*
X799Y359D02*
X806Y359D01*
X0Y358D02*
X7Y358D01*
X153Y358D02*
X159Y358D01*
X701Y358D02*
X704Y358D01*
X721Y358D02*
X738Y358D01*
X745Y358D02*
X752Y358D01*
X799Y358D02*
X806Y358D01*
X0Y357D02*
X7Y357D01*
X153Y357D02*
X158Y357D01*
X702Y357D02*
X704Y357D01*
X721Y357D02*
X737Y357D01*
X745Y357D02*
X752Y357D01*
X799Y357D02*
X806Y357D01*
X0Y356D02*
X7Y356D01*
X153Y356D02*
X158Y356D01*
X745Y356D02*
X752Y356D01*
X799Y356D02*
X806Y356D01*
X0Y355D02*
X7Y355D01*
X153Y355D02*
X158Y355D01*
X745Y355D02*
X752Y355D01*
X799Y355D02*
X806Y355D01*
X0Y354D02*
X7Y354D01*
X152Y354D02*
X158Y354D01*
X247Y354D02*
X253Y354D01*
X745Y354D02*
X752Y354D01*
X799Y354D02*
X806Y354D01*
X0Y353D02*
X7Y353D01*
X150Y353D02*
X158Y353D01*
X247Y353D02*
X255Y353D01*
X745Y353D02*
X752Y353D01*
X799Y353D02*
X806Y353D01*
X0Y352D02*
X7Y352D01*
X149Y352D02*
X158Y352D01*
X247Y352D02*
X255Y352D01*
X745Y352D02*
X752Y352D01*
X799Y352D02*
X806Y352D01*
X0Y351D02*
X7Y351D01*
X149Y351D02*
X158Y351D01*
X247Y351D02*
X256Y351D01*
X745Y351D02*
X752Y351D01*
X799Y351D02*
X806Y351D01*
X0Y350D02*
X7Y350D01*
X149Y350D02*
X158Y350D01*
X247Y350D02*
X256Y350D01*
X745Y350D02*
X752Y350D01*
X799Y350D02*
X806Y350D01*
X0Y349D02*
X7Y349D01*
X149Y349D02*
X158Y349D01*
X247Y349D02*
X256Y349D01*
X745Y349D02*
X752Y349D01*
X799Y349D02*
X806Y349D01*
X0Y348D02*
X7Y348D01*
X150Y348D02*
X158Y348D01*
X247Y348D02*
X255Y348D01*
X745Y348D02*
X752Y348D01*
X799Y348D02*
X806Y348D01*
X0Y347D02*
X7Y347D01*
X150Y347D02*
X158Y347D01*
X247Y347D02*
X254Y347D01*
X745Y347D02*
X752Y347D01*
X799Y347D02*
X806Y347D01*
X0Y346D02*
X7Y346D01*
X153Y346D02*
X158Y346D01*
X745Y346D02*
X752Y346D01*
X799Y346D02*
X806Y346D01*
X0Y345D02*
X7Y345D01*
X153Y345D02*
X158Y345D01*
X745Y345D02*
X752Y345D01*
X799Y345D02*
X806Y345D01*
X0Y344D02*
X7Y344D01*
X153Y344D02*
X158Y344D01*
X745Y344D02*
X752Y344D01*
X799Y344D02*
X806Y344D01*
X0Y343D02*
X7Y343D01*
X153Y343D02*
X159Y343D01*
X745Y343D02*
X752Y343D01*
X799Y343D02*
X806Y343D01*
X0Y342D02*
X7Y342D01*
X153Y342D02*
X159Y342D01*
X745Y342D02*
X752Y342D01*
X799Y342D02*
X806Y342D01*
X0Y341D02*
X7Y341D01*
X153Y341D02*
X159Y341D01*
X745Y341D02*
X752Y341D01*
X799Y341D02*
X806Y341D01*
X0Y340D02*
X7Y340D01*
X153Y340D02*
X159Y340D01*
X745Y340D02*
X752Y340D01*
X799Y340D02*
X806Y340D01*
X0Y339D02*
X7Y339D01*
X153Y339D02*
X159Y339D01*
X745Y339D02*
X752Y339D01*
X799Y339D02*
X806Y339D01*
X0Y338D02*
X7Y338D01*
X153Y338D02*
X160Y338D01*
X745Y338D02*
X752Y338D01*
X799Y338D02*
X806Y338D01*
X0Y337D02*
X7Y337D01*
X153Y337D02*
X160Y337D01*
X745Y337D02*
X752Y337D01*
X799Y337D02*
X806Y337D01*
X0Y336D02*
X7Y336D01*
X153Y336D02*
X160Y336D01*
X745Y336D02*
X752Y336D01*
X799Y336D02*
X806Y336D01*
X0Y335D02*
X7Y335D01*
X153Y335D02*
X160Y335D01*
X745Y335D02*
X752Y335D01*
X799Y335D02*
X806Y335D01*
X0Y334D02*
X7Y334D01*
X153Y334D02*
X160Y334D01*
X745Y334D02*
X752Y334D01*
X799Y334D02*
X806Y334D01*
X0Y333D02*
X7Y333D01*
X153Y333D02*
X160Y333D01*
X745Y333D02*
X752Y333D01*
X799Y333D02*
X806Y333D01*
X0Y332D02*
X7Y332D01*
X153Y332D02*
X160Y332D01*
X745Y332D02*
X752Y332D01*
X799Y332D02*
X806Y332D01*
X0Y331D02*
X7Y331D01*
X153Y331D02*
X160Y331D01*
X337Y331D02*
X364Y331D01*
X492Y331D02*
X506Y331D01*
X588Y331D02*
X592Y331D01*
X616Y331D02*
X619Y331D01*
X745Y331D02*
X752Y331D01*
X799Y331D02*
X806Y331D01*
X0Y330D02*
X7Y330D01*
X153Y330D02*
X160Y330D01*
X337Y330D02*
X366Y330D01*
X491Y330D02*
X506Y330D01*
X587Y330D02*
X593Y330D01*
X615Y330D02*
X620Y330D01*
X745Y330D02*
X752Y330D01*
X799Y330D02*
X806Y330D01*
X0Y329D02*
X7Y329D01*
X153Y329D02*
X160Y329D01*
X337Y329D02*
X367Y329D01*
X490Y329D02*
X507Y329D01*
X587Y329D02*
X593Y329D01*
X615Y329D02*
X620Y329D01*
X745Y329D02*
X752Y329D01*
X799Y329D02*
X806Y329D01*
X0Y328D02*
X7Y328D01*
X153Y328D02*
X160Y328D01*
X337Y328D02*
X368Y328D01*
X490Y328D02*
X507Y328D01*
X587Y328D02*
X593Y328D01*
X614Y328D02*
X621Y328D01*
X745Y328D02*
X752Y328D01*
X799Y328D02*
X806Y328D01*
X0Y327D02*
X7Y327D01*
X153Y327D02*
X160Y327D01*
X337Y327D02*
X369Y327D01*
X491Y327D02*
X507Y327D01*
X587Y327D02*
X593Y327D01*
X614Y327D02*
X621Y327D01*
X745Y327D02*
X752Y327D01*
X799Y327D02*
X806Y327D01*
X0Y326D02*
X7Y326D01*
X153Y326D02*
X160Y326D01*
X337Y326D02*
X369Y326D01*
X491Y326D02*
X507Y326D01*
X587Y326D02*
X593Y326D01*
X614Y326D02*
X621Y326D01*
X745Y326D02*
X752Y326D01*
X799Y326D02*
X806Y326D01*
X0Y325D02*
X7Y325D01*
X153Y325D02*
X160Y325D01*
X337Y325D02*
X370Y325D01*
X494Y325D02*
X507Y325D01*
X587Y325D02*
X593Y325D01*
X614Y325D02*
X621Y325D01*
X745Y325D02*
X752Y325D01*
X799Y325D02*
X806Y325D01*
X0Y324D02*
X7Y324D01*
X153Y324D02*
X160Y324D01*
X337Y324D02*
X343Y324D01*
X363Y324D02*
X370Y324D01*
X501Y324D02*
X507Y324D01*
X587Y324D02*
X593Y324D01*
X614Y324D02*
X621Y324D01*
X745Y324D02*
X752Y324D01*
X799Y324D02*
X806Y324D01*
X0Y323D02*
X7Y323D01*
X153Y323D02*
X160Y323D01*
X337Y323D02*
X343Y323D01*
X364Y323D02*
X370Y323D01*
X501Y323D02*
X507Y323D01*
X587Y323D02*
X593Y323D01*
X614Y323D02*
X621Y323D01*
X745Y323D02*
X752Y323D01*
X799Y323D02*
X806Y323D01*
X0Y322D02*
X7Y322D01*
X153Y322D02*
X160Y322D01*
X337Y322D02*
X343Y322D01*
X364Y322D02*
X371Y322D01*
X501Y322D02*
X507Y322D01*
X587Y322D02*
X593Y322D01*
X614Y322D02*
X621Y322D01*
X745Y322D02*
X752Y322D01*
X799Y322D02*
X806Y322D01*
X0Y321D02*
X7Y321D01*
X153Y321D02*
X160Y321D01*
X337Y321D02*
X343Y321D01*
X365Y321D02*
X371Y321D01*
X501Y321D02*
X507Y321D01*
X587Y321D02*
X593Y321D01*
X614Y321D02*
X621Y321D01*
X745Y321D02*
X752Y321D01*
X799Y321D02*
X806Y321D01*
X0Y320D02*
X7Y320D01*
X153Y320D02*
X160Y320D01*
X337Y320D02*
X343Y320D01*
X365Y320D02*
X371Y320D01*
X501Y320D02*
X507Y320D01*
X587Y320D02*
X593Y320D01*
X614Y320D02*
X621Y320D01*
X745Y320D02*
X752Y320D01*
X799Y320D02*
X806Y320D01*
X0Y319D02*
X7Y319D01*
X153Y319D02*
X160Y319D01*
X337Y319D02*
X343Y319D01*
X365Y319D02*
X371Y319D01*
X501Y319D02*
X507Y319D01*
X587Y319D02*
X593Y319D01*
X614Y319D02*
X621Y319D01*
X745Y319D02*
X752Y319D01*
X799Y319D02*
X806Y319D01*
X0Y318D02*
X7Y318D01*
X153Y318D02*
X160Y318D01*
X337Y318D02*
X343Y318D01*
X365Y318D02*
X371Y318D01*
X501Y318D02*
X507Y318D01*
X587Y318D02*
X593Y318D01*
X614Y318D02*
X621Y318D01*
X745Y318D02*
X752Y318D01*
X799Y318D02*
X806Y318D01*
X0Y317D02*
X7Y317D01*
X153Y317D02*
X160Y317D01*
X337Y317D02*
X343Y317D01*
X365Y317D02*
X371Y317D01*
X396Y317D02*
X411Y317D01*
X439Y317D02*
X441Y317D01*
X467Y317D02*
X468Y317D01*
X501Y317D02*
X507Y317D01*
X587Y317D02*
X593Y317D01*
X614Y317D02*
X621Y317D01*
X648Y317D02*
X660Y317D01*
X689Y317D02*
X691Y317D01*
X703Y317D02*
X712Y317D01*
X745Y317D02*
X752Y317D01*
X799Y317D02*
X806Y317D01*
X0Y316D02*
X7Y316D01*
X153Y316D02*
X160Y316D01*
X337Y316D02*
X343Y316D01*
X365Y316D02*
X371Y316D01*
X395Y316D02*
X414Y316D01*
X438Y316D02*
X442Y316D01*
X465Y316D02*
X470Y316D01*
X501Y316D02*
X507Y316D01*
X587Y316D02*
X593Y316D01*
X614Y316D02*
X620Y316D01*
X645Y316D02*
X662Y316D01*
X688Y316D02*
X692Y316D01*
X701Y316D02*
X715Y316D01*
X745Y316D02*
X752Y316D01*
X799Y316D02*
X806Y316D01*
X0Y315D02*
X7Y315D01*
X153Y315D02*
X160Y315D01*
X337Y315D02*
X343Y315D01*
X365Y315D02*
X371Y315D01*
X394Y315D02*
X416Y315D01*
X437Y315D02*
X443Y315D01*
X465Y315D02*
X470Y315D01*
X501Y315D02*
X507Y315D01*
X587Y315D02*
X594Y315D01*
X614Y315D02*
X620Y315D01*
X643Y315D02*
X664Y315D01*
X687Y315D02*
X693Y315D01*
X700Y315D02*
X716Y315D01*
X745Y315D02*
X752Y315D01*
X799Y315D02*
X806Y315D01*
X0Y314D02*
X7Y314D01*
X153Y314D02*
X160Y314D01*
X337Y314D02*
X343Y314D01*
X365Y314D02*
X371Y314D01*
X394Y314D02*
X417Y314D01*
X437Y314D02*
X443Y314D01*
X465Y314D02*
X470Y314D01*
X501Y314D02*
X507Y314D01*
X588Y314D02*
X594Y314D01*
X613Y314D02*
X620Y314D01*
X642Y314D02*
X665Y314D01*
X687Y314D02*
X693Y314D01*
X699Y314D02*
X718Y314D01*
X745Y314D02*
X752Y314D01*
X799Y314D02*
X806Y314D01*
X0Y313D02*
X7Y313D01*
X153Y313D02*
X160Y313D01*
X337Y313D02*
X343Y313D01*
X365Y313D02*
X371Y313D01*
X394Y313D02*
X418Y313D01*
X437Y313D02*
X443Y313D01*
X465Y313D02*
X471Y313D01*
X501Y313D02*
X507Y313D01*
X588Y313D02*
X595Y313D01*
X613Y313D02*
X619Y313D01*
X641Y313D02*
X666Y313D01*
X687Y313D02*
X693Y313D01*
X698Y313D02*
X718Y313D01*
X745Y313D02*
X752Y313D01*
X799Y313D02*
X806Y313D01*
X0Y312D02*
X7Y312D01*
X153Y312D02*
X160Y312D01*
X337Y312D02*
X343Y312D01*
X365Y312D02*
X371Y312D01*
X394Y312D02*
X418Y312D01*
X437Y312D02*
X443Y312D01*
X465Y312D02*
X471Y312D01*
X501Y312D02*
X507Y312D01*
X588Y312D02*
X595Y312D01*
X612Y312D02*
X619Y312D01*
X640Y312D02*
X667Y312D01*
X687Y312D02*
X693Y312D01*
X697Y312D02*
X719Y312D01*
X745Y312D02*
X752Y312D01*
X799Y312D02*
X806Y312D01*
X0Y311D02*
X7Y311D01*
X153Y311D02*
X160Y311D01*
X337Y311D02*
X343Y311D01*
X365Y311D02*
X371Y311D01*
X395Y311D02*
X419Y311D01*
X437Y311D02*
X443Y311D01*
X465Y311D02*
X471Y311D01*
X501Y311D02*
X507Y311D01*
X589Y311D02*
X595Y311D01*
X612Y311D02*
X619Y311D01*
X639Y311D02*
X668Y311D01*
X687Y311D02*
X693Y311D01*
X696Y311D02*
X720Y311D01*
X745Y311D02*
X752Y311D01*
X799Y311D02*
X806Y311D01*
X0Y310D02*
X7Y310D01*
X153Y310D02*
X160Y310D01*
X337Y310D02*
X343Y310D01*
X365Y310D02*
X371Y310D01*
X412Y310D02*
X419Y310D01*
X437Y310D02*
X443Y310D01*
X465Y310D02*
X471Y310D01*
X501Y310D02*
X507Y310D01*
X589Y310D02*
X596Y310D01*
X612Y310D02*
X618Y310D01*
X639Y310D02*
X648Y310D01*
X659Y310D02*
X669Y310D01*
X687Y310D02*
X704Y310D01*
X712Y310D02*
X720Y310D01*
X745Y310D02*
X752Y310D01*
X799Y310D02*
X806Y310D01*
X0Y309D02*
X7Y309D01*
X153Y309D02*
X160Y309D01*
X337Y309D02*
X343Y309D01*
X365Y309D02*
X371Y309D01*
X413Y309D02*
X419Y309D01*
X437Y309D02*
X443Y309D01*
X465Y309D02*
X471Y309D01*
X501Y309D02*
X507Y309D01*
X590Y309D02*
X596Y309D01*
X611Y309D02*
X618Y309D01*
X638Y309D02*
X646Y309D01*
X662Y309D02*
X670Y309D01*
X687Y309D02*
X703Y309D01*
X714Y309D02*
X720Y309D01*
X745Y309D02*
X752Y309D01*
X799Y309D02*
X806Y309D01*
X0Y308D02*
X7Y308D01*
X153Y308D02*
X160Y308D01*
X337Y308D02*
X343Y308D01*
X364Y308D02*
X370Y308D01*
X413Y308D02*
X420Y308D01*
X437Y308D02*
X443Y308D01*
X465Y308D02*
X471Y308D01*
X501Y308D02*
X507Y308D01*
X539Y308D02*
X569Y308D01*
X590Y308D02*
X597Y308D01*
X611Y308D02*
X617Y308D01*
X638Y308D02*
X645Y308D01*
X663Y308D02*
X670Y308D01*
X687Y308D02*
X702Y308D01*
X714Y308D02*
X720Y308D01*
X745Y308D02*
X752Y308D01*
X799Y308D02*
X806Y308D01*
X0Y307D02*
X7Y307D01*
X153Y307D02*
X160Y307D01*
X337Y307D02*
X343Y307D01*
X364Y307D02*
X370Y307D01*
X413Y307D02*
X420Y307D01*
X437Y307D02*
X443Y307D01*
X465Y307D02*
X471Y307D01*
X501Y307D02*
X507Y307D01*
X538Y307D02*
X570Y307D01*
X590Y307D02*
X597Y307D01*
X610Y307D02*
X617Y307D01*
X637Y307D02*
X644Y307D01*
X664Y307D02*
X670Y307D01*
X687Y307D02*
X701Y307D01*
X714Y307D02*
X720Y307D01*
X745Y307D02*
X752Y307D01*
X799Y307D02*
X806Y307D01*
X0Y306D02*
X7Y306D01*
X153Y306D02*
X160Y306D01*
X337Y306D02*
X343Y306D01*
X363Y306D02*
X370Y306D01*
X414Y306D02*
X420Y306D01*
X437Y306D02*
X443Y306D01*
X465Y306D02*
X471Y306D01*
X501Y306D02*
X507Y306D01*
X537Y306D02*
X570Y306D01*
X591Y306D02*
X597Y306D01*
X610Y306D02*
X617Y306D01*
X637Y306D02*
X643Y306D01*
X664Y306D02*
X670Y306D01*
X687Y306D02*
X700Y306D01*
X714Y306D02*
X721Y306D01*
X745Y306D02*
X752Y306D01*
X799Y306D02*
X806Y306D01*
X0Y305D02*
X7Y305D01*
X153Y305D02*
X160Y305D01*
X337Y305D02*
X370Y305D01*
X414Y305D02*
X420Y305D01*
X437Y305D02*
X443Y305D01*
X465Y305D02*
X471Y305D01*
X501Y305D02*
X507Y305D01*
X537Y305D02*
X570Y305D01*
X591Y305D02*
X598Y305D01*
X610Y305D02*
X616Y305D01*
X637Y305D02*
X643Y305D01*
X664Y305D02*
X670Y305D01*
X687Y305D02*
X698Y305D01*
X715Y305D02*
X720Y305D01*
X745Y305D02*
X752Y305D01*
X799Y305D02*
X806Y305D01*
X0Y304D02*
X7Y304D01*
X153Y304D02*
X160Y304D01*
X337Y304D02*
X369Y304D01*
X414Y304D02*
X420Y304D01*
X437Y304D02*
X443Y304D01*
X465Y304D02*
X471Y304D01*
X501Y304D02*
X507Y304D01*
X537Y304D02*
X571Y304D01*
X592Y304D02*
X598Y304D01*
X609Y304D02*
X616Y304D01*
X637Y304D02*
X643Y304D01*
X664Y304D02*
X671Y304D01*
X687Y304D02*
X697Y304D01*
X715Y304D02*
X720Y304D01*
X745Y304D02*
X752Y304D01*
X799Y304D02*
X806Y304D01*
X0Y303D02*
X7Y303D01*
X153Y303D02*
X160Y303D01*
X337Y303D02*
X369Y303D01*
X414Y303D02*
X420Y303D01*
X437Y303D02*
X443Y303D01*
X465Y303D02*
X471Y303D01*
X501Y303D02*
X507Y303D01*
X537Y303D02*
X571Y303D01*
X592Y303D02*
X599Y303D01*
X609Y303D02*
X615Y303D01*
X637Y303D02*
X643Y303D01*
X664Y303D02*
X671Y303D01*
X687Y303D02*
X696Y303D01*
X715Y303D02*
X720Y303D01*
X745Y303D02*
X752Y303D01*
X799Y303D02*
X806Y303D01*
X0Y302D02*
X7Y302D01*
X153Y302D02*
X160Y302D01*
X337Y302D02*
X368Y302D01*
X394Y302D02*
X420Y302D01*
X437Y302D02*
X443Y302D01*
X465Y302D02*
X471Y302D01*
X501Y302D02*
X507Y302D01*
X537Y302D02*
X571Y302D01*
X592Y302D02*
X599Y302D01*
X609Y302D02*
X615Y302D01*
X637Y302D02*
X643Y302D01*
X664Y302D02*
X671Y302D01*
X687Y302D02*
X695Y302D01*
X716Y302D02*
X719Y302D01*
X745Y302D02*
X752Y302D01*
X799Y302D02*
X806Y302D01*
X0Y301D02*
X7Y301D01*
X153Y301D02*
X160Y301D01*
X337Y301D02*
X367Y301D01*
X392Y301D02*
X420Y301D01*
X437Y301D02*
X443Y301D01*
X465Y301D02*
X471Y301D01*
X501Y301D02*
X507Y301D01*
X537Y301D02*
X570Y301D01*
X593Y301D02*
X599Y301D01*
X608Y301D02*
X615Y301D01*
X637Y301D02*
X643Y301D01*
X664Y301D02*
X671Y301D01*
X687Y301D02*
X694Y301D01*
X745Y301D02*
X752Y301D01*
X799Y301D02*
X806Y301D01*
X0Y300D02*
X7Y300D01*
X153Y300D02*
X160Y300D01*
X337Y300D02*
X365Y300D01*
X391Y300D02*
X420Y300D01*
X437Y300D02*
X443Y300D01*
X465Y300D02*
X471Y300D01*
X501Y300D02*
X507Y300D01*
X538Y300D02*
X570Y300D01*
X593Y300D02*
X600Y300D01*
X608Y300D02*
X614Y300D01*
X637Y300D02*
X643Y300D01*
X664Y300D02*
X671Y300D01*
X687Y300D02*
X693Y300D01*
X745Y300D02*
X752Y300D01*
X799Y300D02*
X806Y300D01*
X0Y299D02*
X7Y299D01*
X153Y299D02*
X160Y299D01*
X337Y299D02*
X363Y299D01*
X390Y299D02*
X420Y299D01*
X437Y299D02*
X443Y299D01*
X465Y299D02*
X471Y299D01*
X501Y299D02*
X507Y299D01*
X539Y299D02*
X569Y299D01*
X594Y299D02*
X600Y299D01*
X607Y299D02*
X614Y299D01*
X637Y299D02*
X671Y299D01*
X687Y299D02*
X693Y299D01*
X745Y299D02*
X752Y299D01*
X799Y299D02*
X806Y299D01*
X0Y298D02*
X7Y298D01*
X153Y298D02*
X160Y298D01*
X337Y298D02*
X343Y298D01*
X389Y298D02*
X420Y298D01*
X437Y298D02*
X443Y298D01*
X465Y298D02*
X471Y298D01*
X501Y298D02*
X507Y298D01*
X594Y298D02*
X601Y298D01*
X607Y298D02*
X613Y298D01*
X637Y298D02*
X671Y298D01*
X687Y298D02*
X693Y298D01*
X745Y298D02*
X752Y298D01*
X799Y298D02*
X806Y298D01*
X0Y297D02*
X7Y297D01*
X153Y297D02*
X160Y297D01*
X337Y297D02*
X343Y297D01*
X388Y297D02*
X420Y297D01*
X437Y297D02*
X444Y297D01*
X465Y297D02*
X471Y297D01*
X501Y297D02*
X507Y297D01*
X594Y297D02*
X601Y297D01*
X607Y297D02*
X613Y297D01*
X637Y297D02*
X671Y297D01*
X687Y297D02*
X693Y297D01*
X745Y297D02*
X752Y297D01*
X799Y297D02*
X806Y297D01*
X0Y296D02*
X7Y296D01*
X153Y296D02*
X160Y296D01*
X337Y296D02*
X343Y296D01*
X388Y296D02*
X420Y296D01*
X438Y296D02*
X444Y296D01*
X465Y296D02*
X471Y296D01*
X501Y296D02*
X507Y296D01*
X595Y296D02*
X601Y296D01*
X606Y296D02*
X613Y296D01*
X637Y296D02*
X670Y296D01*
X687Y296D02*
X693Y296D01*
X745Y296D02*
X752Y296D01*
X799Y296D02*
X806Y296D01*
X0Y295D02*
X7Y295D01*
X153Y295D02*
X160Y295D01*
X337Y295D02*
X343Y295D01*
X387Y295D02*
X395Y295D01*
X412Y295D02*
X420Y295D01*
X438Y295D02*
X444Y295D01*
X465Y295D02*
X471Y295D01*
X501Y295D02*
X507Y295D01*
X595Y295D02*
X602Y295D01*
X606Y295D02*
X612Y295D01*
X637Y295D02*
X670Y295D01*
X687Y295D02*
X693Y295D01*
X745Y295D02*
X752Y295D01*
X799Y295D02*
X806Y295D01*
X0Y294D02*
X7Y294D01*
X153Y294D02*
X160Y294D01*
X337Y294D02*
X343Y294D01*
X387Y294D02*
X394Y294D01*
X413Y294D02*
X420Y294D01*
X438Y294D02*
X444Y294D01*
X465Y294D02*
X471Y294D01*
X501Y294D02*
X507Y294D01*
X595Y294D02*
X602Y294D01*
X605Y294D02*
X612Y294D01*
X637Y294D02*
X670Y294D01*
X687Y294D02*
X693Y294D01*
X745Y294D02*
X752Y294D01*
X799Y294D02*
X806Y294D01*
X0Y293D02*
X7Y293D01*
X153Y293D02*
X160Y293D01*
X337Y293D02*
X343Y293D01*
X387Y293D02*
X393Y293D01*
X414Y293D02*
X420Y293D01*
X438Y293D02*
X444Y293D01*
X465Y293D02*
X471Y293D01*
X501Y293D02*
X507Y293D01*
X596Y293D02*
X602Y293D01*
X605Y293D02*
X612Y293D01*
X637Y293D02*
X669Y293D01*
X687Y293D02*
X693Y293D01*
X745Y293D02*
X752Y293D01*
X799Y293D02*
X806Y293D01*
X0Y292D02*
X7Y292D01*
X153Y292D02*
X160Y292D01*
X337Y292D02*
X343Y292D01*
X387Y292D02*
X393Y292D01*
X414Y292D02*
X420Y292D01*
X438Y292D02*
X444Y292D01*
X464Y292D02*
X471Y292D01*
X501Y292D02*
X507Y292D01*
X596Y292D02*
X603Y292D01*
X605Y292D02*
X611Y292D01*
X637Y292D02*
X643Y292D01*
X687Y292D02*
X693Y292D01*
X745Y292D02*
X752Y292D01*
X799Y292D02*
X806Y292D01*
X0Y291D02*
X7Y291D01*
X153Y291D02*
X160Y291D01*
X337Y291D02*
X343Y291D01*
X387Y291D02*
X393Y291D01*
X414Y291D02*
X420Y291D01*
X438Y291D02*
X444Y291D01*
X463Y291D02*
X471Y291D01*
X501Y291D02*
X507Y291D01*
X597Y291D02*
X611Y291D01*
X637Y291D02*
X643Y291D01*
X687Y291D02*
X693Y291D01*
X745Y291D02*
X752Y291D01*
X799Y291D02*
X806Y291D01*
X0Y290D02*
X7Y290D01*
X153Y290D02*
X160Y290D01*
X337Y290D02*
X343Y290D01*
X387Y290D02*
X393Y290D01*
X414Y290D02*
X420Y290D01*
X438Y290D02*
X444Y290D01*
X461Y290D02*
X471Y290D01*
X501Y290D02*
X507Y290D01*
X597Y290D02*
X610Y290D01*
X637Y290D02*
X643Y290D01*
X687Y290D02*
X693Y290D01*
X745Y290D02*
X752Y290D01*
X799Y290D02*
X806Y290D01*
X0Y289D02*
X7Y289D01*
X153Y289D02*
X160Y289D01*
X337Y289D02*
X343Y289D01*
X387Y289D02*
X393Y289D01*
X414Y289D02*
X420Y289D01*
X438Y289D02*
X444Y289D01*
X460Y289D02*
X471Y289D01*
X501Y289D02*
X507Y289D01*
X597Y289D02*
X610Y289D01*
X637Y289D02*
X643Y289D01*
X687Y289D02*
X693Y289D01*
X745Y289D02*
X752Y289D01*
X799Y289D02*
X806Y289D01*
X0Y288D02*
X7Y288D01*
X153Y288D02*
X160Y288D01*
X337Y288D02*
X343Y288D01*
X387Y288D02*
X393Y288D01*
X412Y288D02*
X420Y288D01*
X438Y288D02*
X444Y288D01*
X458Y288D02*
X471Y288D01*
X501Y288D02*
X507Y288D01*
X598Y288D02*
X610Y288D01*
X637Y288D02*
X644Y288D01*
X687Y288D02*
X693Y288D01*
X745Y288D02*
X752Y288D01*
X799Y288D02*
X806Y288D01*
X0Y287D02*
X7Y287D01*
X153Y287D02*
X160Y287D01*
X337Y287D02*
X343Y287D01*
X387Y287D02*
X393Y287D01*
X410Y287D02*
X420Y287D01*
X438Y287D02*
X444Y287D01*
X457Y287D02*
X471Y287D01*
X501Y287D02*
X507Y287D01*
X598Y287D02*
X609Y287D01*
X637Y287D02*
X645Y287D01*
X687Y287D02*
X693Y287D01*
X745Y287D02*
X752Y287D01*
X799Y287D02*
X806Y287D01*
X0Y286D02*
X7Y286D01*
X153Y286D02*
X160Y286D01*
X337Y286D02*
X343Y286D01*
X387Y286D02*
X394Y286D01*
X409Y286D02*
X420Y286D01*
X438Y286D02*
X445Y286D01*
X455Y286D02*
X471Y286D01*
X501Y286D02*
X507Y286D01*
X599Y286D02*
X609Y286D01*
X638Y286D02*
X646Y286D01*
X687Y286D02*
X693Y286D01*
X745Y286D02*
X752Y286D01*
X799Y286D02*
X806Y286D01*
X0Y285D02*
X7Y285D01*
X153Y285D02*
X160Y285D01*
X337Y285D02*
X343Y285D01*
X388Y285D02*
X396Y285D01*
X407Y285D02*
X420Y285D01*
X438Y285D02*
X446Y285D01*
X453Y285D02*
X471Y285D01*
X500Y285D02*
X507Y285D01*
X599Y285D02*
X608Y285D01*
X638Y285D02*
X648Y285D01*
X687Y285D02*
X693Y285D01*
X745Y285D02*
X752Y285D01*
X799Y285D02*
X806Y285D01*
X0Y284D02*
X7Y284D01*
X153Y284D02*
X160Y284D01*
X337Y284D02*
X343Y284D01*
X388Y284D02*
X420Y284D01*
X439Y284D02*
X471Y284D01*
X492Y284D02*
X516Y284D01*
X599Y284D02*
X608Y284D01*
X639Y284D02*
X669Y284D01*
X687Y284D02*
X693Y284D01*
X745Y284D02*
X752Y284D01*
X799Y284D02*
X806Y284D01*
X0Y283D02*
X7Y283D01*
X153Y283D02*
X160Y283D01*
X337Y283D02*
X343Y283D01*
X388Y283D02*
X420Y283D01*
X439Y283D02*
X462Y283D01*
X465Y283D02*
X471Y283D01*
X491Y283D02*
X517Y283D01*
X600Y283D02*
X608Y283D01*
X640Y283D02*
X670Y283D01*
X687Y283D02*
X693Y283D01*
X745Y283D02*
X752Y283D01*
X799Y283D02*
X806Y283D01*
X0Y282D02*
X7Y282D01*
X153Y282D02*
X160Y282D01*
X337Y282D02*
X343Y282D01*
X389Y282D02*
X421Y282D01*
X440Y282D02*
X461Y282D01*
X465Y282D02*
X471Y282D01*
X490Y282D02*
X517Y282D01*
X600Y282D02*
X607Y282D01*
X641Y282D02*
X670Y282D01*
X687Y282D02*
X693Y282D01*
X745Y282D02*
X752Y282D01*
X799Y282D02*
X806Y282D01*
X0Y281D02*
X7Y281D01*
X153Y281D02*
X160Y281D01*
X337Y281D02*
X343Y281D01*
X390Y281D02*
X420Y281D01*
X441Y281D02*
X459Y281D01*
X465Y281D02*
X470Y281D01*
X490Y281D02*
X517Y281D01*
X601Y281D02*
X607Y281D01*
X642Y281D02*
X670Y281D01*
X687Y281D02*
X693Y281D01*
X745Y281D02*
X752Y281D01*
X799Y281D02*
X806Y281D01*
X0Y280D02*
X7Y280D01*
X153Y280D02*
X160Y280D01*
X337Y280D02*
X343Y280D01*
X391Y280D02*
X411Y280D01*
X415Y280D02*
X420Y280D01*
X442Y280D02*
X458Y280D01*
X465Y280D02*
X470Y280D01*
X491Y280D02*
X517Y280D01*
X601Y280D02*
X606Y280D01*
X643Y280D02*
X670Y280D01*
X687Y280D02*
X693Y280D01*
X745Y280D02*
X752Y280D01*
X799Y280D02*
X806Y280D01*
X0Y279D02*
X7Y279D01*
X153Y279D02*
X160Y279D01*
X338Y279D02*
X342Y279D01*
X393Y279D02*
X410Y279D01*
X415Y279D02*
X420Y279D01*
X444Y279D02*
X456Y279D01*
X465Y279D02*
X470Y279D01*
X491Y279D02*
X516Y279D01*
X602Y279D02*
X606Y279D01*
X645Y279D02*
X670Y279D01*
X688Y279D02*
X692Y279D01*
X745Y279D02*
X752Y279D01*
X799Y279D02*
X806Y279D01*
X0Y278D02*
X7Y278D01*
X153Y278D02*
X160Y278D01*
X340Y278D02*
X340Y278D01*
X396Y278D02*
X408Y278D01*
X417Y278D02*
X418Y278D01*
X446Y278D02*
X453Y278D01*
X467Y278D02*
X468Y278D01*
X493Y278D02*
X514Y278D01*
X603Y278D02*
X604Y278D01*
X648Y278D02*
X668Y278D01*
X690Y278D02*
X690Y278D01*
X745Y278D02*
X752Y278D01*
X799Y278D02*
X806Y278D01*
X0Y277D02*
X7Y277D01*
X153Y277D02*
X160Y277D01*
X745Y277D02*
X752Y277D01*
X799Y277D02*
X806Y277D01*
X0Y276D02*
X7Y276D01*
X153Y276D02*
X160Y276D01*
X745Y276D02*
X752Y276D01*
X799Y276D02*
X806Y276D01*
X0Y275D02*
X7Y275D01*
X153Y275D02*
X160Y275D01*
X745Y275D02*
X752Y275D01*
X799Y275D02*
X806Y275D01*
X0Y274D02*
X7Y274D01*
X153Y274D02*
X160Y274D01*
X745Y274D02*
X752Y274D01*
X799Y274D02*
X806Y274D01*
X0Y273D02*
X7Y273D01*
X153Y273D02*
X160Y273D01*
X745Y273D02*
X752Y273D01*
X799Y273D02*
X806Y273D01*
X0Y272D02*
X7Y272D01*
X153Y272D02*
X160Y272D01*
X745Y272D02*
X752Y272D01*
X799Y272D02*
X806Y272D01*
X0Y271D02*
X7Y271D01*
X153Y271D02*
X160Y271D01*
X745Y271D02*
X752Y271D01*
X799Y271D02*
X806Y271D01*
X0Y270D02*
X7Y270D01*
X153Y270D02*
X160Y270D01*
X745Y270D02*
X752Y270D01*
X799Y270D02*
X806Y270D01*
X0Y269D02*
X7Y269D01*
X153Y269D02*
X160Y269D01*
X745Y269D02*
X752Y269D01*
X799Y269D02*
X806Y269D01*
X0Y268D02*
X7Y268D01*
X153Y268D02*
X160Y268D01*
X745Y268D02*
X752Y268D01*
X799Y268D02*
X806Y268D01*
X0Y267D02*
X7Y267D01*
X153Y267D02*
X160Y267D01*
X745Y267D02*
X752Y267D01*
X799Y267D02*
X806Y267D01*
X0Y266D02*
X7Y266D01*
X153Y266D02*
X160Y266D01*
X745Y266D02*
X752Y266D01*
X799Y266D02*
X806Y266D01*
X0Y265D02*
X7Y265D01*
X153Y265D02*
X160Y265D01*
X745Y265D02*
X752Y265D01*
X799Y265D02*
X806Y265D01*
X0Y264D02*
X7Y264D01*
X153Y264D02*
X160Y264D01*
X745Y264D02*
X752Y264D01*
X799Y264D02*
X806Y264D01*
X0Y263D02*
X7Y263D01*
X153Y263D02*
X160Y263D01*
X745Y263D02*
X752Y263D01*
X799Y263D02*
X806Y263D01*
X0Y262D02*
X7Y262D01*
X153Y262D02*
X160Y262D01*
X745Y262D02*
X752Y262D01*
X799Y262D02*
X806Y262D01*
X0Y261D02*
X7Y261D01*
X153Y261D02*
X159Y261D01*
X745Y261D02*
X752Y261D01*
X799Y261D02*
X806Y261D01*
X0Y260D02*
X7Y260D01*
X153Y260D02*
X159Y260D01*
X745Y260D02*
X752Y260D01*
X799Y260D02*
X806Y260D01*
X0Y259D02*
X7Y259D01*
X153Y259D02*
X159Y259D01*
X745Y259D02*
X752Y259D01*
X799Y259D02*
X806Y259D01*
X0Y258D02*
X7Y258D01*
X153Y258D02*
X159Y258D01*
X745Y258D02*
X752Y258D01*
X799Y258D02*
X806Y258D01*
X0Y257D02*
X7Y257D01*
X153Y257D02*
X158Y257D01*
X745Y257D02*
X752Y257D01*
X799Y257D02*
X806Y257D01*
X0Y256D02*
X7Y256D01*
X153Y256D02*
X158Y256D01*
X745Y256D02*
X752Y256D01*
X799Y256D02*
X806Y256D01*
X0Y255D02*
X7Y255D01*
X153Y255D02*
X158Y255D01*
X745Y255D02*
X752Y255D01*
X799Y255D02*
X806Y255D01*
X0Y254D02*
X7Y254D01*
X153Y254D02*
X158Y254D01*
X745Y254D02*
X752Y254D01*
X799Y254D02*
X806Y254D01*
X0Y253D02*
X7Y253D01*
X153Y253D02*
X158Y253D01*
X745Y253D02*
X752Y253D01*
X799Y253D02*
X806Y253D01*
X0Y252D02*
X7Y252D01*
X153Y252D02*
X158Y252D01*
X745Y252D02*
X752Y252D01*
X799Y252D02*
X806Y252D01*
X0Y251D02*
X7Y251D01*
X153Y251D02*
X158Y251D01*
X745Y251D02*
X752Y251D01*
X799Y251D02*
X806Y251D01*
X0Y250D02*
X7Y250D01*
X153Y250D02*
X158Y250D01*
X745Y250D02*
X752Y250D01*
X799Y250D02*
X806Y250D01*
X0Y249D02*
X7Y249D01*
X153Y249D02*
X158Y249D01*
X745Y249D02*
X752Y249D01*
X799Y249D02*
X806Y249D01*
X0Y248D02*
X7Y248D01*
X153Y248D02*
X158Y248D01*
X745Y248D02*
X752Y248D01*
X799Y248D02*
X806Y248D01*
X0Y247D02*
X7Y247D01*
X153Y247D02*
X158Y247D01*
X745Y247D02*
X752Y247D01*
X799Y247D02*
X806Y247D01*
X0Y246D02*
X7Y246D01*
X153Y246D02*
X158Y246D01*
X745Y246D02*
X752Y246D01*
X799Y246D02*
X806Y246D01*
X0Y245D02*
X7Y245D01*
X153Y245D02*
X158Y245D01*
X745Y245D02*
X752Y245D01*
X799Y245D02*
X806Y245D01*
X0Y244D02*
X7Y244D01*
X153Y244D02*
X158Y244D01*
X745Y244D02*
X752Y244D01*
X799Y244D02*
X806Y244D01*
X0Y243D02*
X7Y243D01*
X153Y243D02*
X159Y243D01*
X745Y243D02*
X752Y243D01*
X799Y243D02*
X806Y243D01*
X0Y242D02*
X7Y242D01*
X153Y242D02*
X159Y242D01*
X262Y242D02*
X295Y242D01*
X314Y242D02*
X329Y242D01*
X364Y242D02*
X393Y242D01*
X441Y242D02*
X443Y242D01*
X477Y242D02*
X479Y242D01*
X512Y242D02*
X537Y242D01*
X564Y242D02*
X579Y242D01*
X612Y242D02*
X619Y242D01*
X637Y242D02*
X645Y242D01*
X664Y242D02*
X693Y242D01*
X712Y242D02*
X720Y242D01*
X741Y242D02*
X743Y242D01*
X745Y242D02*
X752Y242D01*
X764Y242D02*
X793Y242D01*
X799Y242D02*
X806Y242D01*
X0Y241D02*
X7Y241D01*
X153Y241D02*
X159Y241D01*
X262Y241D02*
X295Y241D01*
X312Y241D02*
X332Y241D01*
X362Y241D02*
X394Y241D01*
X440Y241D02*
X444Y241D01*
X476Y241D02*
X480Y241D01*
X511Y241D02*
X539Y241D01*
X562Y241D02*
X582Y241D01*
X611Y241D02*
X620Y241D01*
X636Y241D02*
X645Y241D01*
X662Y241D02*
X694Y241D01*
X711Y241D02*
X720Y241D01*
X740Y241D02*
X752Y241D01*
X762Y241D02*
X794Y241D01*
X799Y241D02*
X806Y241D01*
X0Y240D02*
X7Y240D01*
X153Y240D02*
X159Y240D01*
X262Y240D02*
X295Y240D01*
X312Y240D02*
X333Y240D01*
X362Y240D02*
X395Y240D01*
X439Y240D02*
X445Y240D01*
X475Y240D02*
X481Y240D01*
X511Y240D02*
X541Y240D01*
X562Y240D02*
X583Y240D01*
X611Y240D02*
X621Y240D01*
X636Y240D02*
X645Y240D01*
X662Y240D02*
X695Y240D01*
X711Y240D02*
X721Y240D01*
X739Y240D02*
X752Y240D01*
X762Y240D02*
X795Y240D01*
X799Y240D02*
X806Y240D01*
X0Y239D02*
X7Y239D01*
X153Y239D02*
X159Y239D01*
X245Y239D02*
X245Y239D01*
X262Y239D02*
X295Y239D01*
X312Y239D02*
X334Y239D01*
X362Y239D02*
X395Y239D01*
X439Y239D02*
X445Y239D01*
X475Y239D02*
X481Y239D01*
X511Y239D02*
X542Y239D01*
X562Y239D02*
X584Y239D01*
X611Y239D02*
X622Y239D01*
X635Y239D02*
X645Y239D01*
X662Y239D02*
X695Y239D01*
X711Y239D02*
X721Y239D01*
X739Y239D02*
X752Y239D01*
X762Y239D02*
X795Y239D01*
X799Y239D02*
X806Y239D01*
X0Y238D02*
X7Y238D01*
X153Y238D02*
X160Y238D01*
X245Y238D02*
X245Y238D01*
X262Y238D02*
X295Y238D01*
X312Y238D02*
X335Y238D01*
X362Y238D02*
X395Y238D01*
X438Y238D02*
X445Y238D01*
X475Y238D02*
X482Y238D01*
X511Y238D02*
X543Y238D01*
X562Y238D02*
X585Y238D01*
X611Y238D02*
X622Y238D01*
X634Y238D02*
X645Y238D01*
X662Y238D02*
X695Y238D01*
X711Y238D02*
X722Y238D01*
X739Y238D02*
X752Y238D01*
X762Y238D02*
X795Y238D01*
X799Y238D02*
X806Y238D01*
X0Y237D02*
X7Y237D01*
X153Y237D02*
X160Y237D01*
X245Y237D02*
X245Y237D01*
X262Y237D02*
X295Y237D01*
X312Y237D02*
X336Y237D01*
X362Y237D02*
X395Y237D01*
X437Y237D02*
X445Y237D01*
X475Y237D02*
X482Y237D01*
X511Y237D02*
X544Y237D01*
X562Y237D02*
X586Y237D01*
X611Y237D02*
X623Y237D01*
X634Y237D02*
X645Y237D01*
X662Y237D02*
X694Y237D01*
X711Y237D02*
X722Y237D01*
X739Y237D02*
X752Y237D01*
X762Y237D02*
X794Y237D01*
X799Y237D02*
X806Y237D01*
X0Y236D02*
X7Y236D01*
X153Y236D02*
X160Y236D01*
X244Y236D02*
X244Y236D01*
X250Y236D02*
X251Y236D01*
X262Y236D02*
X295Y236D01*
X313Y236D02*
X336Y236D01*
X363Y236D02*
X394Y236D01*
X437Y236D02*
X444Y236D01*
X474Y236D02*
X482Y236D01*
X511Y236D02*
X544Y236D01*
X563Y236D02*
X586Y236D01*
X611Y236D02*
X624Y236D01*
X633Y236D02*
X645Y236D01*
X663Y236D02*
X694Y236D01*
X711Y236D02*
X722Y236D01*
X739Y236D02*
X752Y236D01*
X763Y236D02*
X794Y236D01*
X799Y236D02*
X806Y236D01*
X0Y235D02*
X7Y235D01*
X153Y235D02*
X160Y235D01*
X249Y235D02*
X252Y235D01*
X262Y235D02*
X268Y235D01*
X275Y235D02*
X281Y235D01*
X289Y235D02*
X295Y235D01*
X318Y235D02*
X325Y235D01*
X329Y235D02*
X337Y235D01*
X375Y235D02*
X381Y235D01*
X436Y235D02*
X443Y235D01*
X474Y235D02*
X483Y235D01*
X511Y235D02*
X518Y235D01*
X537Y235D02*
X545Y235D01*
X568Y235D02*
X575Y235D01*
X579Y235D02*
X587Y235D01*
X611Y235D02*
X624Y235D01*
X632Y235D02*
X645Y235D01*
X675Y235D02*
X681Y235D01*
X711Y235D02*
X723Y235D01*
X739Y235D02*
X752Y235D01*
X775Y235D02*
X781Y235D01*
X799Y235D02*
X806Y235D01*
X0Y234D02*
X7Y234D01*
X153Y234D02*
X160Y234D01*
X248Y234D02*
X253Y234D01*
X262Y234D02*
X268Y234D01*
X275Y234D02*
X281Y234D01*
X289Y234D02*
X295Y234D01*
X318Y234D02*
X324Y234D01*
X330Y234D02*
X337Y234D01*
X375Y234D02*
X381Y234D01*
X436Y234D02*
X443Y234D01*
X474Y234D02*
X483Y234D01*
X511Y234D02*
X518Y234D01*
X538Y234D02*
X545Y234D01*
X568Y234D02*
X574Y234D01*
X580Y234D02*
X587Y234D01*
X611Y234D02*
X625Y234D01*
X631Y234D02*
X645Y234D01*
X675Y234D02*
X681Y234D01*
X711Y234D02*
X723Y234D01*
X739Y234D02*
X752Y234D01*
X775Y234D02*
X781Y234D01*
X799Y234D02*
X806Y234D01*
X0Y233D02*
X7Y233D01*
X153Y233D02*
X160Y233D01*
X247Y233D02*
X253Y233D01*
X262Y233D02*
X268Y233D01*
X275Y233D02*
X281Y233D01*
X289Y233D02*
X295Y233D01*
X318Y233D02*
X324Y233D01*
X331Y233D02*
X338Y233D01*
X375Y233D02*
X381Y233D01*
X435Y233D02*
X442Y233D01*
X473Y233D02*
X483Y233D01*
X511Y233D02*
X518Y233D01*
X539Y233D02*
X545Y233D01*
X568Y233D02*
X574Y233D01*
X581Y233D02*
X588Y233D01*
X611Y233D02*
X626Y233D01*
X631Y233D02*
X645Y233D01*
X675Y233D02*
X681Y233D01*
X711Y233D02*
X724Y233D01*
X739Y233D02*
X752Y233D01*
X775Y233D02*
X781Y233D01*
X799Y233D02*
X806Y233D01*
X0Y232D02*
X7Y232D01*
X153Y232D02*
X160Y232D01*
X246Y232D02*
X252Y232D01*
X262Y232D02*
X267Y232D01*
X275Y232D02*
X281Y232D01*
X289Y232D02*
X295Y232D01*
X318Y232D02*
X324Y232D01*
X332Y232D02*
X339Y232D01*
X375Y232D02*
X381Y232D01*
X434Y232D02*
X442Y232D01*
X473Y232D02*
X483Y232D01*
X511Y232D02*
X518Y232D01*
X539Y232D02*
X545Y232D01*
X568Y232D02*
X574Y232D01*
X582Y232D02*
X588Y232D01*
X611Y232D02*
X626Y232D01*
X630Y232D02*
X645Y232D01*
X675Y232D02*
X681Y232D01*
X711Y232D02*
X724Y232D01*
X739Y232D02*
X752Y232D01*
X775Y232D02*
X781Y232D01*
X799Y232D02*
X806Y232D01*
X0Y231D02*
X7Y231D01*
X153Y231D02*
X160Y231D01*
X245Y231D02*
X251Y231D01*
X262Y231D02*
X267Y231D01*
X275Y231D02*
X281Y231D01*
X290Y231D02*
X294Y231D01*
X318Y231D02*
X324Y231D01*
X332Y231D02*
X339Y231D01*
X375Y231D02*
X381Y231D01*
X434Y231D02*
X441Y231D01*
X473Y231D02*
X484Y231D01*
X511Y231D02*
X518Y231D01*
X539Y231D02*
X545Y231D01*
X568Y231D02*
X574Y231D01*
X582Y231D02*
X589Y231D01*
X611Y231D02*
X617Y231D01*
X620Y231D02*
X627Y231D01*
X629Y231D02*
X637Y231D01*
X639Y231D02*
X645Y231D01*
X675Y231D02*
X681Y231D01*
X711Y231D02*
X725Y231D01*
X739Y231D02*
X752Y231D01*
X775Y231D02*
X781Y231D01*
X799Y231D02*
X806Y231D01*
X0Y230D02*
X7Y230D01*
X153Y230D02*
X160Y230D01*
X244Y230D02*
X250Y230D01*
X263Y230D02*
X266Y230D01*
X275Y230D02*
X281Y230D01*
X291Y230D02*
X293Y230D01*
X318Y230D02*
X324Y230D01*
X333Y230D02*
X340Y230D01*
X375Y230D02*
X381Y230D01*
X433Y230D02*
X440Y230D01*
X473Y230D02*
X484Y230D01*
X511Y230D02*
X518Y230D01*
X539Y230D02*
X545Y230D01*
X568Y230D02*
X574Y230D01*
X583Y230D02*
X589Y230D01*
X611Y230D02*
X617Y230D01*
X620Y230D02*
X636Y230D01*
X639Y230D02*
X645Y230D01*
X675Y230D02*
X681Y230D01*
X711Y230D02*
X725Y230D01*
X739Y230D02*
X752Y230D01*
X775Y230D02*
X781Y230D01*
X799Y230D02*
X806Y230D01*
X0Y229D02*
X7Y229D01*
X153Y229D02*
X160Y229D01*
X243Y229D02*
X249Y229D01*
X275Y229D02*
X281Y229D01*
X318Y229D02*
X324Y229D01*
X333Y229D02*
X340Y229D01*
X375Y229D02*
X381Y229D01*
X433Y229D02*
X440Y229D01*
X472Y229D02*
X484Y229D01*
X511Y229D02*
X518Y229D01*
X539Y229D02*
X545Y229D01*
X568Y229D02*
X574Y229D01*
X583Y229D02*
X590Y229D01*
X611Y229D02*
X617Y229D01*
X621Y229D02*
X635Y229D01*
X639Y229D02*
X645Y229D01*
X675Y229D02*
X681Y229D01*
X711Y229D02*
X726Y229D01*
X739Y229D02*
X752Y229D01*
X775Y229D02*
X781Y229D01*
X799Y229D02*
X806Y229D01*
X0Y228D02*
X7Y228D01*
X153Y228D02*
X160Y228D01*
X242Y228D02*
X248Y228D01*
X275Y228D02*
X281Y228D01*
X318Y228D02*
X324Y228D01*
X334Y228D02*
X341Y228D01*
X375Y228D02*
X381Y228D01*
X432Y228D02*
X439Y228D01*
X472Y228D02*
X485Y228D01*
X511Y228D02*
X518Y228D01*
X539Y228D02*
X545Y228D01*
X568Y228D02*
X574Y228D01*
X584Y228D02*
X590Y228D01*
X611Y228D02*
X617Y228D01*
X622Y228D02*
X635Y228D01*
X639Y228D02*
X645Y228D01*
X675Y228D02*
X681Y228D01*
X711Y228D02*
X717Y228D01*
X719Y228D02*
X726Y228D01*
X739Y228D02*
X752Y228D01*
X775Y228D02*
X781Y228D01*
X799Y228D02*
X806Y228D01*
X0Y227D02*
X7Y227D01*
X153Y227D02*
X160Y227D01*
X241Y227D02*
X247Y227D01*
X275Y227D02*
X281Y227D01*
X318Y227D02*
X324Y227D01*
X334Y227D02*
X341Y227D01*
X375Y227D02*
X381Y227D01*
X432Y227D02*
X439Y227D01*
X472Y227D02*
X485Y227D01*
X511Y227D02*
X518Y227D01*
X539Y227D02*
X545Y227D01*
X568Y227D02*
X574Y227D01*
X584Y227D02*
X591Y227D01*
X611Y227D02*
X617Y227D01*
X622Y227D02*
X634Y227D01*
X639Y227D02*
X645Y227D01*
X675Y227D02*
X681Y227D01*
X711Y227D02*
X717Y227D01*
X720Y227D02*
X726Y227D01*
X739Y227D02*
X752Y227D01*
X775Y227D02*
X781Y227D01*
X799Y227D02*
X806Y227D01*
X0Y226D02*
X7Y226D01*
X153Y226D02*
X160Y226D01*
X240Y226D02*
X246Y226D01*
X275Y226D02*
X281Y226D01*
X318Y226D02*
X324Y226D01*
X335Y226D02*
X342Y226D01*
X375Y226D02*
X381Y226D01*
X431Y226D02*
X438Y226D01*
X471Y226D02*
X485Y226D01*
X511Y226D02*
X518Y226D01*
X538Y226D02*
X545Y226D01*
X568Y226D02*
X574Y226D01*
X585Y226D02*
X591Y226D01*
X611Y226D02*
X617Y226D01*
X623Y226D02*
X633Y226D01*
X639Y226D02*
X645Y226D01*
X675Y226D02*
X681Y226D01*
X711Y226D02*
X717Y226D01*
X720Y226D02*
X727Y226D01*
X739Y226D02*
X752Y226D01*
X775Y226D02*
X781Y226D01*
X799Y226D02*
X806Y226D01*
X0Y225D02*
X7Y225D01*
X153Y225D02*
X160Y225D01*
X239Y225D02*
X245Y225D01*
X275Y225D02*
X281Y225D01*
X318Y225D02*
X324Y225D01*
X335Y225D02*
X342Y225D01*
X375Y225D02*
X381Y225D01*
X430Y225D02*
X438Y225D01*
X471Y225D02*
X477Y225D01*
X479Y225D02*
X485Y225D01*
X511Y225D02*
X518Y225D01*
X537Y225D02*
X545Y225D01*
X568Y225D02*
X574Y225D01*
X585Y225D02*
X592Y225D01*
X611Y225D02*
X617Y225D01*
X624Y225D02*
X633Y225D01*
X639Y225D02*
X645Y225D01*
X675Y225D02*
X681Y225D01*
X711Y225D02*
X717Y225D01*
X721Y225D02*
X727Y225D01*
X739Y225D02*
X752Y225D01*
X775Y225D02*
X781Y225D01*
X799Y225D02*
X806Y225D01*
X0Y224D02*
X7Y224D01*
X153Y224D02*
X160Y224D01*
X238Y224D02*
X244Y224D01*
X275Y224D02*
X281Y224D01*
X318Y224D02*
X324Y224D01*
X336Y224D02*
X343Y224D01*
X375Y224D02*
X381Y224D01*
X430Y224D02*
X437Y224D01*
X471Y224D02*
X477Y224D01*
X479Y224D02*
X486Y224D01*
X511Y224D02*
X544Y224D01*
X568Y224D02*
X574Y224D01*
X586Y224D02*
X592Y224D01*
X611Y224D02*
X617Y224D01*
X624Y224D02*
X632Y224D01*
X639Y224D02*
X645Y224D01*
X675Y224D02*
X681Y224D01*
X711Y224D02*
X717Y224D01*
X721Y224D02*
X728Y224D01*
X739Y224D02*
X752Y224D01*
X775Y224D02*
X781Y224D01*
X799Y224D02*
X806Y224D01*
X0Y223D02*
X7Y223D01*
X153Y223D02*
X160Y223D01*
X237Y223D02*
X243Y223D01*
X275Y223D02*
X281Y223D01*
X318Y223D02*
X324Y223D01*
X336Y223D02*
X343Y223D01*
X375Y223D02*
X381Y223D01*
X429Y223D02*
X436Y223D01*
X470Y223D02*
X477Y223D01*
X480Y223D02*
X486Y223D01*
X511Y223D02*
X544Y223D01*
X568Y223D02*
X574Y223D01*
X586Y223D02*
X593Y223D01*
X611Y223D02*
X617Y223D01*
X625Y223D02*
X631Y223D01*
X639Y223D02*
X645Y223D01*
X675Y223D02*
X681Y223D01*
X711Y223D02*
X717Y223D01*
X721Y223D02*
X728Y223D01*
X739Y223D02*
X752Y223D01*
X775Y223D02*
X781Y223D01*
X799Y223D02*
X806Y223D01*
X0Y222D02*
X7Y222D01*
X153Y222D02*
X160Y222D01*
X236Y222D02*
X242Y222D01*
X275Y222D02*
X281Y222D01*
X318Y222D02*
X324Y222D01*
X337Y222D02*
X343Y222D01*
X375Y222D02*
X381Y222D01*
X429Y222D02*
X436Y222D01*
X470Y222D02*
X476Y222D01*
X480Y222D02*
X486Y222D01*
X511Y222D02*
X543Y222D01*
X568Y222D02*
X574Y222D01*
X587Y222D02*
X593Y222D01*
X611Y222D02*
X617Y222D01*
X625Y222D02*
X631Y222D01*
X639Y222D02*
X645Y222D01*
X675Y222D02*
X681Y222D01*
X711Y222D02*
X717Y222D01*
X722Y222D02*
X729Y222D01*
X739Y222D02*
X752Y222D01*
X775Y222D02*
X781Y222D01*
X799Y222D02*
X806Y222D01*
X0Y221D02*
X7Y221D01*
X153Y221D02*
X160Y221D01*
X236Y221D02*
X241Y221D01*
X275Y221D02*
X281Y221D01*
X318Y221D02*
X324Y221D01*
X337Y221D02*
X344Y221D01*
X375Y221D02*
X381Y221D01*
X428Y221D02*
X435Y221D01*
X470Y221D02*
X476Y221D01*
X480Y221D02*
X487Y221D01*
X511Y221D02*
X542Y221D01*
X568Y221D02*
X574Y221D01*
X587Y221D02*
X594Y221D01*
X611Y221D02*
X617Y221D01*
X625Y221D02*
X631Y221D01*
X639Y221D02*
X645Y221D01*
X675Y221D02*
X681Y221D01*
X711Y221D02*
X717Y221D01*
X722Y221D02*
X729Y221D01*
X739Y221D02*
X752Y221D01*
X775Y221D02*
X781Y221D01*
X799Y221D02*
X806Y221D01*
X0Y220D02*
X7Y220D01*
X153Y220D02*
X160Y220D01*
X235Y220D02*
X240Y220D01*
X275Y220D02*
X281Y220D01*
X318Y220D02*
X324Y220D01*
X338Y220D02*
X344Y220D01*
X375Y220D02*
X381Y220D01*
X427Y220D02*
X435Y220D01*
X470Y220D02*
X476Y220D01*
X481Y220D02*
X487Y220D01*
X511Y220D02*
X541Y220D01*
X568Y220D02*
X574Y220D01*
X588Y220D02*
X594Y220D01*
X611Y220D02*
X617Y220D01*
X625Y220D02*
X631Y220D01*
X639Y220D02*
X645Y220D01*
X675Y220D02*
X681Y220D01*
X711Y220D02*
X717Y220D01*
X723Y220D02*
X729Y220D01*
X739Y220D02*
X752Y220D01*
X775Y220D02*
X781Y220D01*
X799Y220D02*
X806Y220D01*
X0Y219D02*
X7Y219D01*
X153Y219D02*
X160Y219D01*
X234Y219D02*
X239Y219D01*
X275Y219D02*
X281Y219D01*
X318Y219D02*
X324Y219D01*
X338Y219D02*
X345Y219D01*
X375Y219D02*
X381Y219D01*
X427Y219D02*
X434Y219D01*
X469Y219D02*
X476Y219D01*
X481Y219D02*
X487Y219D01*
X511Y219D02*
X540Y219D01*
X568Y219D02*
X574Y219D01*
X588Y219D02*
X595Y219D01*
X611Y219D02*
X617Y219D01*
X626Y219D02*
X630Y219D01*
X639Y219D02*
X645Y219D01*
X675Y219D02*
X681Y219D01*
X711Y219D02*
X717Y219D01*
X723Y219D02*
X730Y219D01*
X739Y219D02*
X752Y219D01*
X775Y219D02*
X781Y219D01*
X799Y219D02*
X806Y219D01*
X0Y218D02*
X7Y218D01*
X153Y218D02*
X160Y218D01*
X233Y218D02*
X238Y218D01*
X275Y218D02*
X281Y218D01*
X318Y218D02*
X324Y218D01*
X339Y218D02*
X345Y218D01*
X375Y218D02*
X381Y218D01*
X426Y218D02*
X433Y218D01*
X469Y218D02*
X475Y218D01*
X481Y218D02*
X487Y218D01*
X511Y218D02*
X537Y218D01*
X568Y218D02*
X574Y218D01*
X589Y218D02*
X595Y218D01*
X611Y218D02*
X617Y218D01*
X627Y218D02*
X629Y218D01*
X639Y218D02*
X645Y218D01*
X675Y218D02*
X681Y218D01*
X711Y218D02*
X717Y218D01*
X724Y218D02*
X730Y218D01*
X739Y218D02*
X752Y218D01*
X775Y218D02*
X781Y218D01*
X799Y218D02*
X806Y218D01*
X0Y217D02*
X7Y217D01*
X153Y217D02*
X160Y217D01*
X232Y217D02*
X237Y217D01*
X275Y217D02*
X281Y217D01*
X318Y217D02*
X324Y217D01*
X339Y217D02*
X345Y217D01*
X375Y217D02*
X381Y217D01*
X426Y217D02*
X433Y217D01*
X469Y217D02*
X475Y217D01*
X481Y217D02*
X488Y217D01*
X511Y217D02*
X518Y217D01*
X524Y217D02*
X531Y217D01*
X568Y217D02*
X574Y217D01*
X589Y217D02*
X595Y217D01*
X611Y217D02*
X617Y217D01*
X639Y217D02*
X645Y217D01*
X675Y217D02*
X681Y217D01*
X711Y217D02*
X717Y217D01*
X724Y217D02*
X731Y217D01*
X739Y217D02*
X752Y217D01*
X775Y217D02*
X781Y217D01*
X799Y217D02*
X806Y217D01*
X0Y216D02*
X7Y216D01*
X153Y216D02*
X160Y216D01*
X230Y216D02*
X236Y216D01*
X275Y216D02*
X281Y216D01*
X318Y216D02*
X324Y216D01*
X339Y216D02*
X345Y216D01*
X375Y216D02*
X381Y216D01*
X425Y216D02*
X432Y216D01*
X468Y216D02*
X475Y216D01*
X482Y216D02*
X488Y216D01*
X511Y216D02*
X518Y216D01*
X524Y216D02*
X531Y216D01*
X568Y216D02*
X574Y216D01*
X589Y216D02*
X595Y216D01*
X611Y216D02*
X617Y216D01*
X639Y216D02*
X645Y216D01*
X675Y216D02*
X681Y216D01*
X711Y216D02*
X717Y216D01*
X725Y216D02*
X731Y216D01*
X739Y216D02*
X752Y216D01*
X775Y216D02*
X781Y216D01*
X799Y216D02*
X806Y216D01*
X0Y215D02*
X7Y215D01*
X153Y215D02*
X160Y215D01*
X229Y215D02*
X235Y215D01*
X275Y215D02*
X281Y215D01*
X318Y215D02*
X324Y215D01*
X339Y215D02*
X345Y215D01*
X375Y215D02*
X381Y215D01*
X425Y215D02*
X432Y215D01*
X468Y215D02*
X474Y215D01*
X482Y215D02*
X488Y215D01*
X511Y215D02*
X518Y215D01*
X525Y215D02*
X532Y215D01*
X568Y215D02*
X574Y215D01*
X589Y215D02*
X595Y215D01*
X611Y215D02*
X617Y215D01*
X639Y215D02*
X645Y215D01*
X675Y215D02*
X681Y215D01*
X711Y215D02*
X717Y215D01*
X725Y215D02*
X732Y215D01*
X739Y215D02*
X752Y215D01*
X775Y215D02*
X781Y215D01*
X799Y215D02*
X806Y215D01*
X0Y214D02*
X7Y214D01*
X153Y214D02*
X160Y214D01*
X228Y214D02*
X234Y214D01*
X275Y214D02*
X281Y214D01*
X318Y214D02*
X324Y214D01*
X339Y214D02*
X345Y214D01*
X375Y214D02*
X381Y214D01*
X424Y214D02*
X431Y214D01*
X468Y214D02*
X474Y214D01*
X482Y214D02*
X489Y214D01*
X511Y214D02*
X518Y214D01*
X525Y214D02*
X533Y214D01*
X568Y214D02*
X574Y214D01*
X589Y214D02*
X595Y214D01*
X611Y214D02*
X617Y214D01*
X639Y214D02*
X645Y214D01*
X675Y214D02*
X681Y214D01*
X711Y214D02*
X717Y214D01*
X725Y214D02*
X732Y214D01*
X739Y214D02*
X752Y214D01*
X775Y214D02*
X781Y214D01*
X799Y214D02*
X806Y214D01*
X0Y213D02*
X7Y213D01*
X153Y213D02*
X160Y213D01*
X227Y213D02*
X233Y213D01*
X275Y213D02*
X281Y213D01*
X318Y213D02*
X324Y213D01*
X339Y213D02*
X345Y213D01*
X375Y213D02*
X381Y213D01*
X423Y213D02*
X431Y213D01*
X468Y213D02*
X474Y213D01*
X483Y213D02*
X489Y213D01*
X511Y213D02*
X518Y213D01*
X526Y213D02*
X533Y213D01*
X568Y213D02*
X574Y213D01*
X589Y213D02*
X595Y213D01*
X611Y213D02*
X617Y213D01*
X639Y213D02*
X645Y213D01*
X675Y213D02*
X681Y213D01*
X711Y213D02*
X717Y213D01*
X726Y213D02*
X733Y213D01*
X739Y213D02*
X752Y213D01*
X775Y213D02*
X781Y213D01*
X799Y213D02*
X806Y213D01*
X0Y212D02*
X7Y212D01*
X153Y212D02*
X160Y212D01*
X226Y212D02*
X232Y212D01*
X275Y212D02*
X281Y212D01*
X318Y212D02*
X324Y212D01*
X338Y212D02*
X345Y212D01*
X375Y212D02*
X381Y212D01*
X423Y212D02*
X430Y212D01*
X467Y212D02*
X474Y212D01*
X483Y212D02*
X489Y212D01*
X511Y212D02*
X518Y212D01*
X527Y212D02*
X534Y212D01*
X568Y212D02*
X574Y212D01*
X588Y212D02*
X595Y212D01*
X611Y212D02*
X617Y212D01*
X639Y212D02*
X645Y212D01*
X675Y212D02*
X681Y212D01*
X711Y212D02*
X717Y212D01*
X726Y212D02*
X733Y212D01*
X739Y212D02*
X752Y212D01*
X775Y212D02*
X781Y212D01*
X799Y212D02*
X806Y212D01*
X0Y211D02*
X7Y211D01*
X153Y211D02*
X160Y211D01*
X225Y211D02*
X231Y211D01*
X275Y211D02*
X281Y211D01*
X318Y211D02*
X324Y211D01*
X338Y211D02*
X344Y211D01*
X375Y211D02*
X381Y211D01*
X422Y211D02*
X429Y211D01*
X467Y211D02*
X473Y211D01*
X483Y211D02*
X490Y211D01*
X511Y211D02*
X518Y211D01*
X527Y211D02*
X534Y211D01*
X568Y211D02*
X574Y211D01*
X588Y211D02*
X594Y211D01*
X611Y211D02*
X617Y211D01*
X639Y211D02*
X645Y211D01*
X675Y211D02*
X681Y211D01*
X711Y211D02*
X717Y211D01*
X727Y211D02*
X733Y211D01*
X739Y211D02*
X752Y211D01*
X775Y211D02*
X781Y211D01*
X799Y211D02*
X806Y211D01*
X0Y210D02*
X7Y210D01*
X153Y210D02*
X160Y210D01*
X224Y210D02*
X230Y210D01*
X275Y210D02*
X281Y210D01*
X318Y210D02*
X324Y210D01*
X337Y210D02*
X344Y210D01*
X375Y210D02*
X381Y210D01*
X422Y210D02*
X429Y210D01*
X467Y210D02*
X473Y210D01*
X484Y210D02*
X490Y210D01*
X511Y210D02*
X518Y210D01*
X528Y210D02*
X535Y210D01*
X568Y210D02*
X574Y210D01*
X587Y210D02*
X594Y210D01*
X611Y210D02*
X617Y210D01*
X639Y210D02*
X645Y210D01*
X675Y210D02*
X681Y210D01*
X711Y210D02*
X717Y210D01*
X727Y210D02*
X734Y210D01*
X739Y210D02*
X752Y210D01*
X775Y210D02*
X781Y210D01*
X799Y210D02*
X806Y210D01*
X0Y209D02*
X7Y209D01*
X153Y209D02*
X160Y209D01*
X218Y209D02*
X218Y209D01*
X223Y209D02*
X229Y209D01*
X275Y209D02*
X281Y209D01*
X318Y209D02*
X324Y209D01*
X337Y209D02*
X344Y209D01*
X375Y209D02*
X381Y209D01*
X421Y209D02*
X428Y209D01*
X466Y209D02*
X473Y209D01*
X484Y209D02*
X490Y209D01*
X511Y209D02*
X518Y209D01*
X528Y209D02*
X535Y209D01*
X568Y209D02*
X574Y209D01*
X587Y209D02*
X594Y209D01*
X611Y209D02*
X617Y209D01*
X639Y209D02*
X645Y209D01*
X675Y209D02*
X681Y209D01*
X711Y209D02*
X717Y209D01*
X728Y209D02*
X734Y209D01*
X739Y209D02*
X752Y209D01*
X775Y209D02*
X781Y209D01*
X799Y209D02*
X806Y209D01*
X0Y208D02*
X7Y208D01*
X153Y208D02*
X160Y208D01*
X215Y208D02*
X218Y208D01*
X222Y208D02*
X228Y208D01*
X275Y208D02*
X281Y208D01*
X318Y208D02*
X324Y208D01*
X336Y208D02*
X343Y208D01*
X375Y208D02*
X381Y208D01*
X420Y208D02*
X428Y208D01*
X466Y208D02*
X472Y208D01*
X484Y208D02*
X490Y208D01*
X511Y208D02*
X518Y208D01*
X529Y208D02*
X536Y208D01*
X568Y208D02*
X574Y208D01*
X586Y208D02*
X593Y208D01*
X611Y208D02*
X617Y208D01*
X639Y208D02*
X645Y208D01*
X675Y208D02*
X681Y208D01*
X711Y208D02*
X717Y208D01*
X728Y208D02*
X735Y208D01*
X739Y208D02*
X752Y208D01*
X775Y208D02*
X781Y208D01*
X799Y208D02*
X806Y208D01*
X0Y207D02*
X7Y207D01*
X153Y207D02*
X160Y207D01*
X212Y207D02*
X218Y207D01*
X221Y207D02*
X227Y207D01*
X275Y207D02*
X281Y207D01*
X318Y207D02*
X324Y207D01*
X336Y207D02*
X343Y207D01*
X375Y207D02*
X381Y207D01*
X420Y207D02*
X427Y207D01*
X466Y207D02*
X473Y207D01*
X484Y207D02*
X491Y207D01*
X511Y207D02*
X518Y207D01*
X529Y207D02*
X537Y207D01*
X568Y207D02*
X574Y207D01*
X586Y207D02*
X593Y207D01*
X611Y207D02*
X617Y207D01*
X639Y207D02*
X645Y207D01*
X675Y207D02*
X681Y207D01*
X711Y207D02*
X717Y207D01*
X728Y207D02*
X735Y207D01*
X739Y207D02*
X752Y207D01*
X775Y207D02*
X781Y207D01*
X799Y207D02*
X806Y207D01*
X0Y206D02*
X7Y206D01*
X153Y206D02*
X160Y206D01*
X212Y206D02*
X218Y206D01*
X220Y206D02*
X226Y206D01*
X275Y206D02*
X281Y206D01*
X318Y206D02*
X324Y206D01*
X335Y206D02*
X342Y206D01*
X375Y206D02*
X381Y206D01*
X419Y206D02*
X426Y206D01*
X465Y206D02*
X491Y206D01*
X511Y206D02*
X518Y206D01*
X530Y206D02*
X537Y206D01*
X568Y206D02*
X574Y206D01*
X585Y206D02*
X592Y206D01*
X611Y206D02*
X617Y206D01*
X639Y206D02*
X645Y206D01*
X675Y206D02*
X681Y206D01*
X711Y206D02*
X717Y206D01*
X729Y206D02*
X736Y206D01*
X739Y206D02*
X752Y206D01*
X775Y206D02*
X781Y206D01*
X799Y206D02*
X806Y206D01*
X0Y205D02*
X7Y205D01*
X153Y205D02*
X160Y205D01*
X212Y205D02*
X225Y205D01*
X275Y205D02*
X281Y205D01*
X318Y205D02*
X324Y205D01*
X335Y205D02*
X342Y205D01*
X375Y205D02*
X381Y205D01*
X419Y205D02*
X426Y205D01*
X465Y205D02*
X491Y205D01*
X511Y205D02*
X518Y205D01*
X531Y205D02*
X538Y205D01*
X568Y205D02*
X574Y205D01*
X585Y205D02*
X592Y205D01*
X611Y205D02*
X617Y205D01*
X639Y205D02*
X645Y205D01*
X675Y205D02*
X681Y205D01*
X711Y205D02*
X717Y205D01*
X729Y205D02*
X736Y205D01*
X739Y205D02*
X752Y205D01*
X775Y205D02*
X781Y205D01*
X799Y205D02*
X806Y205D01*
X0Y204D02*
X7Y204D01*
X153Y204D02*
X160Y204D01*
X212Y204D02*
X224Y204D01*
X275Y204D02*
X281Y204D01*
X318Y204D02*
X324Y204D01*
X334Y204D02*
X341Y204D01*
X375Y204D02*
X381Y204D01*
X418Y204D02*
X425Y204D01*
X465Y204D02*
X492Y204D01*
X511Y204D02*
X518Y204D01*
X531Y204D02*
X538Y204D01*
X568Y204D02*
X574Y204D01*
X584Y204D02*
X591Y204D01*
X611Y204D02*
X617Y204D01*
X639Y204D02*
X645Y204D01*
X675Y204D02*
X681Y204D01*
X711Y204D02*
X717Y204D01*
X730Y204D02*
X736Y204D01*
X739Y204D02*
X752Y204D01*
X775Y204D02*
X781Y204D01*
X799Y204D02*
X806Y204D01*
X0Y203D02*
X7Y203D01*
X153Y203D02*
X160Y203D01*
X212Y203D02*
X223Y203D01*
X275Y203D02*
X281Y203D01*
X318Y203D02*
X324Y203D01*
X334Y203D02*
X341Y203D01*
X375Y203D02*
X381Y203D01*
X418Y203D02*
X425Y203D01*
X465Y203D02*
X492Y203D01*
X511Y203D02*
X518Y203D01*
X532Y203D02*
X539Y203D01*
X568Y203D02*
X574Y203D01*
X584Y203D02*
X591Y203D01*
X611Y203D02*
X617Y203D01*
X639Y203D02*
X645Y203D01*
X675Y203D02*
X681Y203D01*
X711Y203D02*
X717Y203D01*
X730Y203D02*
X737Y203D01*
X739Y203D02*
X752Y203D01*
X775Y203D02*
X781Y203D01*
X799Y203D02*
X806Y203D01*
X0Y202D02*
X7Y202D01*
X153Y202D02*
X160Y202D01*
X212Y202D02*
X222Y202D01*
X275Y202D02*
X281Y202D01*
X318Y202D02*
X324Y202D01*
X333Y202D02*
X340Y202D01*
X375Y202D02*
X381Y202D01*
X417Y202D02*
X424Y202D01*
X464Y202D02*
X492Y202D01*
X511Y202D02*
X518Y202D01*
X532Y202D02*
X540Y202D01*
X568Y202D02*
X574Y202D01*
X583Y202D02*
X590Y202D01*
X611Y202D02*
X617Y202D01*
X639Y202D02*
X645Y202D01*
X675Y202D02*
X681Y202D01*
X711Y202D02*
X717Y202D01*
X731Y202D02*
X737Y202D01*
X739Y202D02*
X752Y202D01*
X775Y202D02*
X781Y202D01*
X799Y202D02*
X806Y202D01*
X0Y201D02*
X7Y201D01*
X153Y201D02*
X160Y201D01*
X212Y201D02*
X221Y201D01*
X275Y201D02*
X281Y201D01*
X318Y201D02*
X324Y201D01*
X333Y201D02*
X340Y201D01*
X375Y201D02*
X381Y201D01*
X416Y201D02*
X424Y201D01*
X464Y201D02*
X492Y201D01*
X511Y201D02*
X518Y201D01*
X533Y201D02*
X540Y201D01*
X568Y201D02*
X574Y201D01*
X583Y201D02*
X590Y201D01*
X611Y201D02*
X617Y201D01*
X639Y201D02*
X645Y201D01*
X675Y201D02*
X681Y201D01*
X711Y201D02*
X717Y201D01*
X731Y201D02*
X752Y201D01*
X775Y201D02*
X781Y201D01*
X799Y201D02*
X806Y201D01*
X0Y200D02*
X7Y200D01*
X153Y200D02*
X160Y200D01*
X212Y200D02*
X220Y200D01*
X275Y200D02*
X281Y200D01*
X318Y200D02*
X324Y200D01*
X332Y200D02*
X339Y200D01*
X375Y200D02*
X381Y200D01*
X416Y200D02*
X423Y200D01*
X464Y200D02*
X493Y200D01*
X511Y200D02*
X518Y200D01*
X534Y200D02*
X541Y200D01*
X568Y200D02*
X574Y200D01*
X582Y200D02*
X589Y200D01*
X611Y200D02*
X617Y200D01*
X639Y200D02*
X645Y200D01*
X675Y200D02*
X681Y200D01*
X711Y200D02*
X717Y200D01*
X732Y200D02*
X752Y200D01*
X775Y200D02*
X781Y200D01*
X799Y200D02*
X806Y200D01*
X0Y199D02*
X7Y199D01*
X153Y199D02*
X160Y199D01*
X212Y199D02*
X219Y199D01*
X275Y199D02*
X281Y199D01*
X318Y199D02*
X324Y199D01*
X332Y199D02*
X339Y199D01*
X375Y199D02*
X381Y199D01*
X415Y199D02*
X422Y199D01*
X463Y199D02*
X470Y199D01*
X487Y199D02*
X493Y199D01*
X511Y199D02*
X518Y199D01*
X534Y199D02*
X541Y199D01*
X568Y199D02*
X574Y199D01*
X582Y199D02*
X589Y199D01*
X611Y199D02*
X617Y199D01*
X639Y199D02*
X645Y199D01*
X675Y199D02*
X681Y199D01*
X711Y199D02*
X717Y199D01*
X732Y199D02*
X752Y199D01*
X775Y199D02*
X781Y199D01*
X799Y199D02*
X806Y199D01*
X0Y198D02*
X7Y198D01*
X153Y198D02*
X160Y198D01*
X212Y198D02*
X218Y198D01*
X275Y198D02*
X281Y198D01*
X318Y198D02*
X324Y198D01*
X331Y198D02*
X338Y198D01*
X375Y198D02*
X381Y198D01*
X415Y198D02*
X422Y198D01*
X463Y198D02*
X469Y198D01*
X487Y198D02*
X493Y198D01*
X511Y198D02*
X518Y198D01*
X535Y198D02*
X542Y198D01*
X568Y198D02*
X574Y198D01*
X581Y198D02*
X588Y198D01*
X611Y198D02*
X617Y198D01*
X639Y198D02*
X645Y198D01*
X675Y198D02*
X681Y198D01*
X711Y198D02*
X717Y198D01*
X732Y198D02*
X752Y198D01*
X775Y198D02*
X781Y198D01*
X799Y198D02*
X806Y198D01*
X0Y197D02*
X7Y197D01*
X153Y197D02*
X160Y197D01*
X212Y197D02*
X218Y197D01*
X275Y197D02*
X281Y197D01*
X318Y197D02*
X324Y197D01*
X331Y197D02*
X338Y197D01*
X375Y197D02*
X381Y197D01*
X414Y197D02*
X421Y197D01*
X463Y197D02*
X469Y197D01*
X487Y197D02*
X494Y197D01*
X511Y197D02*
X518Y197D01*
X535Y197D02*
X542Y197D01*
X568Y197D02*
X574Y197D01*
X581Y197D02*
X588Y197D01*
X611Y197D02*
X617Y197D01*
X639Y197D02*
X645Y197D01*
X675Y197D02*
X681Y197D01*
X711Y197D02*
X717Y197D01*
X733Y197D02*
X752Y197D01*
X775Y197D02*
X781Y197D01*
X799Y197D02*
X806Y197D01*
X0Y196D02*
X7Y196D01*
X153Y196D02*
X160Y196D01*
X212Y196D02*
X218Y196D01*
X275Y196D02*
X281Y196D01*
X318Y196D02*
X324Y196D01*
X330Y196D02*
X337Y196D01*
X375Y196D02*
X381Y196D01*
X413Y196D02*
X421Y196D01*
X463Y196D02*
X469Y196D01*
X488Y196D02*
X494Y196D01*
X511Y196D02*
X518Y196D01*
X536Y196D02*
X543Y196D01*
X568Y196D02*
X574Y196D01*
X580Y196D02*
X587Y196D01*
X611Y196D02*
X617Y196D01*
X639Y196D02*
X645Y196D01*
X675Y196D02*
X681Y196D01*
X711Y196D02*
X717Y196D01*
X733Y196D02*
X752Y196D01*
X775Y196D02*
X781Y196D01*
X799Y196D02*
X806Y196D01*
X0Y195D02*
X7Y195D01*
X153Y195D02*
X160Y195D01*
X212Y195D02*
X218Y195D01*
X275Y195D02*
X281Y195D01*
X314Y195D02*
X337Y195D01*
X364Y195D02*
X392Y195D01*
X413Y195D02*
X420Y195D01*
X462Y195D02*
X469Y195D01*
X488Y195D02*
X494Y195D01*
X511Y195D02*
X518Y195D01*
X536Y195D02*
X544Y195D01*
X564Y195D02*
X587Y195D01*
X611Y195D02*
X617Y195D01*
X639Y195D02*
X645Y195D01*
X664Y195D02*
X692Y195D01*
X711Y195D02*
X717Y195D01*
X734Y195D02*
X752Y195D01*
X764Y195D02*
X792Y195D01*
X799Y195D02*
X806Y195D01*
X0Y194D02*
X7Y194D01*
X153Y194D02*
X160Y194D01*
X212Y194D02*
X218Y194D01*
X275Y194D02*
X281Y194D01*
X312Y194D02*
X336Y194D01*
X362Y194D02*
X394Y194D01*
X412Y194D02*
X419Y194D01*
X462Y194D02*
X468Y194D01*
X488Y194D02*
X494Y194D01*
X511Y194D02*
X518Y194D01*
X537Y194D02*
X544Y194D01*
X562Y194D02*
X586Y194D01*
X611Y194D02*
X617Y194D01*
X639Y194D02*
X645Y194D01*
X662Y194D02*
X694Y194D01*
X711Y194D02*
X717Y194D01*
X734Y194D02*
X752Y194D01*
X762Y194D02*
X794Y194D01*
X799Y194D02*
X806Y194D01*
X0Y193D02*
X7Y193D01*
X153Y193D02*
X160Y193D01*
X212Y193D02*
X218Y193D01*
X275Y193D02*
X281Y193D01*
X312Y193D02*
X336Y193D01*
X362Y193D02*
X395Y193D01*
X412Y193D02*
X419Y193D01*
X462Y193D02*
X468Y193D01*
X489Y193D02*
X495Y193D01*
X511Y193D02*
X518Y193D01*
X538Y193D02*
X545Y193D01*
X562Y193D02*
X586Y193D01*
X611Y193D02*
X617Y193D01*
X639Y193D02*
X645Y193D01*
X662Y193D02*
X695Y193D01*
X711Y193D02*
X717Y193D01*
X735Y193D02*
X752Y193D01*
X762Y193D02*
X795Y193D01*
X799Y193D02*
X806Y193D01*
X0Y192D02*
X7Y192D01*
X153Y192D02*
X160Y192D01*
X212Y192D02*
X218Y192D01*
X275Y192D02*
X281Y192D01*
X312Y192D02*
X335Y192D01*
X362Y192D02*
X395Y192D01*
X412Y192D02*
X418Y192D01*
X461Y192D02*
X468Y192D01*
X489Y192D02*
X495Y192D01*
X511Y192D02*
X518Y192D01*
X538Y192D02*
X545Y192D01*
X562Y192D02*
X585Y192D01*
X611Y192D02*
X617Y192D01*
X639Y192D02*
X645Y192D01*
X662Y192D02*
X695Y192D01*
X711Y192D02*
X717Y192D01*
X735Y192D02*
X752Y192D01*
X762Y192D02*
X795Y192D01*
X799Y192D02*
X806Y192D01*
X0Y191D02*
X7Y191D01*
X153Y191D02*
X160Y191D01*
X212Y191D02*
X217Y191D01*
X275Y191D02*
X281Y191D01*
X312Y191D02*
X334Y191D01*
X362Y191D02*
X395Y191D01*
X412Y191D02*
X418Y191D01*
X461Y191D02*
X467Y191D01*
X489Y191D02*
X495Y191D01*
X512Y191D02*
X517Y191D01*
X539Y191D02*
X545Y191D01*
X562Y191D02*
X584Y191D01*
X612Y191D02*
X617Y191D01*
X639Y191D02*
X645Y191D01*
X662Y191D02*
X695Y191D01*
X712Y191D02*
X717Y191D01*
X735Y191D02*
X752Y191D01*
X762Y191D02*
X795Y191D01*
X799Y191D02*
X806Y191D01*
X0Y190D02*
X7Y190D01*
X153Y190D02*
X160Y190D01*
X212Y190D02*
X217Y190D01*
X276Y190D02*
X281Y190D01*
X312Y190D02*
X333Y190D01*
X362Y190D02*
X395Y190D01*
X412Y190D02*
X417Y190D01*
X462Y190D02*
X467Y190D01*
X490Y190D02*
X495Y190D01*
X512Y190D02*
X517Y190D01*
X539Y190D02*
X545Y190D01*
X562Y190D02*
X583Y190D01*
X612Y190D02*
X617Y190D01*
X640Y190D02*
X645Y190D01*
X662Y190D02*
X695Y190D01*
X712Y190D02*
X717Y190D01*
X736Y190D02*
X752Y190D01*
X762Y190D02*
X795Y190D01*
X799Y190D02*
X806Y190D01*
X0Y189D02*
X7Y189D01*
X153Y189D02*
X160Y189D01*
X213Y189D02*
X216Y189D01*
X277Y189D02*
X280Y189D01*
X313Y189D02*
X331Y189D01*
X363Y189D02*
X394Y189D01*
X413Y189D02*
X416Y189D01*
X463Y189D02*
X466Y189D01*
X490Y189D02*
X494Y189D01*
X513Y189D02*
X516Y189D01*
X540Y189D02*
X544Y189D01*
X563Y189D02*
X581Y189D01*
X613Y189D02*
X616Y189D01*
X640Y189D02*
X644Y189D01*
X663Y189D02*
X694Y189D01*
X713Y189D02*
X716Y189D01*
X736Y189D02*
X752Y189D01*
X763Y189D02*
X794Y189D01*
X799Y189D02*
X806Y189D01*
X0Y188D02*
X7Y188D01*
X153Y188D02*
X160Y188D01*
X745Y188D02*
X752Y188D01*
X799Y188D02*
X806Y188D01*
X0Y187D02*
X7Y187D01*
X153Y187D02*
X160Y187D01*
X745Y187D02*
X752Y187D01*
X799Y187D02*
X806Y187D01*
X0Y186D02*
X7Y186D01*
X153Y186D02*
X160Y186D01*
X745Y186D02*
X752Y186D01*
X799Y186D02*
X806Y186D01*
X0Y185D02*
X7Y185D01*
X153Y185D02*
X160Y185D01*
X745Y185D02*
X752Y185D01*
X799Y185D02*
X806Y185D01*
X0Y184D02*
X7Y184D01*
X153Y184D02*
X160Y184D01*
X745Y184D02*
X752Y184D01*
X799Y184D02*
X806Y184D01*
X0Y183D02*
X7Y183D01*
X153Y183D02*
X160Y183D01*
X745Y183D02*
X752Y183D01*
X799Y183D02*
X806Y183D01*
X0Y182D02*
X7Y182D01*
X153Y182D02*
X160Y182D01*
X745Y182D02*
X752Y182D01*
X799Y182D02*
X806Y182D01*
X0Y181D02*
X7Y181D01*
X153Y181D02*
X160Y181D01*
X745Y181D02*
X752Y181D01*
X799Y181D02*
X806Y181D01*
X0Y180D02*
X7Y180D01*
X153Y180D02*
X160Y180D01*
X745Y180D02*
X752Y180D01*
X799Y180D02*
X806Y180D01*
X0Y179D02*
X7Y179D01*
X153Y179D02*
X160Y179D01*
X745Y179D02*
X752Y179D01*
X799Y179D02*
X806Y179D01*
X0Y178D02*
X7Y178D01*
X153Y178D02*
X160Y178D01*
X745Y178D02*
X752Y178D01*
X799Y178D02*
X806Y178D01*
X0Y177D02*
X7Y177D01*
X153Y177D02*
X160Y177D01*
X745Y177D02*
X752Y177D01*
X799Y177D02*
X806Y177D01*
X0Y176D02*
X7Y176D01*
X153Y176D02*
X160Y176D01*
X745Y176D02*
X752Y176D01*
X799Y176D02*
X806Y176D01*
X0Y175D02*
X7Y175D01*
X153Y175D02*
X160Y175D01*
X745Y175D02*
X752Y175D01*
X799Y175D02*
X806Y175D01*
X0Y174D02*
X7Y174D01*
X153Y174D02*
X160Y174D01*
X745Y174D02*
X752Y174D01*
X799Y174D02*
X806Y174D01*
X0Y173D02*
X7Y173D01*
X153Y173D02*
X160Y173D01*
X745Y173D02*
X752Y173D01*
X799Y173D02*
X806Y173D01*
X0Y172D02*
X7Y172D01*
X153Y172D02*
X160Y172D01*
X745Y172D02*
X752Y172D01*
X799Y172D02*
X806Y172D01*
X0Y171D02*
X7Y171D01*
X153Y171D02*
X160Y171D01*
X745Y171D02*
X752Y171D01*
X799Y171D02*
X806Y171D01*
X0Y170D02*
X7Y170D01*
X153Y170D02*
X160Y170D01*
X745Y170D02*
X752Y170D01*
X799Y170D02*
X806Y170D01*
X0Y169D02*
X7Y169D01*
X153Y169D02*
X160Y169D01*
X745Y169D02*
X752Y169D01*
X799Y169D02*
X806Y169D01*
X0Y168D02*
X7Y168D01*
X153Y168D02*
X160Y168D01*
X745Y168D02*
X752Y168D01*
X799Y168D02*
X806Y168D01*
X0Y167D02*
X7Y167D01*
X153Y167D02*
X160Y167D01*
X745Y167D02*
X752Y167D01*
X799Y167D02*
X806Y167D01*
X0Y166D02*
X7Y166D01*
X153Y166D02*
X160Y166D01*
X745Y166D02*
X752Y166D01*
X799Y166D02*
X806Y166D01*
X0Y165D02*
X7Y165D01*
X153Y165D02*
X160Y165D01*
X745Y165D02*
X752Y165D01*
X799Y165D02*
X806Y165D01*
X0Y164D02*
X7Y164D01*
X153Y164D02*
X160Y164D01*
X745Y164D02*
X752Y164D01*
X799Y164D02*
X806Y164D01*
X0Y163D02*
X7Y163D01*
X153Y163D02*
X160Y163D01*
X745Y163D02*
X752Y163D01*
X799Y163D02*
X806Y163D01*
X0Y162D02*
X7Y162D01*
X153Y162D02*
X160Y162D01*
X745Y162D02*
X752Y162D01*
X799Y162D02*
X806Y162D01*
X0Y161D02*
X7Y161D01*
X153Y161D02*
X160Y161D01*
X745Y161D02*
X752Y161D01*
X799Y161D02*
X806Y161D01*
X0Y160D02*
X7Y160D01*
X153Y160D02*
X160Y160D01*
X745Y160D02*
X752Y160D01*
X799Y160D02*
X806Y160D01*
X0Y159D02*
X7Y159D01*
X153Y159D02*
X160Y159D01*
X745Y159D02*
X752Y159D01*
X799Y159D02*
X806Y159D01*
X0Y158D02*
X7Y158D01*
X153Y158D02*
X160Y158D01*
X745Y158D02*
X752Y158D01*
X799Y158D02*
X806Y158D01*
X0Y157D02*
X7Y157D01*
X153Y157D02*
X160Y157D01*
X745Y157D02*
X752Y157D01*
X799Y157D02*
X806Y157D01*
X0Y156D02*
X7Y156D01*
X153Y156D02*
X160Y156D01*
X745Y156D02*
X752Y156D01*
X799Y156D02*
X806Y156D01*
X0Y155D02*
X7Y155D01*
X153Y155D02*
X160Y155D01*
X745Y155D02*
X752Y155D01*
X799Y155D02*
X806Y155D01*
X0Y154D02*
X7Y154D01*
X153Y154D02*
X160Y154D01*
X745Y154D02*
X752Y154D01*
X799Y154D02*
X806Y154D01*
X0Y153D02*
X7Y153D01*
X153Y153D02*
X160Y153D01*
X745Y153D02*
X752Y153D01*
X799Y153D02*
X806Y153D01*
X0Y152D02*
X7Y152D01*
X153Y152D02*
X160Y152D01*
X745Y152D02*
X752Y152D01*
X799Y152D02*
X806Y152D01*
X0Y151D02*
X7Y151D01*
X153Y151D02*
X160Y151D01*
X745Y151D02*
X752Y151D01*
X799Y151D02*
X806Y151D01*
X0Y150D02*
X7Y150D01*
X153Y150D02*
X160Y150D01*
X745Y150D02*
X752Y150D01*
X799Y150D02*
X806Y150D01*
X0Y149D02*
X7Y149D01*
X153Y149D02*
X160Y149D01*
X745Y149D02*
X752Y149D01*
X799Y149D02*
X806Y149D01*
X0Y148D02*
X7Y148D01*
X153Y148D02*
X160Y148D01*
X745Y148D02*
X752Y148D01*
X799Y148D02*
X806Y148D01*
X0Y147D02*
X7Y147D01*
X153Y147D02*
X160Y147D01*
X745Y147D02*
X752Y147D01*
X799Y147D02*
X806Y147D01*
X0Y146D02*
X7Y146D01*
X153Y146D02*
X160Y146D01*
X745Y146D02*
X752Y146D01*
X799Y146D02*
X806Y146D01*
X0Y145D02*
X7Y145D01*
X153Y145D02*
X160Y145D01*
X745Y145D02*
X752Y145D01*
X799Y145D02*
X806Y145D01*
X0Y144D02*
X7Y144D01*
X153Y144D02*
X160Y144D01*
X745Y144D02*
X752Y144D01*
X799Y144D02*
X806Y144D01*
X0Y143D02*
X7Y143D01*
X153Y143D02*
X160Y143D01*
X745Y143D02*
X752Y143D01*
X799Y143D02*
X806Y143D01*
X0Y142D02*
X7Y142D01*
X153Y142D02*
X160Y142D01*
X745Y142D02*
X752Y142D01*
X799Y142D02*
X806Y142D01*
X0Y141D02*
X7Y141D01*
X153Y141D02*
X160Y141D01*
X745Y141D02*
X752Y141D01*
X799Y141D02*
X806Y141D01*
X0Y140D02*
X7Y140D01*
X153Y140D02*
X160Y140D01*
X745Y140D02*
X752Y140D01*
X799Y140D02*
X806Y140D01*
X0Y139D02*
X7Y139D01*
X153Y139D02*
X160Y139D01*
X745Y139D02*
X752Y139D01*
X799Y139D02*
X806Y139D01*
X0Y138D02*
X7Y138D01*
X153Y138D02*
X160Y138D01*
X745Y138D02*
X752Y138D01*
X799Y138D02*
X806Y138D01*
X0Y137D02*
X7Y137D01*
X153Y137D02*
X160Y137D01*
X745Y137D02*
X752Y137D01*
X799Y137D02*
X806Y137D01*
X0Y136D02*
X7Y136D01*
X153Y136D02*
X160Y136D01*
X745Y136D02*
X752Y136D01*
X799Y136D02*
X806Y136D01*
X0Y135D02*
X7Y135D01*
X153Y135D02*
X160Y135D01*
X745Y135D02*
X752Y135D01*
X799Y135D02*
X806Y135D01*
X0Y134D02*
X7Y134D01*
X153Y134D02*
X160Y134D01*
X745Y134D02*
X752Y134D01*
X799Y134D02*
X806Y134D01*
X0Y133D02*
X7Y133D01*
X153Y133D02*
X160Y133D01*
X745Y133D02*
X752Y133D01*
X799Y133D02*
X806Y133D01*
X0Y132D02*
X7Y132D01*
X153Y132D02*
X160Y132D01*
X745Y132D02*
X752Y132D01*
X799Y132D02*
X806Y132D01*
X0Y131D02*
X7Y131D01*
X153Y131D02*
X160Y131D01*
X745Y131D02*
X752Y131D01*
X799Y131D02*
X806Y131D01*
X0Y130D02*
X7Y130D01*
X153Y130D02*
X160Y130D01*
X745Y130D02*
X752Y130D01*
X799Y130D02*
X806Y130D01*
X0Y129D02*
X7Y129D01*
X153Y129D02*
X160Y129D01*
X745Y129D02*
X752Y129D01*
X799Y129D02*
X806Y129D01*
X0Y128D02*
X7Y128D01*
X153Y128D02*
X160Y128D01*
X745Y128D02*
X752Y128D01*
X799Y128D02*
X806Y128D01*
X0Y127D02*
X7Y127D01*
X153Y127D02*
X160Y127D01*
X745Y127D02*
X752Y127D01*
X799Y127D02*
X806Y127D01*
X0Y126D02*
X7Y126D01*
X153Y126D02*
X160Y126D01*
X745Y126D02*
X752Y126D01*
X799Y126D02*
X806Y126D01*
X0Y125D02*
X7Y125D01*
X153Y125D02*
X160Y125D01*
X745Y125D02*
X752Y125D01*
X799Y125D02*
X806Y125D01*
X0Y124D02*
X7Y124D01*
X153Y124D02*
X160Y124D01*
X745Y124D02*
X752Y124D01*
X799Y124D02*
X806Y124D01*
X0Y123D02*
X7Y123D01*
X153Y123D02*
X160Y123D01*
X745Y123D02*
X752Y123D01*
X799Y123D02*
X806Y123D01*
X0Y122D02*
X7Y122D01*
X153Y122D02*
X160Y122D01*
X745Y122D02*
X752Y122D01*
X799Y122D02*
X806Y122D01*
X0Y121D02*
X7Y121D01*
X153Y121D02*
X160Y121D01*
X745Y121D02*
X752Y121D01*
X799Y121D02*
X806Y121D01*
X0Y120D02*
X7Y120D01*
X153Y120D02*
X160Y120D01*
X745Y120D02*
X752Y120D01*
X799Y120D02*
X806Y120D01*
X0Y119D02*
X7Y119D01*
X153Y119D02*
X160Y119D01*
X745Y119D02*
X752Y119D01*
X799Y119D02*
X806Y119D01*
X0Y118D02*
X7Y118D01*
X153Y118D02*
X160Y118D01*
X745Y118D02*
X752Y118D01*
X799Y118D02*
X806Y118D01*
X0Y117D02*
X7Y117D01*
X153Y117D02*
X160Y117D01*
X745Y117D02*
X752Y117D01*
X799Y117D02*
X806Y117D01*
X0Y116D02*
X7Y116D01*
X153Y116D02*
X160Y116D01*
X745Y116D02*
X752Y116D01*
X799Y116D02*
X806Y116D01*
X0Y115D02*
X7Y115D01*
X153Y115D02*
X160Y115D01*
X745Y115D02*
X752Y115D01*
X799Y115D02*
X806Y115D01*
X0Y114D02*
X7Y114D01*
X153Y114D02*
X160Y114D01*
X745Y114D02*
X752Y114D01*
X799Y114D02*
X806Y114D01*
X0Y113D02*
X7Y113D01*
X153Y113D02*
X160Y113D01*
X745Y113D02*
X752Y113D01*
X799Y113D02*
X806Y113D01*
X0Y112D02*
X7Y112D01*
X153Y112D02*
X160Y112D01*
X745Y112D02*
X752Y112D01*
X799Y112D02*
X806Y112D01*
X0Y111D02*
X7Y111D01*
X153Y111D02*
X160Y111D01*
X745Y111D02*
X752Y111D01*
X799Y111D02*
X806Y111D01*
X0Y110D02*
X7Y110D01*
X153Y110D02*
X160Y110D01*
X745Y110D02*
X752Y110D01*
X799Y110D02*
X806Y110D01*
X0Y109D02*
X7Y109D01*
X153Y109D02*
X160Y109D01*
X745Y109D02*
X752Y109D01*
X799Y109D02*
X806Y109D01*
X0Y108D02*
X7Y108D01*
X153Y108D02*
X752Y108D01*
X799Y108D02*
X806Y108D01*
X0Y107D02*
X7Y107D01*
X153Y107D02*
X752Y107D01*
X799Y107D02*
X806Y107D01*
X0Y106D02*
X7Y106D01*
X153Y106D02*
X752Y106D01*
X799Y106D02*
X806Y106D01*
X0Y105D02*
X7Y105D01*
X153Y105D02*
X806Y105D01*
X0Y104D02*
X7Y104D01*
X153Y104D02*
X806Y104D01*
X0Y103D02*
X7Y103D01*
X153Y103D02*
X806Y103D01*
X0Y102D02*
X7Y102D01*
X153Y102D02*
X806Y102D01*
X0Y101D02*
X7Y101D01*
X153Y101D02*
X806Y101D01*
X0Y100D02*
X7Y100D01*
X198Y100D02*
X807Y100D01*
X0Y99D02*
X7Y99D01*
X198Y99D02*
X807Y99D01*
X0Y98D02*
X7Y98D01*
X198Y98D02*
X807Y98D01*
X0Y97D02*
X7Y97D01*
X198Y97D02*
X807Y97D01*
X0Y96D02*
X7Y96D01*
X198Y96D02*
X807Y96D01*
X0Y95D02*
X7Y95D01*
X198Y95D02*
X207Y95D01*
X798Y95D02*
X807Y95D01*
X0Y94D02*
X7Y94D01*
X198Y94D02*
X207Y94D01*
X798Y94D02*
X807Y94D01*
X0Y93D02*
X7Y93D01*
X198Y93D02*
X207Y93D01*
X798Y93D02*
X807Y93D01*
X0Y92D02*
X7Y92D01*
X198Y92D02*
X207Y92D01*
X798Y92D02*
X807Y92D01*
X0Y91D02*
X7Y91D01*
X198Y91D02*
X207Y91D01*
X798Y91D02*
X807Y91D01*
X0Y90D02*
X7Y90D01*
X198Y90D02*
X207Y90D01*
X798Y90D02*
X807Y90D01*
X0Y89D02*
X7Y89D01*
X198Y89D02*
X207Y89D01*
X798Y89D02*
X807Y89D01*
X0Y88D02*
X7Y88D01*
X198Y88D02*
X207Y88D01*
X798Y88D02*
X807Y88D01*
X0Y87D02*
X7Y87D01*
X198Y87D02*
X207Y87D01*
X798Y87D02*
X807Y87D01*
X0Y86D02*
X7Y86D01*
X198Y86D02*
X207Y86D01*
X798Y86D02*
X807Y86D01*
X0Y85D02*
X7Y85D01*
X198Y85D02*
X207Y85D01*
X798Y85D02*
X807Y85D01*
X0Y84D02*
X7Y84D01*
X198Y84D02*
X207Y84D01*
X798Y84D02*
X807Y84D01*
X0Y83D02*
X7Y83D01*
X198Y83D02*
X207Y83D01*
X798Y83D02*
X807Y83D01*
X0Y82D02*
X7Y82D01*
X198Y82D02*
X207Y82D01*
X798Y82D02*
X807Y82D01*
X0Y81D02*
X7Y81D01*
X198Y81D02*
X207Y81D01*
X798Y81D02*
X807Y81D01*
X0Y80D02*
X7Y80D01*
X198Y80D02*
X207Y80D01*
X798Y80D02*
X807Y80D01*
X0Y79D02*
X7Y79D01*
X198Y79D02*
X207Y79D01*
X798Y79D02*
X807Y79D01*
X0Y78D02*
X7Y78D01*
X198Y78D02*
X207Y78D01*
X798Y78D02*
X807Y78D01*
X0Y77D02*
X7Y77D01*
X198Y77D02*
X207Y77D01*
X798Y77D02*
X807Y77D01*
X0Y76D02*
X7Y76D01*
X198Y76D02*
X207Y76D01*
X798Y76D02*
X807Y76D01*
X0Y75D02*
X7Y75D01*
X198Y75D02*
X207Y75D01*
X798Y75D02*
X807Y75D01*
X0Y74D02*
X7Y74D01*
X198Y74D02*
X207Y74D01*
X798Y74D02*
X807Y74D01*
X0Y73D02*
X7Y73D01*
X198Y73D02*
X207Y73D01*
X798Y73D02*
X807Y73D01*
X0Y72D02*
X7Y72D01*
X198Y72D02*
X207Y72D01*
X798Y72D02*
X807Y72D01*
X0Y71D02*
X7Y71D01*
X198Y71D02*
X207Y71D01*
X798Y71D02*
X807Y71D01*
X0Y70D02*
X7Y70D01*
X198Y70D02*
X207Y70D01*
X798Y70D02*
X807Y70D01*
X0Y69D02*
X7Y69D01*
X198Y69D02*
X207Y69D01*
X798Y69D02*
X807Y69D01*
X0Y68D02*
X7Y68D01*
X198Y68D02*
X207Y68D01*
X798Y68D02*
X807Y68D01*
X0Y67D02*
X7Y67D01*
X198Y67D02*
X207Y67D01*
X798Y67D02*
X807Y67D01*
X0Y66D02*
X7Y66D01*
X198Y66D02*
X207Y66D01*
X798Y66D02*
X807Y66D01*
X0Y65D02*
X7Y65D01*
X198Y65D02*
X207Y65D01*
X798Y65D02*
X807Y65D01*
X0Y64D02*
X7Y64D01*
X198Y64D02*
X207Y64D01*
X798Y64D02*
X807Y64D01*
X0Y63D02*
X7Y63D01*
X198Y63D02*
X207Y63D01*
X798Y63D02*
X807Y63D01*
X0Y62D02*
X7Y62D01*
X198Y62D02*
X207Y62D01*
X798Y62D02*
X807Y62D01*
X0Y61D02*
X7Y61D01*
X198Y61D02*
X207Y61D01*
X798Y61D02*
X807Y61D01*
X0Y60D02*
X7Y60D01*
X198Y60D02*
X207Y60D01*
X798Y60D02*
X807Y60D01*
X0Y59D02*
X7Y59D01*
X198Y59D02*
X207Y59D01*
X798Y59D02*
X807Y59D01*
X0Y58D02*
X7Y58D01*
X198Y58D02*
X207Y58D01*
X798Y58D02*
X807Y58D01*
X0Y57D02*
X7Y57D01*
X198Y57D02*
X207Y57D01*
X798Y57D02*
X807Y57D01*
X0Y56D02*
X7Y56D01*
X198Y56D02*
X207Y56D01*
X798Y56D02*
X807Y56D01*
X0Y55D02*
X7Y55D01*
X198Y55D02*
X207Y55D01*
X798Y55D02*
X807Y55D01*
X0Y54D02*
X7Y54D01*
X165Y54D02*
X168Y54D01*
X198Y54D02*
X207Y54D01*
X798Y54D02*
X807Y54D01*
X0Y53D02*
X7Y53D01*
X164Y53D02*
X169Y53D01*
X198Y53D02*
X207Y53D01*
X798Y53D02*
X807Y53D01*
X0Y52D02*
X7Y52D01*
X163Y52D02*
X170Y52D01*
X198Y52D02*
X207Y52D01*
X798Y52D02*
X807Y52D01*
X0Y51D02*
X7Y51D01*
X162Y51D02*
X171Y51D01*
X198Y51D02*
X207Y51D01*
X798Y51D02*
X807Y51D01*
X0Y50D02*
X7Y50D01*
X162Y50D02*
X171Y50D01*
X198Y50D02*
X207Y50D01*
X798Y50D02*
X807Y50D01*
X0Y49D02*
X7Y49D01*
X162Y49D02*
X171Y49D01*
X198Y49D02*
X207Y49D01*
X798Y49D02*
X807Y49D01*
X0Y48D02*
X7Y48D01*
X162Y48D02*
X171Y48D01*
X198Y48D02*
X207Y48D01*
X798Y48D02*
X807Y48D01*
X0Y47D02*
X7Y47D01*
X162Y47D02*
X171Y47D01*
X198Y47D02*
X207Y47D01*
X798Y47D02*
X807Y47D01*
X0Y46D02*
X7Y46D01*
X162Y46D02*
X171Y46D01*
X198Y46D02*
X207Y46D01*
X798Y46D02*
X807Y46D01*
X0Y45D02*
X7Y45D01*
X162Y45D02*
X171Y45D01*
X198Y45D02*
X207Y45D01*
X798Y45D02*
X807Y45D01*
X0Y44D02*
X7Y44D01*
X162Y44D02*
X171Y44D01*
X198Y44D02*
X207Y44D01*
X798Y44D02*
X807Y44D01*
X0Y43D02*
X7Y43D01*
X162Y43D02*
X171Y43D01*
X198Y43D02*
X207Y43D01*
X798Y43D02*
X807Y43D01*
X0Y42D02*
X7Y42D01*
X162Y42D02*
X171Y42D01*
X198Y42D02*
X207Y42D01*
X798Y42D02*
X807Y42D01*
X0Y41D02*
X7Y41D01*
X162Y41D02*
X171Y41D01*
X198Y41D02*
X207Y41D01*
X798Y41D02*
X807Y41D01*
X0Y40D02*
X7Y40D01*
X162Y40D02*
X171Y40D01*
X198Y40D02*
X207Y40D01*
X798Y40D02*
X807Y40D01*
X0Y39D02*
X7Y39D01*
X162Y39D02*
X171Y39D01*
X198Y39D02*
X207Y39D01*
X798Y39D02*
X807Y39D01*
X0Y38D02*
X7Y38D01*
X162Y38D02*
X171Y38D01*
X198Y38D02*
X207Y38D01*
X798Y38D02*
X807Y38D01*
X0Y37D02*
X7Y37D01*
X162Y37D02*
X171Y37D01*
X198Y37D02*
X207Y37D01*
X798Y37D02*
X807Y37D01*
X0Y36D02*
X7Y36D01*
X162Y36D02*
X171Y36D01*
X198Y36D02*
X207Y36D01*
X798Y36D02*
X807Y36D01*
X0Y35D02*
X7Y35D01*
X162Y35D02*
X171Y35D01*
X198Y35D02*
X207Y35D01*
X798Y35D02*
X807Y35D01*
X0Y34D02*
X7Y34D01*
X145Y34D02*
X188Y34D01*
X198Y34D02*
X207Y34D01*
X798Y34D02*
X807Y34D01*
X0Y33D02*
X7Y33D01*
X143Y33D02*
X189Y33D01*
X198Y33D02*
X207Y33D01*
X798Y33D02*
X807Y33D01*
X0Y32D02*
X7Y32D01*
X143Y32D02*
X190Y32D01*
X198Y32D02*
X207Y32D01*
X798Y32D02*
X807Y32D01*
X0Y31D02*
X7Y31D01*
X142Y31D02*
X191Y31D01*
X198Y31D02*
X207Y31D01*
X798Y31D02*
X807Y31D01*
X0Y30D02*
X7Y30D01*
X142Y30D02*
X191Y30D01*
X198Y30D02*
X207Y30D01*
X798Y30D02*
X807Y30D01*
X0Y29D02*
X7Y29D01*
X142Y29D02*
X191Y29D01*
X198Y29D02*
X207Y29D01*
X798Y29D02*
X807Y29D01*
X0Y28D02*
X7Y28D01*
X142Y28D02*
X191Y28D01*
X198Y28D02*
X207Y28D01*
X798Y28D02*
X807Y28D01*
X0Y27D02*
X7Y27D01*
X143Y27D02*
X190Y27D01*
X198Y27D02*
X207Y27D01*
X798Y27D02*
X807Y27D01*
X0Y26D02*
X7Y26D01*
X144Y26D02*
X189Y26D01*
X198Y26D02*
X207Y26D01*
X798Y26D02*
X807Y26D01*
X0Y25D02*
X7Y25D01*
X145Y25D02*
X188Y25D01*
X198Y25D02*
X207Y25D01*
X798Y25D02*
X807Y25D01*
X0Y24D02*
X7Y24D01*
X162Y24D02*
X171Y24D01*
X198Y24D02*
X207Y24D01*
X798Y24D02*
X807Y24D01*
X0Y23D02*
X7Y23D01*
X162Y23D02*
X171Y23D01*
X198Y23D02*
X207Y23D01*
X798Y23D02*
X807Y23D01*
X0Y22D02*
X7Y22D01*
X162Y22D02*
X171Y22D01*
X198Y22D02*
X207Y22D01*
X798Y22D02*
X807Y22D01*
X0Y21D02*
X7Y21D01*
X162Y21D02*
X171Y21D01*
X198Y21D02*
X207Y21D01*
X798Y21D02*
X807Y21D01*
X0Y20D02*
X7Y20D01*
X162Y20D02*
X171Y20D01*
X198Y20D02*
X207Y20D01*
X798Y20D02*
X807Y20D01*
X0Y19D02*
X7Y19D01*
X162Y19D02*
X171Y19D01*
X198Y19D02*
X207Y19D01*
X798Y19D02*
X807Y19D01*
X0Y18D02*
X7Y18D01*
X162Y18D02*
X171Y18D01*
X198Y18D02*
X207Y18D01*
X798Y18D02*
X807Y18D01*
X0Y17D02*
X7Y17D01*
X162Y17D02*
X171Y17D01*
X198Y17D02*
X207Y17D01*
X798Y17D02*
X807Y17D01*
X0Y16D02*
X7Y16D01*
X162Y16D02*
X171Y16D01*
X198Y16D02*
X207Y16D01*
X798Y16D02*
X807Y16D01*
X0Y15D02*
X7Y15D01*
X162Y15D02*
X171Y15D01*
X198Y15D02*
X207Y15D01*
X798Y15D02*
X807Y15D01*
X0Y14D02*
X7Y14D01*
X162Y14D02*
X171Y14D01*
X198Y14D02*
X207Y14D01*
X798Y14D02*
X807Y14D01*
X0Y13D02*
X7Y13D01*
X162Y13D02*
X171Y13D01*
X198Y13D02*
X207Y13D01*
X798Y13D02*
X807Y13D01*
X0Y12D02*
X7Y12D01*
X162Y12D02*
X171Y12D01*
X198Y12D02*
X207Y12D01*
X798Y12D02*
X807Y12D01*
X0Y11D02*
X7Y11D01*
X162Y11D02*
X171Y11D01*
X198Y11D02*
X207Y11D01*
X798Y11D02*
X807Y11D01*
X0Y10D02*
X7Y10D01*
X162Y10D02*
X171Y10D01*
X198Y10D02*
X207Y10D01*
X798Y10D02*
X807Y10D01*
X0Y9D02*
X237Y9D01*
X268Y9D02*
X337Y9D01*
X368Y9D02*
X437Y9D01*
X468Y9D02*
X537Y9D01*
X567Y9D02*
X637Y9D01*
X667Y9D02*
X737Y9D01*
X767Y9D02*
X807Y9D01*
X0Y8D02*
X240Y8D01*
X264Y8D02*
X340Y8D01*
X364Y8D02*
X440Y8D01*
X464Y8D02*
X540Y8D01*
X564Y8D02*
X640Y8D01*
X664Y8D02*
X740Y8D01*
X764Y8D02*
X807Y8D01*
X0Y7D02*
X245Y7D01*
X259Y7D02*
X345Y7D01*
X359Y7D02*
X445Y7D01*
X459Y7D02*
X545Y7D01*
X559Y7D02*
X645Y7D01*
X659Y7D02*
X745Y7D01*
X759Y7D02*
X807Y7D01*
X0Y6D02*
X807Y6D01*
X0Y5D02*
X807Y5D01*
X0Y4D02*
X807Y4D01*
X0Y3D02*
X807Y3D01*
X0Y2D02*
X807Y2D01*
X198Y1D02*
X807Y1D01*
X203Y0D02*
X802Y0D01*
D02*
G04 End of Silk1*
M02*